<svg xmlns="http://www.w3.org/2000/svg" xmlns:xlink="http://www.w3.org/1999/xlink" viewBox="0 0 177.96 65.59"><defs><clipPath id="clip-path"><rect x="4.51" y="0.18" width="173.39" height="65.5" style="fill:none"/></clipPath><clipPath id="clip-path-3"><rect x="14.7" y="17.26" width="27.25" height="26.94" style="fill:none"/></clipPath><clipPath id="clip-path-4"><rect x="15.05" y="22.35" width="26.9" height="21.85" style="fill:none"/></clipPath><clipPath id="clip-path-5"><rect x="16.41" y="32.89" width="15.25" height="16.59" style="fill:none"/></clipPath><clipPath id="clip-path-6"><rect x="30.69" y="23.06" width="11.91" height="37.46" style="fill:none"/></clipPath><clipPath id="clip-path-7"><rect x="33.55" y="23.01" width="9.09" height="38.06" style="fill:none"/></clipPath><clipPath id="clip-path-8"><rect x="37.2" y="24.74" width="4.07" height="32.27" style="fill:none"/></clipPath><clipPath id="clip-path-9"><rect x="18.93" y="36.47" width="9.78" height="10.79" style="fill:none"/></clipPath><clipPath id="clip-path-10"><path d="M38.22,17.38,12.49,26.1c-3.9,4.59,1.36,7.11,5,6.95,1.86-.07,5,.07,6.47,1a7.44,7.44,0,0,0,5.65,1.09c4.52-.77,4.71-5.42,8.07-7.23s7.71-4.3,5.52-8.16a5.07,5.07,0,0,0-4.52-2.36l-.49,0" style="fill:none"/></clipPath><radialGradient id="radial-gradient" cx="-506.2" cy="300.62" r="0.16" gradientTransform="matrix(73.92, -37.19, -40.9, -65.77, 49744.14, 972.13)" gradientUnits="userSpaceOnUse"><stop offset="0" stop-color="#fef38a"/><stop offset="0.99" stop-color="#fddc63"/><stop offset="1" stop-color="#fddc63"/></radialGradient><clipPath id="clip-path-12"><rect x="19.87" y="24.17" width="19.18" height="8.29" style="fill:none"/></clipPath><clipPath id="clip-path-13"><path d="M12.56,13.72a13.74,13.74,0,0,0-1.53,10c1.24,5.49,8,6.52,12.32,6.71,1.71.08,6.07-.14,8-1.48s1.71-4.2,3.72-5.7c1.31-1,2.84-.53,3.37-2.31a6.39,6.39,0,0,0,0-2.5c-.23-3.6-2.6-6.6-5.78-8.7a13.82,13.82,0,0,0-7.68-2.16c-5,0-10.09,2.27-12.5,6.19" style="fill:none"/></clipPath><radialGradient id="radial-gradient-2" cx="-505.33" cy="301.46" r="0.16" gradientTransform="matrix(84.6, -0.23, 0.52, -75.67, 42614.51, 22710.93)" gradientUnits="userSpaceOnUse"><stop offset="0" stop-color="#fef38a"/><stop offset="0.04" stop-color="#fef38a"/><stop offset="0.99" stop-color="#fce984"/><stop offset="1" stop-color="#fce984"/></radialGradient><clipPath id="clip-path-15"><rect x="10.71" y="11.17" width="16.9" height="9.78" style="fill:none"/></clipPath><clipPath id="clip-path-16"><rect x="11.01" y="17.28" width="18.72" height="9.84" style="fill:none"/></clipPath><clipPath id="clip-path-17"><rect x="18.21" y="7.53" width="20.42" height="22.86" style="fill:none"/></clipPath><clipPath id="clip-path-18"><rect x="12.22" y="28.6" width="5.4" height="3.09" style="fill:none"/></clipPath><clipPath id="clip-path-19"><rect x="12.41" y="10.06" width="9.46" height="14.11" style="fill:none"/></clipPath><clipPath id="clip-path-20"><rect x="20.92" y="7.53" width="22.91" height="27.72" style="fill:none"/></clipPath></defs><title>Asset 1</title><g style="isolation:isolate"><g id="Layer_2" data-name="Layer 2"><g id="Layer_1-2" data-name="Layer 1"><g style="clip-path:url(#clip-path)"><g style="clip-path:url(#clip-path)"><path d="M177.21,32.79c0,17.7-38.48,32.05-85.94,32.05S5.32,50.49,5.32,32.79,43.8.75,91.27.75s85.94,14.35,85.94,32" style="fill:#fff3d9"/><ellipse cx="91.27" cy="32.79" rx="85.95" ry="32.04" style="fill:none;stroke:#070707;stroke-miterlimit:10;stroke-width:1.5009872277460208px"/><path d="M91.25,4.08a213.32,213.32,0,0,1,33,2.48,138.78,138.78,0,0,1,26.66,6.7c14.51,5.42,22.83,12.5,22.83,19.44s-8.32,14-22.83,19.44a138.81,138.81,0,0,1-26.66,6.69,212.06,212.06,0,0,1-33,2.49,212.19,212.19,0,0,1-33-2.49A139.19,139.19,0,0,1,31.6,52.14C17.09,46.72,8.77,39.64,8.77,32.7s8.32-14,22.83-19.44a139.16,139.16,0,0,1,26.66-6.7,213.45,213.45,0,0,1,33-2.48" style="fill:none;stroke:#951b1f;stroke-miterlimit:10;stroke-width:0.980870862669712px;stroke-dasharray:1.6814929246902466,0.8407464623451233"/><path d="M64.06,45.72v-.31c.77,0,1.15-.24,1.15-.72V42.53a1.57,1.57,0,0,0-.88-.16H62.24a2.06,2.06,0,0,0-.44,0,1.42,1.42,0,0,0-.4.12v2.16c0,.48.36.72,1.07.72v.31h-3.4v-.31c.79,0,1.18-.24,1.18-.72V40.07c0-.6-.39-.91-1.18-.91v-.31h3.4v.31c-.71,0-1.07.31-1.07.92v1.77a2.84,2.84,0,0,0,.84.12h2.09a2.16,2.16,0,0,0,.88-.12V40.08c0-.61-.38-.92-1.15-.92v-.31h3.36v.31c-.71,0-1.06.31-1.06.91v4.62c0,.48.35.72,1.06.72v.31Z" style="fill:#010101"/><path d="M74.57,45.87a4.15,4.15,0,0,1-1.52-.27,3.52,3.52,0,0,1-1.2-.76,3.44,3.44,0,0,1-.79-1.13A3.42,3.42,0,0,1,71,41a3.52,3.52,0,0,1,.77-1.15,3.79,3.79,0,0,1,2.76-1.11,4.6,4.6,0,0,1,1.56.26,3.61,3.61,0,0,1,1.23.74,3.18,3.18,0,0,1,.81,1.11,3.4,3.4,0,0,1,.29,1.4,3.22,3.22,0,0,1-.28,1.31,3.69,3.69,0,0,1-.78,1.17,4,4,0,0,1-1.23.83,3.94,3.94,0,0,1-1.6.31m.09-.4a2.41,2.41,0,0,0,1.12-.24,2.23,2.23,0,0,0,.76-.67,3.05,3.05,0,0,0,.45-1,4.82,4.82,0,0,0,.15-1.23,4.7,4.7,0,0,0-.15-1.2,3.12,3.12,0,0,0-.46-1,2.41,2.41,0,0,0-.82-.73,2.53,2.53,0,0,0-1.22-.27,2.26,2.26,0,0,0-1.12.26,2.07,2.07,0,0,0-.75.69,2.88,2.88,0,0,0-.4,1,5.79,5.79,0,0,0-.12,1.19,5.08,5.08,0,0,0,.15,1.27,2.94,2.94,0,0,0,.46,1,2.19,2.19,0,0,0,.8.68,2.47,2.47,0,0,0,1.15.25" style="fill:#010101"/><path d="M87.81,45.72v-.31c.68,0,1-.26,1-.76l-.08-4.82-2.48,5.89H86L83.3,39.93l0,4.57c0,.6.37.91,1.16.91v.31h-2.8v-.31a1,1,0,0,0,1.11-1l.1-4.63v-.1a.66.66,0,0,0,0-.21.32.32,0,0,0-.15-.16,1,1,0,0,0-.36-.11,3.48,3.48,0,0,0-.63,0v-.31h2.4L86.4,44.1l2.24-5.25H91v.31a3,3,0,0,0-.6.05.73.73,0,0,0-.33.13.36.36,0,0,0-.14.21.85.85,0,0,0,0,.23l.13,4.8c0,.55.35.83,1,.83v.31Z" style="fill:#010101"/><path d="M94.6,45.72v-.31c.71,0,1.07-.23,1.07-.68V40c0-.58-.38-.87-1.15-.87v-.31h6.11l.09,1.94-.36,0a2.37,2.37,0,0,0-.31-.87,1.31,1.31,0,0,0-.51-.46,1.79,1.79,0,0,0-.68-.18c-.25,0-.53,0-.83,0H97.7c-.59,0-.88.15-.88.46v1.86c0,.2.09.31.28.31h.39a4.39,4.39,0,0,0,.54,0,1.14,1.14,0,0,0,.44-.13.88.88,0,0,0,.32-.34,1.88,1.88,0,0,0,.17-.6h.42v2.68H99a2.81,2.81,0,0,0-.14-.6.89.89,0,0,0-.27-.35,1,1,0,0,0-.43-.15,3.77,3.77,0,0,0-.63,0h-.14c-.35,0-.53.12-.53.34v2c0,.4.31.59.93.59h.36a5.39,5.39,0,0,0,1.18-.1,1.77,1.77,0,0,0,.72-.31,1.54,1.54,0,0,0,.45-.53,7,7,0,0,0,.34-.76l.31.09-.31,2Z" style="fill:#010101"/><path d="M110.3,45.72v-.31c.68,0,1-.26,1-.76l-.08-4.82-2.47,5.89h-.33l-2.65-5.79,0,4.57c0,.6.38.91,1.16.91v.31h-2.8v-.31a1,1,0,0,0,1.12-1l.09-4.63v-.1a.66.66,0,0,0,0-.21.32.32,0,0,0-.15-.16.9.9,0,0,0-.36-.11,3.42,3.42,0,0,0-.62,0v-.31h2.39l2.34,5.25,2.25-5.25h2.35v.31a3.12,3.12,0,0,0-.6.05.73.73,0,0,0-.33.13.36.36,0,0,0-.14.21.85.85,0,0,0,0,.23l.13,4.8c0,.55.35.83,1,.83v.31Z" style="fill:#010101"/><path d="M121,45.72v-.31l.34,0,.32,0a1.26,1.26,0,0,0,.25-.07c.06,0,.1-.07.1-.11a.37.37,0,0,1,0-.12.58.58,0,0,0-.06-.19l-.53-1.28c-.08-.18-.32-.27-.71-.27H119c-.29,0-.47.09-.53.27l-.39,1.07a.5.5,0,0,0,0,.27c0,.32.34.47,1,.47v.37h-2.61v-.37a1,1,0,0,0,.57-.2,1.52,1.52,0,0,0,.4-.54l2.79-5.91.35.12L123.27,45a.83.83,0,0,0,.26.27l.19.06.47.11v.31Zm-1-5.56-1,2.17a1,1,0,0,0-.12.35c0,.11.14.16.43.16h1.46c.23,0,.35,0,.35-.13a1.6,1.6,0,0,0-.13-.34Z" style="fill:#010101"/><path d="M127,45.72v-.31a4.28,4.28,0,0,0,.56,0,.84.84,0,0,0,.33-.13.55.55,0,0,0,.16-.29,2.39,2.39,0,0,0,0-.51V40.16a1.85,1.85,0,0,0-.06-.55.44.44,0,0,0-.19-.26,1.1,1.1,0,0,0-.36-.1,4.59,4.59,0,0,1-.53-.08v-.32l.49,0h1.18l.6,0,.62,0h.69a5.83,5.83,0,0,1,1.75.24,3.6,3.6,0,0,1,1.29.68,3,3,0,0,1,.8,1.09,3.8,3.8,0,0,1,.27,1.46,3.59,3.59,0,0,1-.27,1.42,2.74,2.74,0,0,1-.84,1.08,4.18,4.18,0,0,1-1.47.68,7.89,7.89,0,0,1-2.15.25Zm3.62-.41a2.6,2.6,0,0,0,2-.73,3.33,3.33,0,0,0,.67-2.29,3.08,3.08,0,0,0-.75-2.29,2.88,2.88,0,0,0-2.15-.75H130l-.35,0a.44.44,0,0,0-.22.08.52.52,0,0,0-.12.19,1.62,1.62,0,0,0,0,.35v4.64a1.72,1.72,0,0,0,0,.44.42.42,0,0,0,.18.23.58.58,0,0,0,.32.1h.83Z" style="fill:#010101"/><path d="M138.16,45.72v-.31c.71,0,1.07-.23,1.07-.68V40c0-.58-.39-.87-1.15-.87v-.31h6.1l.1,1.94-.36,0a2.37,2.37,0,0,0-.32-.87,1.29,1.29,0,0,0-.5-.46,1.85,1.85,0,0,0-.68-.18c-.26,0-.54,0-.84,0h-.32c-.59,0-.88.15-.88.46v1.86c0,.2.09.31.27.31h.4a4.63,4.63,0,0,0,.54,0,1.19,1.19,0,0,0,.44-.13.85.85,0,0,0,.31-.34,1.65,1.65,0,0,0,.17-.6h.43v2.68h-.43a2.31,2.31,0,0,0-.14-.6.79.79,0,0,0-.26-.35,1,1,0,0,0-.43-.15,3.77,3.77,0,0,0-.63,0h-.14c-.36,0-.53.12-.53.34v2c0,.4.31.59.92.59h.36a5.39,5.39,0,0,0,1.18-.1,1.81,1.81,0,0,0,.73-.31,1.79,1.79,0,0,0,.45-.53c.11-.21.22-.47.34-.76l.31.09-.31,2Z" style="fill:#010101"/><path d="M80.62,49.88l-.05.17-.2,0-.18,0a.32.32,0,0,0-.16.1.37.37,0,0,0-.07.14l-.59,2.33,0,.07v.06a.16.16,0,0,0,.09.15,1.15,1.15,0,0,0,.38.07l0,.18h-2l0-.18L78,53l.17,0a.49.49,0,0,0,.16-.1.28.28,0,0,0,.08-.15l.63-2.5h0l-2,2.92h-.34a2.16,2.16,0,0,0,0-.29c0-.14,0-.26-.06-.38l-.36-2.28h0l-.53,2a1.89,1.89,0,0,0,0,.23,1.5,1.5,0,0,0,0,.2.46.46,0,0,0,0,.14.22.22,0,0,0,.07.09.54.54,0,0,0,.2.09,1,1,0,0,0,.23.05l0,.18h-1.6l.05-.18.22,0a.66.66,0,0,0,.26-.08.54.54,0,0,0,.2-.22,2.32,2.32,0,0,0,.15-.45l.43-1.64a1.3,1.3,0,0,1,0-.13v-.08a.27.27,0,0,0,0-.13.2.2,0,0,0-.07-.09.31.31,0,0,0-.19-.09l-.21,0,0-.17h1.7l.36,2.18,1.22-1.77.15-.25.07-.16Z" style="fill:#721513"/><path d="M82.16,52.9h0L82,53l-.21.12-.23.08a1.17,1.17,0,0,1-.27,0,.9.9,0,0,1-.69-.24.93.93,0,0,1-.23-.66,1.38,1.38,0,0,1,.13-.6,1.54,1.54,0,0,1,.34-.49,2,2,0,0,1,.51-.34,1.58,1.58,0,0,1,.61-.12,1.73,1.73,0,0,1,.42,0,1,1,0,0,1,.29.13l.8-.14,0,0-.39,1.44c0,.05,0,.11,0,.18a.75.75,0,0,0,0,.17.22.22,0,0,0,.07.18.39.39,0,0,0,.24,0l.18,0,.14,0-.06.21a4,4,0,0,1-.41.14,1,1,0,0,1-.36.05.86.86,0,0,1-.43-.09.55.55,0,0,1-.23-.25m.31-1.48a.49.49,0,0,0,0-.12.23.23,0,0,0-.06-.12.27.27,0,0,0-.12-.09.49.49,0,0,0-.19,0,.51.51,0,0,0-.32.12,1.24,1.24,0,0,0-.26.29,1.54,1.54,0,0,0-.17.43,2,2,0,0,0-.06.49.68.68,0,0,0,0,.21.43.43,0,0,0,.06.17.35.35,0,0,0,.13.11.4.4,0,0,0,.2,0,.53.53,0,0,0,.24-.06l.21-.16Z" style="fill:#721513"/><path d="M86.51,51.31a.45.45,0,0,1,0,.2.37.37,0,0,1-.1.17.61.61,0,0,1-.16.12.63.63,0,0,1-.23,0,.46.46,0,0,1-.31-.09.24.24,0,0,1-.12-.19.34.34,0,0,1,0-.18l.1-.22a1.39,1.39,0,0,0-.3.16l-.25.22-.41,1.66h-.87l.37-1.44,0-.17a1.41,1.41,0,0,0,0-.18.22.22,0,0,0-.06-.18s-.11,0-.22,0a.55.55,0,0,0-.18,0l-.15,0,.06-.21.41-.13a1.2,1.2,0,0,1,.36,0A.78.78,0,0,1,85,51a.49.49,0,0,1,.2.3h0a2.09,2.09,0,0,1,.44-.34.76.76,0,0,1,.39-.1.46.46,0,0,1,.35.13.45.45,0,0,1,.13.36" style="fill:#721513"/><path d="M87.51,53.27a2.19,2.19,0,0,1-.55-.05,1.11,1.11,0,0,1-.34-.12.41.41,0,0,1-.18-.16.34.34,0,0,1,0-.16.3.3,0,0,1,.11-.24.49.49,0,0,1,.3-.1.54.54,0,0,1,.27.07.52.52,0,0,1,.17.19.76.76,0,0,1,.11.22c0,.08,0,.14.07.18a.83.83,0,0,0,.45-.11.37.37,0,0,0,.15-.31.25.25,0,0,0,0-.15.4.4,0,0,0-.12-.1l-.19-.08-.24-.08a1.24,1.24,0,0,1-.5-.26.59.59,0,0,1-.19-.43.57.57,0,0,1,.08-.28.69.69,0,0,1,.24-.24,1.65,1.65,0,0,1,.42-.18,2.46,2.46,0,0,1,.58-.06l.37,0a1.67,1.67,0,0,1,.32.08.57.57,0,0,1,.21.15.32.32,0,0,1,.08.21.28.28,0,0,1-.11.22.39.39,0,0,1-.28.1.53.53,0,0,1-.26-.07.85.85,0,0,1-.16-.17.93.93,0,0,1-.1-.2,1.89,1.89,0,0,0-.06-.18.66.66,0,0,0-.33.12.31.31,0,0,0-.16.27.34.34,0,0,0,0,.16.29.29,0,0,0,.1.09.91.91,0,0,0,.17.08l.26.08a1.73,1.73,0,0,1,.53.27.53.53,0,0,1,.18.42.61.61,0,0,1-.08.32.88.88,0,0,1-.25.26,1.6,1.6,0,0,1-.42.17,3.28,3.28,0,0,1-.6.05" style="fill:#721513"/><path d="M92.59,52.84l-.06.21-.41.14a1.36,1.36,0,0,1-.36.05.79.79,0,0,1-.49-.14.46.46,0,0,1-.17-.35v-.14a1.31,1.31,0,0,1,.05-.22l.19-.62a1.62,1.62,0,0,0,0-.19.69.69,0,0,0,0-.13.24.24,0,0,0-.06-.17.27.27,0,0,0-.21-.07.63.63,0,0,0-.25.07,1.1,1.1,0,0,0-.37.23l-.44,1.69h-.86l.77-3s0,0,0-.08a.13.13,0,0,0,0-.06A.25.25,0,0,0,90,50a.27.27,0,0,0-.1-.08l-.14,0-.19,0,0-.18L91,49.57l0,0-.42,1.62h0a2.26,2.26,0,0,1,.51-.3,1.52,1.52,0,0,1,.57-.11.69.69,0,0,1,.45.14.46.46,0,0,1,.17.35s0,.09,0,.15a.91.91,0,0,1,0,.21l-.2.65c0,.06,0,.12,0,.19a.56.56,0,0,0,0,.16.25.25,0,0,0,.06.19.45.45,0,0,0,.24,0l.18,0,.14,0" style="fill:#721513"/><path d="M94.19,51.16c-.09.39-.17.72-.23,1s-.14.58-.23.88a1.41,1.41,0,0,1-.21.45,1.86,1.86,0,0,1-.36.38,1.66,1.66,0,0,1-.47.26,1.48,1.48,0,0,1-.51.09,1.41,1.41,0,0,1-.39,0,.55.55,0,0,1-.23-.11.29.29,0,0,1-.11-.14.45.45,0,0,1,0-.16.3.3,0,0,1,.11-.24.39.39,0,0,1,.29-.1.4.4,0,0,1,.24.07.55.55,0,0,1,.18.16,1,1,0,0,1,.13.2l.09.17a1.26,1.26,0,0,0,.21-.32,4.1,4.1,0,0,0,.18-.58l.47-2h-.51l.06-.24h.51l0-.18a1.39,1.39,0,0,1,.2-.43,1.8,1.8,0,0,1,.35-.38,1.89,1.89,0,0,1,.46-.26,1.44,1.44,0,0,1,.53-.11,2,2,0,0,1,.38,0,.62.62,0,0,1,.23.11.36.36,0,0,1,.11.14.41.41,0,0,1,0,.16.26.26,0,0,1,0,.11.25.25,0,0,1-.07.12.38.38,0,0,1-.12.09.42.42,0,0,1-.18,0,.41.41,0,0,1-.25-.07.61.61,0,0,1-.17-.15,2.39,2.39,0,0,1-.13-.21,1.5,1.5,0,0,0-.09-.18,1.17,1.17,0,0,0-.19.32,4.1,4.1,0,0,0-.18.58l-.06.27h.66l-.06.24Z" style="fill:#721513"/><path d="M96.37,52.86l-.06.21-.41.14a1.36,1.36,0,0,1-.36,0,.77.77,0,0,1-.49-.14.42.42,0,0,1-.18-.35,2.5,2.5,0,0,1,.06-.36l.21-.68a1.33,1.33,0,0,0,0-.19.44.44,0,0,0,0-.16.24.24,0,0,0-.06-.18.41.41,0,0,0-.23-.05l-.17,0-.15,0,.05-.21c.15,0,.28-.1.41-.13a1.24,1.24,0,0,1,.37-.06.74.74,0,0,1,.48.14.41.41,0,0,1,.17.34,1.1,1.1,0,0,1,0,.16,1.12,1.12,0,0,1,0,.21l-.22.68s0,.12,0,.19,0,.12,0,.15,0,.16.07.19a.43.43,0,0,0,.24,0l.17,0,.15,0m0-2.86a.4.4,0,0,1-.15.31.56.56,0,0,1-.36.12.61.61,0,0,1-.37-.12.4.4,0,0,1-.15-.31.38.38,0,0,1,.15-.3.62.62,0,0,1,.37-.13.57.57,0,0,1,.36.13.38.38,0,0,1,.15.3" style="fill:#721513"/><path d="M97.79,53.27a1.91,1.91,0,0,1-.56-.07,1.07,1.07,0,0,1-.39-.22.87.87,0,0,1-.23-.31,1,1,0,0,1-.07-.4,1.4,1.4,0,0,1,.11-.53,1.32,1.32,0,0,1,.35-.47,1.59,1.59,0,0,1,.54-.33,2.15,2.15,0,0,1,.73-.12A1.54,1.54,0,0,1,99,51a.44.44,0,0,1,.24.4.56.56,0,0,1-.21.44,1.26,1.26,0,0,1-.58.28l-.49.11-.5.06c0,.06,0,.14,0,.23a.71.71,0,0,0,.07.22.55.55,0,0,0,.18.16.56.56,0,0,0,.3.07,1.17,1.17,0,0,0,.52-.11,1.29,1.29,0,0,0,.42-.34l.19.15a1.81,1.81,0,0,1-.61.47,1.71,1.71,0,0,1-.77.18m.59-1.85a.57.57,0,0,0-.08-.31.28.28,0,0,0-.23-.1c-.13,0-.26.1-.38.29a1.75,1.75,0,0,0-.23.74l.31,0,.24-.06a.56.56,0,0,0,.28-.2.53.53,0,0,0,.09-.32" style="fill:#721513"/><path d="M101.2,49.61l-.71,2.74s0,.1,0,.18a.56.56,0,0,0,0,.16c0,.1,0,.16.07.19a.52.52,0,0,0,.25,0l.18,0a.71.71,0,0,0,.16,0l-.06.21-.42.14a1.46,1.46,0,0,1-.38,0,.79.79,0,0,1-.49-.14.43.43,0,0,1-.19-.35,1.41,1.41,0,0,1,0-.18c0-.06,0-.12,0-.18l.57-2.19s0,0,0-.08a.13.13,0,0,0,0-.06.25.25,0,0,0,0-.13.27.27,0,0,0-.1-.08l-.14,0-.19,0,.05-.18,1.38-.06Z" style="fill:#721513"/><path d="M103.05,52.9h0l-.18.13a1.3,1.3,0,0,1-.21.12l-.24.08a1.1,1.1,0,0,1-.27,0,.9.9,0,0,1-.69-.24.89.89,0,0,1-.23-.66,1.53,1.53,0,0,1,.12-.6,1.57,1.57,0,0,1,.35-.49,1.64,1.64,0,0,1,.5-.34,1.58,1.58,0,0,1,.61-.12,1.45,1.45,0,0,1,.4,0,1,1,0,0,1,.28.12l.19-.76s0,0,0-.08a.13.13,0,0,0,0-.06.2.2,0,0,0,0-.13.32.32,0,0,0-.13-.08.69.69,0,0,0-.17-.05l-.2,0,0-.18,1.47-.06,0,0-.7,2.72c0,.05,0,.11,0,.18s0,.13,0,.17,0,.15.07.18a.34.34,0,0,0,.23,0l.18,0a.42.42,0,0,0,.14,0l0,.21-.42.14a1,1,0,0,1-.36.05.89.89,0,0,1-.43-.09.58.58,0,0,1-.22-.25m.31-1.49a.69.69,0,0,0,0-.13.19.19,0,0,0-.07-.11.4.4,0,0,0-.12-.1.56.56,0,0,0-.2,0,.51.51,0,0,0-.31.11,1.08,1.08,0,0,0-.26.3,1.54,1.54,0,0,0-.17.43,2.07,2.07,0,0,0-.06.5.68.68,0,0,0,0,.21.43.43,0,0,0,.06.17.28.28,0,0,0,.13.11.4.4,0,0,0,.2,0,.53.53,0,0,0,.24-.06,1,1,0,0,0,.22-.16Z" style="fill:#721513"/><path d="M105.83,52.89a1,1,0,0,1-.33.7,2.45,2.45,0,0,1-.81.52l-.09-.17.28-.13a1,1,0,0,0,.23-.17,1.14,1.14,0,0,0,.19-.19,1.15,1.15,0,0,0,.12-.25h-.16a.6.6,0,0,1-.36-.09.3.3,0,0,1-.11-.24.44.44,0,0,1,.16-.33.59.59,0,0,1,.38-.14.46.46,0,0,1,.38.14.5.5,0,0,1,.12.35" style="fill:#721513"/><path d="M113.3,49.88l0,.17-.2,0-.18,0a.28.28,0,0,0-.16.1.27.27,0,0,0-.07.14l-.59,2.33,0,.07s0,0,0,.06a.15.15,0,0,0,.1.15,1.09,1.09,0,0,0,.38.07l0,.18h-2l0-.18.21,0,.17,0a.55.55,0,0,0,.17-.1.36.36,0,0,0,.08-.15l.63-2.5h0l-2,2.92h-.33a2.16,2.16,0,0,0,0-.29,3,3,0,0,1-.06-.38l-.36-2.28h0l-.52,2a1.89,1.89,0,0,0-.05.23,1.5,1.5,0,0,0,0,.2.46.46,0,0,0,0,.14l.06.09a.72.72,0,0,0,.21.09l.22.05,0,.18h-1.6l0-.18.23,0a.66.66,0,0,0,.26-.08.62.62,0,0,0,.2-.22,2.32,2.32,0,0,0,.15-.45l.43-1.64a.83.83,0,0,0,0-.13.22.22,0,0,0,0-.08.51.51,0,0,0,0-.13.31.31,0,0,0-.07-.09.34.34,0,0,0-.19-.09.83.83,0,0,0-.22,0l0-.17h1.7l.36,2.18,1.22-1.77.14-.25.08-.16Z" style="fill:#721513"/><path d="M114.77,53.2l0-.18a1.9,1.9,0,0,0,.42-.06q.15,0,.15-.09V52.8a.64.64,0,0,1,0-.07l-.13-.65H114l-.16.23-.16.24a1.89,1.89,0,0,0-.12.22.26.26,0,0,0,0,.07s0,.09.12.12A1.43,1.43,0,0,0,114,53l0,.18h-1.56l0-.18.19,0a.52.52,0,0,0,.2-.06.8.8,0,0,0,.21-.13,1.2,1.2,0,0,0,.18-.2l1-1.35,1-1.43h.52c.13.7.24,1.28.33,1.73s.17.84.24,1.15a.21.21,0,0,0,0,.13.32.32,0,0,0,.12.1.34.34,0,0,0,.15.06l.17,0,0,.18Zm.41-1.34L115,50.65l-.85,1.21Z" style="fill:#721513"/><path d="M38.26,18.36a6.17,6.17,0,0,0-2.94-1,3.39,3.39,0,0,0-2.27.38,3.84,3.84,0,0,0-1.34.86l0,0c-1.27-1.06-3.2-.64-4.52.43a5.09,5.09,0,0,0-3.86.68,3.51,3.51,0,0,0-1.45,2.17,4.38,4.38,0,0,0-2.7.42,13.67,13.67,0,0,0-2.47,1.5,3.44,3.44,0,0,0-.8.82c-1.92,1.52-3.26,3.6-1.3,5.55.25.25.44.39.49.71s-.06.5,0,.76a1.44,1.44,0,0,0,.92,1,4.5,4.5,0,0,0,1.31.27c.84.09,1,.53,1.32,1.18.5,1.11,1.54,1.43,2.64,1.84s1.42,1.58,2.23,2.27c1.29,1.1,2.22,2.49,3.58,3.52,1.61,1.23,3.19,2.56,5.46,2.49a4,4,0,0,0,3.18-1.19c1.51-1.95.92-4.21,1.76-6.28a7.87,7.87,0,0,1,1.35-1.72,11.6,11.6,0,0,0,1.62-3.22,13.2,13.2,0,0,0,.78-3.55,6.79,6.79,0,0,0-.27-2.8,2,2,0,0,0,1-1.43c.34-2.27-1.76-4.49-3.65-5.69" style="fill:#fff8d7"/><g style="opacity:0.5;mix-blend-mode:multiply"><g style="clip-path:url(#clip-path-3)"><path d="M38.26,18.36a6.17,6.17,0,0,0-2.94-1,3.39,3.39,0,0,0-2.27.38,3.84,3.84,0,0,0-1.34.86l0,0a1.84,1.84,0,0,0-.22-.17l-.09-.05-.13-.08-.12-.06-.11,0-.14-.06c-.23-.08-1.37.61-1.61.72-.58.27-1.15.55-1.73.84a15.21,15.21,0,0,1-3,1.42c-.9.21-1.8.43-2.69.67l0,.09-.17,0c-.61.16-1.23.33-1.83.52s-1.08.26-1.62.4a16,16,0,0,0-1.55,1c-1.77,1.3-1.06,3.52.59,4.66a7.06,7.06,0,0,0,4.07,1.11,39,39,0,0,0,8.07-.67c.8-.15,1.56-.22,2.37-.31,1.39-.15,3.33-.06,2.63,1.67s-2.22,2.19-3.2,3.52c-.62.83-.62,1.95-1.28,2.75s-2.05.42-3,.06a4,4,0,0,0-1.18-.36,4.66,4.66,0,0,1-1.12,0c-.66-.2-.64-.58-.92-1.07-.72-1.26-1.76-.67-2.95-.9-1.46-.29-1.2-1.92-2.22-2.6a3.26,3.26,0,0,0-1.42-.29,3.58,3.58,0,0,1-1.75-1.09.49.49,0,0,0-.66,0h0l0,.06,0,0,0,.05,0,.05,0,0,0,0,0,0,0,.05s0,0,0,0l0,.06a0,0,0,0,0,0,0,.43.43,0,0,0,0,.11c0,.25-.06.5,0,.76a1.44,1.44,0,0,0,.92,1,4.5,4.5,0,0,0,1.31.27c.84.09,1,.53,1.32,1.18.5,1.11,1.54,1.43,2.64,1.84s1.42,1.58,2.23,2.27c1.29,1.1,2.22,2.49,3.58,3.52l.4.31.13.1.17.13.12.09.17.13.11.07.18.14.09.06.21.14,0,0c.26.17.52.34.79.48l0,0,.24.12.06,0,.23.11.08,0,.24.1.07,0,.25.09h.05a4.76,4.76,0,0,0,.94.21c.34-.18.67-.38,1-.58a14,14,0,0,0,4-4l.3-.48h0l0-.25V38.8a2.51,2.51,0,0,1,0-.27v0c0-.08,0-.15,0-.23V38.2a2,2,0,0,1,0-.26v0a1.42,1.42,0,0,1,0-.22v-.07c0-.09.05-.17.07-.26v0c0-.07,0-.15.07-.23l0-.07.09-.25a1.63,1.63,0,0,1,.11-.23l0-.07.1-.15,0-.07a.76.76,0,0,1,.11-.14l.05-.06a2.09,2.09,0,0,1,.14-.17l0,0,.51-.55h0c.17-.48.33-1,.5-1.46a34.82,34.82,0,0,1,2-4.47c0-.17.05-.34.07-.51v-.05c0-.17,0-.35.05-.53a6.79,6.79,0,0,0-.27-2.8,2,2,0,0,0,1-1.43c.34-2.27-1.76-4.49-3.65-5.69" style="fill:#e0bf6f"/></g></g><g style="opacity:0.5;mix-blend-mode:multiply"><g style="clip-path:url(#clip-path-4)"><path d="M41.21,28.28a6.79,6.79,0,0,0-.27-2.8,2,2,0,0,0,1-1.43,3.77,3.77,0,0,0-.17-1.7,3,3,0,0,0-1.39.68,14.4,14.4,0,0,0-2.62,3.06,7.42,7.42,0,0,0-1.48,3,27.85,27.85,0,0,1-.58,2.86c-.57,1.85-2.92,2.32-3.52,4.16a15.16,15.16,0,0,0-.35,2.51,1.15,1.15,0,0,1-1.05,1.06c-.34,0-.53-.16-.87-.29a6.86,6.86,0,0,0-1.19-.28A2.43,2.43,0,0,1,26.94,38c-.34-.49-.47-.89-1.19-1.09a11,11,0,0,1-1.89-.42c-.52-.25-.8-.71-1.33-1A8.8,8.8,0,0,0,20.79,35a4.83,4.83,0,0,1-1.46-.85,6.81,6.81,0,0,1-1.14-1.34c-.56-.7-1.54-.57-2.32-.92-.41-.18-.5-.54-.8-.76a2.34,2.34,0,0,0,0,.53,1.46,1.46,0,0,0,.92,1,4.5,4.5,0,0,0,1.31.27c.84.09,1,.53,1.32,1.18.5,1.11,1.54,1.43,2.64,1.84s1.42,1.58,2.23,2.27c1.29,1.1,2.22,2.49,3.58,3.52s2.77,2.2,4.58,2.44c.34-.18.67-.38,1-.58a14,14,0,0,0,4-4l.3-.48a9.1,9.1,0,0,1,.52-2.34,5.31,5.31,0,0,1,1.13-1.46l.5-1.47a34.82,34.82,0,0,1,2-4.47c.06-.36.1-.73.13-1.09" style="fill:#af6d3e"/></g></g><path d="M31,41.88a37.16,37.16,0,0,0-3.37-2.31c-1-.65-1.45-1.59-2.67-2a7.9,7.9,0,0,1-2-.81,11.41,11.41,0,0,0-1.61-.89,7.66,7.66,0,0,1-1.51-.7,8.4,8.4,0,0,1-1.14-1.09,5,5,0,0,0-2.51-1.62.51.51,0,0,0-.59.21,2.39,2.39,0,0,1-.2-.43c-.12-.35-.72-.18-.61.18a7.36,7.36,0,0,0,1.36,2c.62.84,1.2,1.71,1.83,2.55,1.45,2,2.94,3.91,4.57,5.77s3.26,3.9,4.95,5.82L28.79,50a3.67,3.67,0,0,0,1.27,1.14c1,.41,1.36-1.28,1.47-1.86a6.71,6.71,0,0,0,.11-1.84,6.26,6.26,0,0,1-.22-1.87,9,9,0,0,1,.6-1.35,2.15,2.15,0,0,0-1-2.36" style="fill:#be7443"/><g style="opacity:0.5"><g style="clip-path:url(#clip-path-5)"><path d="M28.92,40.38c-.29.82-.57,1.63-.85,2.45L24.91,41c.17-.41.34-.8.52-1.2s.48-1,.73-1.56a4.16,4.16,0,0,0-.67-.46c-.3.64-.61,1.27-.9,1.91l-.39.89c-1.13-.66-2.26-1.33-3.37-2,.34-.81.71-1.6,1.09-2.4l-.58-.28-.15-.07c-.36.77-.72,1.54-1.06,2.32-.85-.54-1.7-1.08-2.53-1.65L18,37c.31.43.63.86,1,1.28l.9.57-.16.4c.19.25.38.5.58.74.09-.23.18-.47.28-.71,1.12.69,2.25,1.36,3.39,2-.29.71-.55,1.42-.8,2.13l.61.72c.29-.82.58-1.63.9-2.43l3.18,1.85c-.32.88-.68,1.76-1,2.64a2.69,2.69,0,0,1-.29-.16c-.73-.39-1.44-.8-2.17-1.19l1.37,1.63.16.09.67.36c-.05.12-.09.25-.13.38l.63.73c.07-.24.15-.49.24-.73,1.41.72,2.86,1.38,4.24,2.16q0-.1,0-.18.06-.31.09-.63c-1.33-.74-2.73-1.39-4.1-2.08.33-.87.69-1.73,1-2.6q1.44.84,2.88,1.71a.45.45,0,0,1,0-.11,2.71,2.71,0,0,1,.24-.63c-.95-.58-1.91-1.14-2.87-1.71.27-.8.55-1.6.83-2.41l-.7-.46" style="fill:#ecaf72"/><path d="M17.22,32.89c-.29.64-.56,1.28-.81,1.94l.57.79c.29-.76.59-1.52.92-2.26a3.93,3.93,0,0,0-.68-.47" style="fill:#ecaf72"/></g></g><path d="M42,23.08c-.25-.21-.7.09-.52.34a.61.61,0,0,0-.26.18,16.37,16.37,0,0,0-3.08,4.29,11.17,11.17,0,0,0-.69,2.43c-.11.69-.06,1.39-.16,2.08C37.09,34,34.94,34.26,34,35.45a3.22,3.22,0,0,0-.61,3.47,13.18,13.18,0,0,0-1.56,2.38,2.26,2.26,0,0,0,0,1.43c.13.47.23.75-.22,1.14a4.91,4.91,0,0,0-.72.64,3,3,0,0,0-.15,3,3.91,3.91,0,0,1,.14,2,5.29,5.29,0,0,0-.24,1.21.24.24,0,0,0-.22.31,8.16,8.16,0,0,0,2.09,2.68c1,.94,1.82,2,2.74,2.94s1.94,1.87,2.82,2.86c.49.55,1.16,1.49,2,1.57a.47.47,0,0,0,.57-.41c.13-1.28.32-2.53.35-3.83s.13-2.81.19-4.21c.14-3.82.16-7.64.4-11.46s.62-7.54.86-11.32c.08-1.33.11-2.67.17-4,0-.85.15-2.1-.6-2.74" style="fill:#af6d3e"/><g style="opacity:0.19999699294567108;mix-blend-mode:multiply"><g style="clip-path:url(#clip-path-6)"><path d="M41,56.82c0-.36,0-.72,0-1.08-.54.34-1.09.67-1.63,1h0c-.62-.79-1.27-1.56-1.91-2.33.52-.29,1-.59,1.52-.9s1.12-.69,1.68-1c.15.26.31.52.48.76l0-.66c0-.62,0-1.23.05-1.84l-.22.14-.21-.27c-.77-.92-1.54-1.84-2.29-2.77l2.86-2,.06-1.83-.33-.41c-.47-.56-.92-1.14-1.35-1.73l.64-.46,1.23-.9c0-.49.06-1,.1-1.46-.68.46-1.31,1-2,1.47l-.65.48-.59-.85c-.35-.51-.71-1-1.07-1.51l1.66-1.21,1.09-.73.66,1c.28.41.56.85.87,1.27,0-.55.08-1.1.13-1.65l-.8-1.14.94-.6.12-1.42-.65.45-1,.67L40.29,35c-.45-.68-.89-1.36-1.3-2.06l1.29-1,1.47-1.22L42,31c.11.14.22.29.34.43,0-.54.07-1.08.11-1.63l.06-1.13-.57.44-.72-.94c-.28-.37-.59-1-1-1.51.58-.56,1.19-1.11,1.75-1.69a8.84,8.84,0,0,0,.63-.7A2,2,0,0,0,42,23.08l0,0c-.13.19-.24.38-.36.57a8.67,8.67,0,0,1-1.09,1.18L39.28,26h-.06a9,9,0,0,0-1.06,1.85,11.17,11.17,0,0,0-.69,2.43c-.08.53-.08,1.07-.11,1.6l.06.13-.08.05,0,.3c-.12.87-.83,1.35-1.6,1.8a10.8,10.8,0,0,0-.89.76.57.57,0,0,0-.22.11L34.44,35a3.42,3.42,0,0,0-.43.42l.15.24a19,19,0,0,0-1,2.81,2.44,2.44,0,0,0,.19.44,13.18,13.18,0,0,0-1.56,2.38,2.26,2.26,0,0,0,0,1.43c.13.47.23.75-.22,1.14-.07.07-.16.13-.24.2-.17.39-.36.77-.49,1.16a3.3,3.3,0,0,0-.1,1.43.28.28,0,0,0,0,.36h0c0,.1.05.18.14.24a3.58,3.58,0,0,1,.18,1.45,10.27,10.27,0,0,0-.12,1.1,3.13,3.13,0,0,0,.67,1.88,6.06,6.06,0,0,0-.54.47c.15.19.31.38.47.56.69-.46,1.4-.89,2.09-1.34.64.9,1.3,1.78,2,2.65l.15.19-1.72,1.1.63.7c.46-.24.88-.56,1.3-.78.15-.07.29-.15.43-.23.67.81,1.34,1.61,2,2.43l-.57.44c-.23.19-.51.36-.77.55.26.26.51.52.76.79l.35-.23.94-.64c.37.49.73,1,1.09,1.49l.47.67c.06-.6.13-1.2.19-1.8-.24-.34-.5-.69-.75-1l.88-.54c0-.11,0-.22,0-.33M38.87,42.58c.41.55.83,1.09,1.26,1.63l.64.78c-1,.67-2,1.35-2.92,2l0,0c-.62-.79-1.21-1.61-1.79-2.43.39-.26.78-.52,1.16-.79.57-.39,1.12-.8,1.67-1.2m-.31-13.67a4.92,4.92,0,0,1,.9-1.43c.32.5.61,1,1,1.5l.66.87-1.18,1-1.46,1.22c-.09-.14-.19-.28-.29-.41a10.41,10.41,0,0,1,.41-2.75m-3.15,6.62a12.67,12.67,0,0,0,2.14-1.43l.68-.52c.38.67.79,1.32,1.19,2,.07.11.14.21.2.32-.37.25-.75.5-1.11.77-.56.4-1.12.81-1.67,1.23-.25-.36-.51-.71-.77-1.06s-.43-.7-.72-1.07l.06-.19m1.18,3.79c.38.55.77,1.1,1.15,1.66l.5.72-1.66,1.2c-.38.28-.77.54-1.16.8l-.3-.41c-.48-.66-.95-1.4-1.52-2a12,12,0,0,0,2.62-1.66l.37-.26m-2.68.3a8.5,8.5,0,0,0,.75-1.92c.08-.27.18-.54.28-.81L36,38.48l-.24.18a21.33,21.33,0,0,0-2.5,1.93c.21-.34.46-.66.64-1M32,45.28c.18-.55.49-1.07.69-1.62a6.73,6.73,0,0,0,.14-1.95c.47.69.91,1.4,1.38,2.08l.34.48-1.19.79c-.45.31-1,.61-1.5.94a2.77,2.77,0,0,1,.14-.72m.25,5.94A7.16,7.16,0,0,1,32,49.43c0-.12,0-.24,0-.35.33.5.67,1,1,1.51l-.82.63M34,49.89l-.5-.66c-.45-.57-.94-1.1-1.35-1.69l-.11-.16a2,2,0,0,1,0-.24,11.15,11.15,0,0,0,2-1.23l1.18-.77c.55.81,1.11,1.62,1.72,2.41l.08.1c-1,.72-2,1.48-3,2.24m2.77,3.7-.3-.37c-.65-.82-1.25-1.66-1.86-2.51,1-.73,2-1.49,3-2.21.72.91,1.46,1.81,2.2,2.71.08.09.15.2.23.31-.49.3-1,.61-1.48.93l-1.8,1.14" style="fill:#af6d3e"/></g></g><path d="M41,29.2c-.71-.9-1.42-1.79-2.11-2.7-.15.24-.3.49-.44.75.63.83,1.28,1.65,1.94,2.46-.95.8-1.92,1.58-2.93,2.31a1.71,1.71,0,0,1-.11-.14c0,.17,0,.34,0,.52a1.78,1.78,0,0,1-.56,1.05c.18-.11.35-.23.51-.34.61.84,1.2,1.69,1.78,2.54-1,.74-2,1.48-3.09,2.2l-.24-.38a25.76,25.76,0,0,0-1.56-2.2l-.16.18c-.11.15-.23.32-.33.49.49.62.92,1.28,1.34,1.93l.29.45c-1,.67-1.94,1.34-2.93,2a5.19,5.19,0,0,0-.54,1,1.48,1.48,0,0,0-.1.36l.17-.11c.61.84,1.24,1.68,1.86,2.52-1.11.73-2.22,1.47-3.32,2.22a6,6,0,0,0,.3,1.22,4.13,4.13,0,0,1,.19.9c.47.63.93,1.26,1.4,1.88-.57.38-1.15.75-1.73,1.12a5.47,5.47,0,0,0,.41.65l1.78-1.15,2.26,3-1.47.91c.18.19.35.38.52.58l1.43-.88c.72.93,1.46,1.86,2.21,2.78-.38.24-.74.49-1.11.74l.55.54,1-.69c.79,1,1.47,2.09,2.33,3.06a.42.42,0,0,0,.12-.27c0-.25.05-.49.08-.73-.64-.82-1.21-1.69-1.86-2.51L41,56c0-.31,0-.62,0-.93l-2.68,1.74c-.74-.92-1.47-1.84-2.2-2.77,1.14-.73,2.25-1.48,3.36-2.23.53.71,1.05,1.43,1.57,2.15q0-.65.06-1.29l-1-1.32,1-.71c0-.32,0-.63,0-.95l-1.51,1c-.74-1-1.48-2-2.24-3,1-.65,1.92-1.29,2.9-1.92l.92,1.36c0-.46,0-.92,0-1.38l-.28-.42.3-.2c0-.31,0-.62,0-.92l-.77.48c-.67-1-1.34-2-2-2.94l.22-.15c1-.62,1.89-1.27,2.82-1.91,0-.48.07-1,.11-1.44l-1.66-2.46,2-1.42c0-.34,0-.67.08-1L39.7,35.18c-.58-.85-1.17-1.7-1.78-2.54,1-.73,2-1.52,2.95-2.33.48.6,1,1.2,1.42,1.81,0-.4.06-.8.08-1.2-.29-.38-.59-.75-.89-1.13l1-.86c0-.34,0-.69,0-1L41,29.2M32.57,41.1c1.06-.7,2.1-1.42,3.14-2.14.59.89,1.19,1.77,1.81,2.64l-3.09,2c-.63-.84-1.25-1.68-1.86-2.53M30.83,47c1.12-.77,2.25-1.52,3.38-2.27l2.18,2.88L33,49.85,30.83,47m8.27,4.26c-1.11.76-2.24,1.51-3.38,2.24-.76-1-1.52-2-2.27-3,1.14-.75,2.27-1.52,3.4-2.29.76,1,1.51,2,2.25,3M40,45.16c-1,.64-2,1.29-2.93,2l-2.17-2.87,3.07-2c.7,1,1.36,2,2,2.94M41.32,39c-1,.66-1.93,1.33-2.9,2l-.22.14c-.63-.87-1.24-1.76-1.83-2.65,1-.73,2.07-1.47,3.1-2.21L41.32,39" style="fill:#c48458"/><path d="M29.66,40c-.72-.38-2-.21-2.47-.82s-.74-1.39-1.7-1.75c-.78-.3-1.49.08-2-.62a3.35,3.35,0,0,0-1.76-1.18c-1-.3-2-.35-2.68-1.19-.47-.57-.57-1.24-1.26-1.65-1-.57-2.92.1-2.58-1.54.05-.24-.31-.3-.4-.08-.85,2.14,2.27,1.51,3.21,2.7.48.62.71,1.33,1.47,1.75s1.79.56,2.63,1c.66.32.83,1.17,1.6,1.34a5.88,5.88,0,0,0,.95.09c.91,0,1.26.63,1.62,1.29a2,2,0,0,0,1.57,1.05,5.23,5.23,0,0,1,1.61.46A11,11,0,0,1,30.92,42c.26.21.77,0,.62-.35A3.88,3.88,0,0,0,29.66,40" style="fill:#9d623a"/><g style="opacity:0.39999398589134216;mix-blend-mode:multiply"><g style="clip-path:url(#clip-path-7)"><path d="M42.45,29.83c.08-1.33.11-2.67.17-4,0-.85.15-2.1-.6-2.74-.25-.21-.7.09-.52.34a.61.61,0,0,0-.26.18,16.37,16.37,0,0,0-3.08,4.29,11.17,11.17,0,0,0-.69,2.43c-.11.69-.06,1.39-.16,2.08-.13.91-.9,1.39-1.71,1.86,0,3,0,6-.24,9a51.73,51.73,0,0,1-.92,6.9c-.32,1.53-.69,3.05-.89,4.58.57.62,1.12,1.25,1.69,1.86.91,1,1.94,1.87,2.82,2.86.49.55,1.16,1.49,2,1.57a.47.47,0,0,0,.57-.41c.13-1.28.32-2.53.35-3.83s.13-2.81.19-4.21c.14-3.82.16-7.64.4-11.46s.62-7.54.86-11.32" style="fill:#af6d3e"/></g></g><g style="opacity:0.5;mix-blend-mode:multiply"><g style="clip-path:url(#clip-path-8)"><path d="M40.44,24.75a1.15,1.15,0,0,0-.62.33c-1.48,1.37-1.13,3-1.17,4.68,0,1.16.29,2.32.3,3.49A37.14,37.14,0,0,1,38.76,37c-.33,3.66-.46,7.34-.84,11-.17,1.62-.4,3.24-.59,4.86A16,16,0,0,0,37.2,55c0,.6.13,2.3,1.28,2,.88-.21.84-1.57,1-2.18a24.68,24.68,0,0,0,.46-3.73c0-.54.23-1.06.3-1.61s.12-1.37.19-2.05c.36-3.84.42-7.69.64-11.53.1-1.88.2-3.76.22-5.64,0-1.32,0-2.62-.09-3.94,0-.43.14-1-.21-1.34a.58.58,0,0,0-.52-.21" style="fill:#af6d3e"/></g></g><path d="M41.54,23a17.4,17.4,0,0,0-3.48,3.54,9.17,9.17,0,0,0-1.46,4.15,10,10,0,0,1-.34,2c-.24.75-1,1.14-1.72,1.54a3.9,3.9,0,0,0-2,3.39A4.67,4.67,0,0,1,32,39.87c-.28.48-.71.87-1,1.34a2,2,0,0,0-.19,1.47c.16.68.42,1-.16,1.57a3.37,3.37,0,0,0-.89,1.28,1.84,1.84,0,0,0,.48,1.79c1,1.27-.73,2.91.57,4,.26.22.72,0,.6-.34-.29-.73.06-1.39.15-2.12a3,3,0,0,0-.27-1.73,3.33,3.33,0,0,0-.46-.67A1,1,0,0,1,31,45.19a5.5,5.5,0,0,0,.9-1,1.71,1.71,0,0,0,0-1.33,1.57,1.57,0,0,1,.4-1.68,5.39,5.39,0,0,0,1.34-3.33,3.07,3.07,0,0,1,.76-2.11,16.25,16.25,0,0,1,1.85-1.26,4,4,0,0,0,1.4-3.22,9.4,9.4,0,0,1,1.24-4.31c.8-1.37,2.19-2.34,3.08-3.65.18-.26-.23-.47-.45-.29" style="fill:#e1a96c"/><g style="opacity:0.3000029921531677"><g style="clip-path:url(#clip-path-9)"><path d="M24.64,40.14c-.74-.63-1.51-1.22-2.26-1.78a21.12,21.12,0,0,0-2.8-1.84c-.46-.23-.9.42-.48.7h0a.33.33,0,0,0,0,.16,42.45,42.45,0,0,0,3.19,3.68c.66.69,1.22,1.44,1.82,2.17.37.44.79.85,1.17,1.28s1,1.1,1.46,1.64a5.58,5.58,0,0,0,1.07.92c1.12.75.87-1,.72-1.5a11.73,11.73,0,0,0-3.94-5.43" style="fill:#f9d6a4"/></g></g></g><g style="clip-path:url(#clip-path-10)"><polygon points="0 21.68 36.64 3.25 54.01 31.18 17.37 49.62 0 21.68" style="fill:url(#radial-gradient)"/></g><g style="clip-path:url(#clip-path)"><g style="opacity:0.8000029921531677"><g style="clip-path:url(#clip-path-12)"><path d="M38.62,24.45a7.41,7.41,0,0,0-7.72,2.64A12.61,12.61,0,0,0,30,28.91s-.33.4-.11.17l-.08.09-.1.06a2.41,2.41,0,0,1-.9.19A18.82,18.82,0,0,1,26,29.31a20.3,20.3,0,0,0-3.12.05c-.5,0-1,.05-1.48.11-.23,0-.45.07-.68.12a4.11,4.11,0,0,1-.57.17c-.23,0-.35.31-.13.4a8,8,0,0,1,.73.56,6.84,6.84,0,0,0,1.55.64,18.42,18.42,0,0,0,3,.72c1.91.3,4.4.8,6.14-.31a4.27,4.27,0,0,0,1.71-2.15,21.58,21.58,0,0,1,.68-2.06c.34-.65,1.36-.95,2.07-1.14a10.76,10.76,0,0,0,2.84-1,.52.52,0,0,0-.13-1" style="fill:#fbfadd"/></g></g></g><g style="clip-path:url(#clip-path-13)"><polygon points="10.32 7.53 38.93 7.45 38.77 30.46 10.16 30.53 10.32 7.53" style="fill:url(#radial-gradient-2)"/></g><g style="clip-path:url(#clip-path)"><g style="opacity:0.8000029921531677"><g style="clip-path:url(#clip-path-15)"><path d="M20.14,11.49A15.63,15.63,0,0,0,14.58,14a14.09,14.09,0,0,0-3.52,3.45A14.54,14.54,0,0,0,10.71,21,10.11,10.11,0,0,1,12,19a14.71,14.71,0,0,1,3.84-3.29,13.65,13.65,0,0,1,4.66-1.86,10,10,0,0,1,2.7-.11,31.2,31.2,0,0,0,3.19.53c1,0,1.73-1.19.91-1.89-1.74-1.5-4.9-1.33-7.11-.88" style="fill:#fbfadd"/></g></g><g style="opacity:0.8000029921531677"><g style="clip-path:url(#clip-path-16)"><path d="M23.38,17.29a14.59,14.59,0,0,0-8.72,2.77A17,17,0,0,0,11.51,23c-.16.19-.33.39-.5.61a.43.43,0,0,1,0,.11,6.77,6.77,0,0,0,.56,1.57,10.75,10.75,0,0,1,.86-1.18,11.25,11.25,0,0,1,2.68-2.2,12.76,12.76,0,0,1,6.53-2.13,6.13,6.13,0,0,1,3.12.9c-.08-.05.29.25.34.3a1.85,1.85,0,0,1,.14.14c-.07-.07.15.21.17.24s.16.32.2.37a.75.75,0,0,0,.05.16.14.14,0,0,0,0,.07V22c0,.05,0,.27,0,.37a.94.94,0,0,1,0,.16v0a.35.35,0,0,0-.06.09l-.11.15s-.05,0-.16.15-.23.18-.08.1a4.3,4.3,0,0,1-.57.28c.22-.09-.45.09-.55.11H24c-.22,0-.45,0-.67,0-.9,0-1.32-.17-2.22-.18a2,2,0,0,0-2,1.32,1.79,1.79,0,0,0,1.38,2.2c3.4,1,8.5-.09,9.18-3.74A4.35,4.35,0,0,0,28.14,19a7.79,7.79,0,0,0-4.76-1.66" style="fill:#fbfadd"/></g></g><path d="M37.23,14.25a1.84,1.84,0,0,1-.22.17,4.23,4.23,0,0,1-2.09.63,26.61,26.61,0,0,1-3-.31c-.45,0-.76.55-.4.82A7,7,0,0,0,38,16a10.5,10.5,0,0,0-.8-1.74" style="fill:#fbfadd"/><g style="opacity:0.19999699294567108;mix-blend-mode:multiply"><g style="clip-path:url(#clip-path-17)"><path d="M23.34,7.62l.59.12a27.62,27.62,0,0,1,4.71,1.4,14.69,14.69,0,0,1,4.07,2.46,12.56,12.56,0,0,1,2.67,3.25,7.68,7.68,0,0,1,1.18,3.53,3.91,3.91,0,0,1-1.45,3.17c-1.22,1.16-2.83,1.31-4.4,3.11-1,1.14-1.22,2.53-2.5,3.38-4,2.66-10,1.64-10,1.66a27,27,0,0,0,5.14.68c1.71.08,6.07-.14,8-1.48s1.71-4.2,3.72-5.7c1.31-1,2.84-.53,3.37-2.31a6.39,6.39,0,0,0,0-2.5c-.23-3.6-2.6-6.6-5.78-8.7a14.41,14.41,0,0,0-9.4-2.07" style="fill:#c76629"/></g></g><g style="opacity:0.5"><g style="clip-path:url(#clip-path-18)"><path d="M17.47,30.71a6.11,6.11,0,0,0-2.25-.85c-.83-.25-1.29-1.05-2.12-1.24a.72.72,0,0,0-.85.43c-.26,1,1.06,1.81,1.92,2.19a4.28,4.28,0,0,0,3.16.25.48.48,0,0,0,.14-.78" style="fill:#fff"/></g></g><g style="opacity:0.5"><g style="clip-path:url(#clip-path-19)"><path d="M19.73,10.15c-2-.61-4.85,2.18-5.91,4.09a16.43,16.43,0,0,0-1.11,2.27A6.64,6.64,0,0,0,12.9,21a4.7,4.7,0,0,0,3.88,3.19c1.72.16,3-1.21,3.78-2.41a9.81,9.81,0,0,0,1.29-4.9,17.52,17.52,0,0,0-.32-4.09c-.35-1.59-1-2.37-1.8-2.61" style="fill:#fff"/></g></g><path d="M17.31,11.2l.11,0-.11,0" style="fill:#fff"/><g style="opacity:0.5;mix-blend-mode:multiply"><g style="clip-path:url(#clip-path-20)"><path d="M38.4,17.37c-.57-3.15-2.78-5.78-5.66-7.68A15,15,0,0,0,20.92,8.05,16.11,16.11,0,0,1,27.48,12a14.46,14.46,0,0,1,3.89,5.68,10.67,10.67,0,0,1,.19,6.47A11.64,11.64,0,0,1,27,30.05a.48.48,0,0,0-.11.62c.89,1.78-.52,3-2.18,3.74a7.31,7.31,0,0,0,5,.7c4.52-.77,4.71-5.42,8.07-7.23s7.71-4.3,5.52-8.16a5.12,5.12,0,0,0-4.83-2.35" style="fill:#ffe4a4"/></g></g><path d="M47.59,24.56a2,2,0,0,0,.06-.23,4.67,4.67,0,0,1,.78-2.06,10.88,10.88,0,0,1,2.16-2.39,19.68,19.68,0,0,1,4.08-2.61,22.16,22.16,0,0,1,4.92-1.75,17.17,17.17,0,0,1,2.86-.43,11.43,11.43,0,0,1,1.85,0,3.88,3.88,0,0,1,1.56.47,2,2,0,0,1,1,1.56,3.38,3.38,0,0,1-.26,1.6A7,7,0,0,1,65.15,21a10.85,10.85,0,0,1-2.86,2.15l-.23.13a4.5,4.5,0,0,1,2,1.49l1-.15c1-.14,1.92-.28,2.89-.33a2,2,0,0,1,.8.11.46.46,0,0,1,.36.45.43.43,0,0,1-.31.41,1.94,1.94,0,0,1-.58.12c-.46,0-.93,0-1.4.08-.72.07-1.44.17-2.15.25l-.1,0,0,.17a4.8,4.8,0,0,1-.21,2.68,9.22,9.22,0,0,1-1.71,2.91,17.59,17.59,0,0,1-5,4.06,16.49,16.49,0,0,1-3.88,1.59,9.63,9.63,0,0,1-2.88.33,3.76,3.76,0,0,1-2.11-.68,2.44,2.44,0,0,1-1-2.44,4.61,4.61,0,0,1,1.08-2.23,12.49,12.49,0,0,1,2.24-2.05,24.93,24.93,0,0,1,2.39-1.54.45.45,0,0,0,.24-.3,20,20,0,0,1,1.51-3.76,32.82,32.82,0,0,1,2.64-4.26,13.35,13.35,0,0,1,1.51-1.76c.24-.23.51-.43.76-.63a.87.87,0,0,1,.18-.11.8.8,0,0,1,1.12.38.45.45,0,0,1,0,.46,3.59,3.59,0,0,1-.32.36c-.45.42-.91.82-1.35,1.25a14.56,14.56,0,0,0-2.33,2.94,25.19,25.19,0,0,0-1.72,3.19c-.17.39-.31.79-.46,1.19l0,.11c.81-.36,1.59-.72,2.4-1.05A23.15,23.15,0,0,1,60,25.68L62.59,25l-.12-.13a2.57,2.57,0,0,0-1.29-.6,5.82,5.82,0,0,0-2.08,0,4.87,4.87,0,0,1-.65.05c-.34,0-.47-.16-.45-.47a.64.64,0,0,1,.45-.61,6.18,6.18,0,0,1,.83-.27,10.27,10.27,0,0,0,2.6-1,8.69,8.69,0,0,0,2.37-1.83,4.4,4.4,0,0,0,1-1.79,3,3,0,0,0,.1-.94,1.19,1.19,0,0,0-.69-1,3.25,3.25,0,0,0-1.14-.29,10.67,10.67,0,0,0-3.43.31,21.79,21.79,0,0,0-5.61,2.21A19.27,19.27,0,0,0,51.12,21a8.67,8.67,0,0,0-1.33,1.38,3.47,3.47,0,0,0-.68,1.32,1,1,0,0,0,.07.76.64.64,0,0,1,.11.48.83.83,0,0,1-.82.64.7.7,0,0,1-.81-.6c0-.08,0-.16-.07-.25Zm5.66,5.28-.17.09c-.55.38-1.11.75-1.65,1.15a9.56,9.56,0,0,0-1.78,1.7,3.41,3.41,0,0,0-.78,1.58,1.47,1.47,0,0,0,.37,1.32,2.12,2.12,0,0,0,.92.53,4.94,4.94,0,0,0,2.06.09,10,10,0,0,0,2.23-.58A16.1,16.1,0,0,0,58,33.83a16.85,16.85,0,0,0,3.6-3.29,8.73,8.73,0,0,0,1.31-2.14,3.76,3.76,0,0,0,.29-2.14c0-.1-.05-.2-.07-.31l-.72.15A27.08,27.08,0,0,0,58,27.42a32,32,0,0,0-3.12,1.51.15.15,0,0,0-.11.15l0,.16a11.71,11.71,0,0,0-.08,1.57,1.74,1.74,0,0,1,0,.39.3.3,0,0,1-.34.23,1.09,1.09,0,0,1-.26,0,1.11,1.11,0,0,1-.54-.3.64.64,0,0,1-.23-.56c0-.22,0-.44,0-.7" style="fill:#231f20"/><path d="M51.25,38.56l-.44,0a5,5,0,0,1-2.8-.93,3.46,3.46,0,0,1-1.47-3.42,5.45,5.45,0,0,1,1.3-2.73,13,13,0,0,1,2.45-2.26c.7-.51,1.45-1,2.28-1.48A21.15,21.15,0,0,1,54.1,24a34,34,0,0,1,2.73-4.41,16.33,16.33,0,0,1,1.05-1.3,23.41,23.41,0,0,0-2.75,1.3A17.53,17.53,0,0,0,52,21.76,7.67,7.67,0,0,0,50.78,23a2.6,2.6,0,0,0-.5.93.18.18,0,0,0,0,.06,1.69,1.69,0,0,1,.21,1.14,2,2,0,0,1-1.93,1.54,1.87,1.87,0,0,1-2.07-1.48s0,0,0-.05l0-.11a1,1,0,0,1,0-.3v-.14a.86.86,0,0,1,0-.28s0-.08,0-.12a5.78,5.78,0,0,1,.93-2.44,11.46,11.46,0,0,1,2.38-2.64,20.61,20.61,0,0,1,4.33-2.77,23.41,23.41,0,0,1,5.2-1.85A20.38,20.38,0,0,1,62.37,14a13.15,13.15,0,0,1,2.07,0,5,5,0,0,1,2.07.63A3.1,3.1,0,0,1,68.1,17a4.15,4.15,0,0,1-.32,2.08,8,8,0,0,1-1.72,2.58,11.35,11.35,0,0,1-1.85,1.57c.11.09.21.19.31.29l.25,0c.9-.13,2-.28,3-.34a3.3,3.3,0,0,1,1.32.19,1.51,1.51,0,0,1,0,2.9,3.43,3.43,0,0,1-.89.18l-.66,0-.71,0-1,.12a6.14,6.14,0,0,1-.37,2.27,10.47,10.47,0,0,1-1.89,3.24,19.11,19.11,0,0,1-5.29,4.33,17.46,17.46,0,0,1-4.18,1.71,11.44,11.44,0,0,1-2.84.39m1.19-6.82-.24.18a8.38,8.38,0,0,0-1.57,1.49,2.52,2.52,0,0,0-.57,1.1c-.05.31,0,.41.09.46a.86.86,0,0,0,.39.2,3.48,3.48,0,0,0,1.51,0A8.48,8.48,0,0,0,54,34.71,14.72,14.72,0,0,0,57.24,33a15.82,15.82,0,0,0,3.35-3.07A8.11,8.11,0,0,0,61.76,28a3.27,3.27,0,0,0,.21-.7,25.14,25.14,0,0,0-3.52,1.11,26.45,26.45,0,0,0-2.59,1.23c0,.35,0,.73,0,1.16a2.34,2.34,0,0,1-.08.64,1.5,1.5,0,0,1-1.52,1.08,2.8,2.8,0,0,1-.57-.08,2.41,2.41,0,0,1-1.11-.6l-.1-.11m5.08-6.58-.13.23.34-.13a1,1,0,0,1-.21-.1m-11.07-.93h0m15.79-7a1.67,1.67,0,0,1,.28.46,1.41,1.41,0,0,1-.17,1.48,4.41,4.41,0,0,1-.43.49l-.57.52-.77.72c-.25.25-.5.51-.74.78a9.06,9.06,0,0,0,1.42-.61,7.39,7.39,0,0,0,2.05-1.57,3.35,3.35,0,0,0,.79-1.37,1.88,1.88,0,0,0,.07-.6c0-.1,0-.1-.09-.13a1.82,1.82,0,0,0-.67-.16,6.5,6.5,0,0,0-1.17,0m-1.34,1.4Z" style="fill:#231f20"/><path d="M164.11,25.85a2.21,2.21,0,0,1-.41.6c-.52.57-1,1.15-1.55,1.71a11.65,11.65,0,0,1-1.94,1.7,4.24,4.24,0,0,1-1.05.56,1.8,1.8,0,0,1-.83.1,1.18,1.18,0,0,1-1-.75,2.25,2.25,0,0,1-.12-1.06,15.15,15.15,0,0,1,.54-2.56c0-.1.06-.21.08-.31a.69.69,0,0,0,0-.2c0-.28-.18-.41-.47-.32a2,2,0,0,0-.39.19,4.87,4.87,0,0,0-1,.81,14,14,0,0,0-2,2.52c-.15.25-.27.51-.4.76s-.23.43-.36.63-.44.36-.77.13a1,1,0,0,1-.22-.2.46.46,0,0,1-.11-.51c.18-.51.36-1,.53-1.54q.36-1,.69-2.1a2.94,2.94,0,0,0,.1-.58.46.46,0,0,0-.68-.42c-.2.11-.4.22-.58.34a9.69,9.69,0,0,0-2.89,3.13,13.88,13.88,0,0,0-1,1.92,1.55,1.55,0,0,1-.12.22.46.46,0,0,1-.58.19.61.61,0,0,1-.43-.73c.08-.29.18-.57.27-.84s.21-.58.32-.87a.19.19,0,0,0,0-.13l-.26.23a10.8,10.8,0,0,1-2,1.44,3.52,3.52,0,0,1-1,.36,1.75,1.75,0,0,1-.82,0,1.21,1.21,0,0,1-.92-1.06,7.12,7.12,0,0,1,0-.8c0-.15,0-.3,0-.45a.77.77,0,0,0,0-.15.27.27,0,0,0-.24.08l-.41.35A15,15,0,0,1,139.86,30a3.85,3.85,0,0,1-1,.49,3.34,3.34,0,0,1-.43.1.72.72,0,0,1-.57-.17,1.18,1.18,0,0,1-.47-1.12c0-.11,0-.22,0-.37l-.21.14a9.33,9.33,0,0,1-2.3,1.2,7,7,0,0,1-2.13.39,1.88,1.88,0,0,1-1.75-1,1.51,1.51,0,0,1-.21-.74,2.65,2.65,0,0,0-.07-.48.74.74,0,0,1,.37-.8.63.63,0,0,0,.21-.25,7.54,7.54,0,0,1,1.52-2.14,5,5,0,0,1,2.44-1.36,2.55,2.55,0,0,1,1-.06,1.41,1.41,0,0,1,.7.35.87.87,0,0,1,.24,1,2.48,2.48,0,0,1-.48.85,6.12,6.12,0,0,1-1.66,1.32,8,8,0,0,1-2.37.94l-.1,0c-.31.09-.49.2-.43.62a.86.86,0,0,0,.93.76,5.36,5.36,0,0,0,2.34-.58,8.6,8.6,0,0,0,1.9-1.29l.35-.31a3.79,3.79,0,0,0,.55-.65A7.25,7.25,0,0,1,141.81,24a4.64,4.64,0,0,1,1.28-.27,1.15,1.15,0,0,1,.69.18l.52.37c.17.13.22.13.37,0s.19-.21.29-.31a.82.82,0,0,1,1.08.1.48.48,0,0,1,.08.52,5.45,5.45,0,0,1-.29.53c-.34.55-.69,1.09-1,1.63a4.48,4.48,0,0,0-.5,1.09,1.71,1.71,0,0,0-.09.84.77.77,0,0,0,.07.26.34.34,0,0,0,.42.21,2.11,2.11,0,0,0,.73-.25,6.46,6.46,0,0,0,1.24-.88,18.39,18.39,0,0,0,1.94-2,1.19,1.19,0,0,0,.12-.22c.25-.7.51-1.4.76-2.11a1.8,1.8,0,0,1,.44-.72.71.71,0,0,1,.93,0,.41.41,0,0,1,.12.4,2.79,2.79,0,0,1-.14.57c-.23.61-.48,1.21-.72,1.82l-.07.19,0,0,.15-.16a8.13,8.13,0,0,1,2-1.65,2.56,2.56,0,0,1,.92-.38,1.73,1.73,0,0,1,1.38.35.79.79,0,0,1,.31.71,6.49,6.49,0,0,1-.17,1.24.8.8,0,0,0,0,.31l.12-.14a7.76,7.76,0,0,1,1.89-1.62,3.89,3.89,0,0,1,1.25-.54,1.21,1.21,0,0,1,1.11.31.86.86,0,0,1,.27.82c-.12.49-.25,1-.38,1.46a11.08,11.08,0,0,0-.38,1.61,3.65,3.65,0,0,0,0,.66c0,.35.25.49.62.41a1.91,1.91,0,0,0,.65-.29,7.39,7.39,0,0,0,1.17-1c.62-.62,1.18-1.29,1.73-2,.15-.19.31-.37.47-.54a1,1,0,0,1,.25-.2.49.49,0,0,1,.74.16Zm-25.3,3a.35.35,0,0,0,.57.32,5.89,5.89,0,0,0,.54-.32,26.25,26.25,0,0,0,3.16-2.57,5.47,5.47,0,0,0,.45-.51c.21-.25.09-.28-.11-.32a.31.31,0,0,1-.3-.3c0-.22-.16-.31-.4-.29h-.13a2.9,2.9,0,0,0-.89.37A7.61,7.61,0,0,0,140,26.7a6.07,6.07,0,0,0-1,1.45,2,2,0,0,0-.19.69m-6.15-1.51a1.72,1.72,0,0,0,.63-.14,7.45,7.45,0,0,0,2.35-1.4,2.86,2.86,0,0,0,.37-.41.7.7,0,0,0,.09-.29c0-.13-.07-.21-.21-.23a.86.86,0,0,0-.32,0,2,2,0,0,0-.8.37,9.36,9.36,0,0,0-2,2l-.09.14" style="fill:#231f20"/><path d="M147.82,31.94a2,2,0,0,1-.63-.11,1.78,1.78,0,0,1-1.09-1h0a4.5,4.5,0,0,1-1.37.48,3.09,3.09,0,0,1-1.39-.05A2.43,2.43,0,0,1,141.76,30c-.39.3-.79.59-1.2.85a5.08,5.08,0,0,1-1.28.63,4,4,0,0,1-.61.14,2,2,0,0,1-1.56-.41,2.59,2.59,0,0,1-.49-.5,8.69,8.69,0,0,1-1.26.54,8.3,8.3,0,0,1-2.51.46A3.07,3.07,0,0,1,130,30.11a2.61,2.61,0,0,1-.34-1.21,1.11,1.11,0,0,0-.05-.28v0a1.73,1.73,0,0,1,.71-1.79,8.45,8.45,0,0,1,1.7-2.35,6.27,6.27,0,0,1,3-1.67,3.83,3.83,0,0,1,1.56-.07,2.72,2.72,0,0,1,1.3.65,1.9,1.9,0,0,1,.66,1.41A8.22,8.22,0,0,1,141.34,23a5.86,5.86,0,0,1,1.67-.36,2.43,2.43,0,0,1,1.38.32,2.15,2.15,0,0,1,1.17-.26,2.06,2.06,0,0,1,1.48.73,1.49,1.49,0,0,1,.18,1.58,5.08,5.08,0,0,1-.34.62l-.51.82q-.21.32-.42.66a16.28,16.28,0,0,0,1.65-1.73c.15-.4.29-.79.43-1.19l.32-.87a2.75,2.75,0,0,1,.72-1.15,2,2,0,0,1,2.68,0,1.56,1.56,0,0,1,.4.7,3.12,3.12,0,0,1,.77-.22,3,3,0,0,1,2.38.6,2,2,0,0,1,.47.53l.19-.12a5,5,0,0,1,1.67-.69,2.45,2.45,0,0,1,2.24.62,1.84,1.84,0,0,1,.58,1.8c-.12.5-.26,1-.39,1.49l-.07.24c0,.1-.05.19-.08.28a1.14,1.14,0,0,0,.11-.11c.6-.6,1.15-1.26,1.66-1.88.15-.18.32-.37.53-.6a2.22,2.22,0,0,1,.47-.39,1.89,1.89,0,0,1,1.38-.25,1.68,1.68,0,0,1,1.11.8,1,1,0,0,1,.14.51v.29a1,1,0,0,1-.06.33,2.79,2.79,0,0,1-.62,1c-.17.18-.33.37-.49.55-.35.39-.7.79-1.07,1.18a12.83,12.83,0,0,1-2.13,1.86,5.43,5.43,0,0,1-1.36.71,3,3,0,0,1-1.44.15,2.31,2.31,0,0,1-1.91-1.44,3.16,3.16,0,0,1-.19-1.53c0-.24.06-.48.1-.72A12,12,0,0,0,155,29.39c-.06.1-.13.24-.2.38s-.11.21-.16.31l-.07.13c-.1.18-.21.38-.34.59a1.73,1.73,0,0,1-1.15.77,1.81,1.81,0,0,1-1.37-.34,2.48,2.48,0,0,1-.43-.37,1.51,1.51,0,0,1-.33-1.55l.11-.31c.14-.4.29-.8.42-1.2l.19-.56A8.68,8.68,0,0,0,150.36,29a14.94,14.94,0,0,0-.91,1.78,2.74,2.74,0,0,1-.21.42,1.68,1.68,0,0,1-1.42.76m-17.39-5.23h0m23-.76h0" style="fill:#231f20"/><path d="M127.31,25.44a.18.18,0,0,0,.22,0l.23-.19a10,10,0,0,1,1.4-1.19,2.87,2.87,0,0,1,1.05-.48,1.34,1.34,0,0,1,.66,0,.9.9,0,0,1,.7.84,2.44,2.44,0,0,1-.22,1.24.9.9,0,0,1-.65.53.58.58,0,0,1-.74-.67c0-.15.1-.29.15-.44s.08-.21,0-.3a.31.31,0,0,0-.38,0,5.29,5.29,0,0,0-.5.32,14.49,14.49,0,0,0-2.69,2.79,8.72,8.72,0,0,0-.75,1.33l-.48,1a2.82,2.82,0,0,1-.18.29.22.22,0,0,1-.3.09.69.69,0,0,1-.51-.84c.1-.35.23-.69.35-1a.61.61,0,0,0,.06-.24l-.1.09a33.66,33.66,0,0,1-3.24,2.83,18,18,0,0,1-3.26,2,9.68,9.68,0,0,1-2.48.78,6,6,0,0,1-2.54-.07,3.48,3.48,0,0,1-2.7-2.71,5.63,5.63,0,0,1-.06-1.92,12.75,12.75,0,0,1,1.73-4.94,21.24,21.24,0,0,1,3.7-4.72,21.49,21.49,0,0,1,3.36-2.7,14,14,0,0,1,3.32-1.63,6.88,6.88,0,0,1,2.43-.39,3,3,0,0,1,1.73.56,1.74,1.74,0,0,1,.68,1.2,3.54,3.54,0,0,1-.37,1.86,8,8,0,0,1-1.52,2.17,8.57,8.57,0,0,1-1.85,1.53,3,3,0,0,1-1,.43,1.13,1.13,0,0,1-.63,0,.46.46,0,0,1-.32-.43.75.75,0,0,1,.51-.8,1.71,1.71,0,0,1,.38-.13,2.64,2.64,0,0,0,1-.44,5.5,5.5,0,0,0,2.22-3.09,2.09,2.09,0,0,0,.07-1,.83.83,0,0,0-.78-.69,3.71,3.71,0,0,0-1,.06,9,9,0,0,0-2.68,1A18.07,18.07,0,0,0,118,19.5a21.59,21.59,0,0,0-4.43,5.08A12.65,12.65,0,0,0,112,28.15a7.39,7.39,0,0,0-.25,2.09,3,3,0,0,0,.58,1.72A2.56,2.56,0,0,0,114.48,33a8,8,0,0,0,3.11-.63,14.66,14.66,0,0,0,3.45-2,26.93,26.93,0,0,0,4.68-4.49,2.06,2.06,0,0,0,.35-.63c.09-.28.18-.56.29-.83a3,3,0,0,1,.29-.6.63.63,0,0,1,.87-.14.34.34,0,0,1,.19.36,3.25,3.25,0,0,1-.11.42c-.08.22-.18.44-.26.67a.37.37,0,0,0,0,.25" style="fill:#231f20"/><path d="M114.45,35.33a6.71,6.71,0,0,1-1.7-.21,4.64,4.64,0,0,1-3.53-3.53,6.52,6.52,0,0,1-.08-2.26A13.55,13.55,0,0,1,111,24a23.75,23.75,0,0,1,7.43-7.79A14.88,14.88,0,0,1,122,14.42a8.52,8.52,0,0,1,2.88-.45,4.14,4.14,0,0,1,2.46.81,2.75,2.75,0,0,1,1.1,1.93A4.41,4.41,0,0,1,128,19.1a8.91,8.91,0,0,1-1.71,2.46,10.32,10.32,0,0,1-2.09,1.73,4.19,4.19,0,0,1-1.43.59,2.51,2.51,0,0,1-1.33-.1,1.55,1.55,0,0,1-1.07-1.37,1.83,1.83,0,0,1,1.19-1.86,3.1,3.1,0,0,1,.61-.2,1.5,1.5,0,0,0,.53-.24,4.39,4.39,0,0,0,1.79-2.5,1.79,1.79,0,0,0,.07-.33,3.34,3.34,0,0,0-.43,0,8,8,0,0,0-2.3.87,17.76,17.76,0,0,0-3,2.09,20.83,20.83,0,0,0-4.2,4.83,11.57,11.57,0,0,0-1.45,3.27A5.79,5.79,0,0,0,113,30.2a2,2,0,0,0,.37,1.15,1.31,1.31,0,0,0,1.15.58,6.74,6.74,0,0,0,2.61-.54,13.44,13.44,0,0,0,3.17-1.81,25.07,25.07,0,0,0,4.47-4.3.78.78,0,0,0,.17-.28l.06-.19c.07-.23.15-.46.24-.7a3.63,3.63,0,0,1,.41-.81,1.74,1.74,0,0,1,1.16-.73,2,2,0,0,1,1.42.27,2.6,2.6,0,0,1,.31.25,4.16,4.16,0,0,1,1.45-.62,2.66,2.66,0,0,1,1.29.07,2,2,0,0,1,1.51,1.8,3.33,3.33,0,0,1-.32,1.75A2.07,2.07,0,0,1,131,27.25a2,2,0,0,1-1.69-.42c-.06,0-.11-.11-.16-.16a12.35,12.35,0,0,0-1.6,1.8,8.79,8.79,0,0,0-.65,1.17l-.06.13c-.14.29-.28.58-.43.86a2.27,2.27,0,0,1-.27.44,1.46,1.46,0,0,1-1.67.53,2,2,0,0,1-.89-.53q-.72.62-1.41,1.14a19.4,19.4,0,0,1-3.49,2.12,10.73,10.73,0,0,1-2.81.89,9.73,9.73,0,0,1-1.39.11" style="fill:#231f20"/><path d="M84.42,29.66a20.67,20.67,0,0,1,1.87-6.61,21.41,21.41,0,0,1,3.81-5.88l-.17,0a18.4,18.4,0,0,1-2.64.62,11,11,0,0,1-2.14.16,4.41,4.41,0,0,1-2-.5,2.87,2.87,0,0,1-.5-.36.87.87,0,0,1-.27-.45.71.71,0,0,1,.89-.85.83.83,0,0,1,.45.26,2,2,0,0,0,1.18.71,2.66,2.66,0,0,0,.63,0c.34,0,.67,0,1-.07a14.24,14.24,0,0,0,2.42-.5l2.71-.77a10.77,10.77,0,0,1,2.24-.41,5.1,5.1,0,0,1,1.83.13,1.77,1.77,0,0,1,1,.69,1.17,1.17,0,0,1,0,1.28.81.81,0,0,1-.52.39.63.63,0,0,1-.82-.54.71.71,0,0,0,0-.14.78.78,0,0,0-.49-.66,1.8,1.8,0,0,0-.61-.13,3.72,3.72,0,0,0-1.2.13l-.81.23a1.48,1.48,0,0,1-.63,1,10.23,10.23,0,0,0-2.31,2.7,27.15,27.15,0,0,0-2.73,5.54A14.36,14.36,0,0,0,86,28.09c-.06.34-.09.69-.13,1,0,.05,0,.11,0,.18l.18,0A13,13,0,0,1,88.23,29a5.49,5.49,0,0,1,1.9.19,2.24,2.24,0,0,1,.75.39,1,1,0,0,1,.32,1.13.78.78,0,0,1-.89.44.62.62,0,0,1-.46-.54.46.46,0,0,0-.35-.42,2.76,2.76,0,0,0-.75-.14,6.38,6.38,0,0,0-2,.2l-.5.12a1,1,0,0,0-.53.25.92.92,0,0,1-.92.12.63.63,0,0,0-.3,0,13.72,13.72,0,0,1-2.31.25,5.12,5.12,0,0,1-1.56-.17,1.74,1.74,0,0,1-.65-.33,1,1,0,0,1-.37-.79.44.44,0,0,1,.13-.33.84.84,0,0,1,1.17-.1l.19.19a1.26,1.26,0,0,0,1,.41,12.31,12.31,0,0,0,1.72-.1l.66-.07" style="fill:#231f20"/><path d="M90.49,32.25a2.05,2.05,0,0,1-.49-.06,1.8,1.8,0,0,1-1.25-1h-.11a5.28,5.28,0,0,0-1.63.16l-.18.05-.35.08h0a2.13,2.13,0,0,1-2,.38,15.1,15.1,0,0,1-2.34.24,6.28,6.28,0,0,1-2-.22,3,3,0,0,1-1.1-.56,2,2,0,0,1-.76-1.6,1.59,1.59,0,0,1,.38-1A2.09,2.09,0,0,1,80.16,28a2.16,2.16,0,0,1,1.53.48,2.91,2.91,0,0,1,.31.3h.06c.41,0,.83,0,1.27-.06a21.84,21.84,0,0,1,1.85-6.05,24.74,24.74,0,0,1,2-3.68,10.82,10.82,0,0,1-2.12.13,5.66,5.66,0,0,1-2.55-.65,3.82,3.82,0,0,1-.71-.5,1.89,1.89,0,0,1-.61-1,1.7,1.7,0,0,1,.48-1.7,2.09,2.09,0,0,1,1.83-.48,2,2,0,0,1,1.11.62.93.93,0,0,0,.48.34h.37c.3,0,.6,0,.9-.07a11.77,11.77,0,0,0,2.2-.45L90,14.83l1.36-.39a12,12,0,0,1,2.5-.45,6.2,6.2,0,0,1,2.3.19,2.83,2.83,0,0,1,1.69,1.17,2.18,2.18,0,0,1,.06,2.33,2,2,0,0,1-2.82.71,1.7,1.7,0,0,1-.78-1.2,2.37,2.37,0,0,0-.76.09l-.2,0a2.81,2.81,0,0,1-.82,1,9.2,9.2,0,0,0-2,2.42A27,27,0,0,0,87.81,26,14.92,14.92,0,0,0,87.25,28c.32,0,.63-.06.93-.07a6.45,6.45,0,0,1,2.36.26,3.16,3.16,0,0,1,1.15.61,1.93,1.93,0,0,1-1.2,3.48" style="fill:#231f20"/><path d="M98.84,28.58l-.25.17a10.44,10.44,0,0,1-2.53,1.41,5.37,5.37,0,0,1-2,.39A1.7,1.7,0,0,1,92.34,29a2.85,2.85,0,0,1,.29-1.4,7,7,0,0,1,1.5-2.11,6.81,6.81,0,0,1,1.8-1.32,3.94,3.94,0,0,1,1.55-.43,1.54,1.54,0,0,1,1.39.91.75.75,0,0,1,0,.57,1.82,1.82,0,0,1-1,1.11.85.85,0,0,1-.47.09.32.32,0,0,1-.32-.23.46.46,0,0,1,.19-.59,2.6,2.6,0,0,0,.33-.25.41.41,0,0,0,.13-.19.23.23,0,0,0-.24-.31,1.68,1.68,0,0,0-.45.06,3.18,3.18,0,0,0-1,.5,5.94,5.94,0,0,0-2,2.27,2.12,2.12,0,0,0-.24.95,1.5,1.5,0,0,0,.08.47.66.66,0,0,0,.68.41,3.92,3.92,0,0,0,1.32-.26,8.77,8.77,0,0,0,2.08-1.15,12.22,12.22,0,0,0,2-1.75c.14-.16.27-.34.41-.51a6,6,0,0,1,2-1.68,4.34,4.34,0,0,1,1.71-.45,1.4,1.4,0,0,1,1.13.47.84.84,0,0,1,.18.81,2.14,2.14,0,0,1-.43.85,5.87,5.87,0,0,1-1.44,1.23,8.26,8.26,0,0,1-2.68,1.13h0c-.41.1-.52.26-.47.65a.83.83,0,0,0,.87.73,5,5,0,0,0,2.2-.48,8.61,8.61,0,0,0,2.24-1.5,17.12,17.12,0,0,0,1.49-1.59,8.21,8.21,0,0,1,.58-.6.58.58,0,0,1,.46-.14.33.33,0,0,1,.35.31.59.59,0,0,1-.1.43,2.94,2.94,0,0,1-.31.41,17.06,17.06,0,0,1-2.62,2.47,9,9,0,0,1-2.74,1.42,7.77,7.77,0,0,1-1.86.3A2,2,0,0,1,99,29.55a2.06,2.06,0,0,1-.18-.73,2.27,2.27,0,0,0,0-.24m1.83-1.26a1.71,1.71,0,0,0,.62-.12,7.29,7.29,0,0,0,2-1.12,6.75,6.75,0,0,0,.63-.57.83.83,0,0,0,.18-.3c.07-.2,0-.34-.26-.36a.82.82,0,0,0-.27,0,2.09,2.09,0,0,0-.81.38,9.5,9.5,0,0,0-2,1.94l-.08.13" style="fill:#231f20"/><path d="M100.73,31.74a3.13,3.13,0,0,1-2.57-1.36,10.23,10.23,0,0,1-1.64.79,6.66,6.66,0,0,1-2.46.48,2.87,2.87,0,0,1-2.92-2.55,3.78,3.78,0,0,1,.37-1.88,8.34,8.34,0,0,1,1.72-2.43,7.83,7.83,0,0,1,2.12-1.55,5.13,5.13,0,0,1,2.07-.56A2.74,2.74,0,0,1,100,24.33a.41.41,0,0,1,0,.08,7.18,7.18,0,0,1,1.68-1.18,5.59,5.59,0,0,1,2.23-.58,2.67,2.67,0,0,1,2.11.86,1.81,1.81,0,0,1,.5,1.4l.22-.21a1.84,1.84,0,0,1,1.44-.48,1.49,1.49,0,0,1,1.43,1.29,1.59,1.59,0,0,1-.28,1.12c-.12.17-.24.34-.39.52a17.12,17.12,0,0,1-2.8,2.62,10,10,0,0,1-3.11,1.61,8.58,8.58,0,0,1-2.2.36h-.14M96,26.86a4.38,4.38,0,0,0-1,1.29,1.36,1.36,0,0,0-.09.23l.38-.12a6.67,6.67,0,0,0,1.51-.79,1.48,1.48,0,0,1-.83-.61" style="fill:#231f20"/><path d="M71.27,30.65A2.19,2.19,0,0,1,69.61,30a1.21,1.21,0,0,1-.3-.61.68.68,0,0,1,.12-.55.65.65,0,0,1,.77-.25.41.41,0,0,1,.31.39,2.13,2.13,0,0,0,0,.25.65.65,0,0,0,.51.48,1.05,1.05,0,0,0,1.35-1.19.72.72,0,0,0-.32-.48c-.16-.12-.34-.22-.52-.33L71,27.42l-.25-.16A1.09,1.09,0,0,1,70.31,26,2.35,2.35,0,0,1,71,24.91a4.87,4.87,0,0,1,2.34-1.29,3.33,3.33,0,0,1,.54-.07,1.3,1.3,0,0,1,1.06.49.82.82,0,0,1,.19.65,2.12,2.12,0,0,1-.3.94,1.76,1.76,0,0,1-.27.34.69.69,0,0,1-.83.07.46.46,0,0,1-.14-.69,1.48,1.48,0,0,1,.25-.25c.13-.1.14-.15,0-.28a.5.5,0,0,0-.54-.18,3.16,3.16,0,0,0-.43.16,3.06,3.06,0,0,0-1,.75,1.15,1.15,0,0,0-.27.51.45.45,0,0,0,.15.47l.25.19.47.24.47.26A1.69,1.69,0,0,1,73.14,30a2.78,2.78,0,0,1-1.43.57l-.44,0" style="fill:#231f20"/><path d="M71.27,31.74h0a3.38,3.38,0,0,1-2.56-1,2.17,2.17,0,0,1-.57-1.14,1.75,1.75,0,0,1,.28-1.29,1.85,1.85,0,0,1,1-.74,2.09,2.09,0,0,1-.3-1.75,3.44,3.44,0,0,1,1-1.61A6.23,6.23,0,0,1,73,22.56a4.27,4.27,0,0,1,.8-.1,2.58,2.58,0,0,1,2,.9,1.86,1.86,0,0,1,.44,1.45,3.22,3.22,0,0,1-.45,1.35,2.35,2.35,0,0,1-.46.57,1.91,1.91,0,0,1-.84.45A2.53,2.53,0,0,1,75,28.46a2.78,2.78,0,0,1-1.08,2.39,3.93,3.93,0,0,1-2,.84l-.4,0h-.22" style="fill:#231f20"/><path d="M69.76,16.91a1.44,1.44,0,0,1-.19.67A4.06,4.06,0,0,1,68.34,19a.94.94,0,0,1-.22.12c-.21.07-.37,0-.37-.24a1.09,1.09,0,0,1,.07-.3,5.27,5.27,0,0,1,.22-.49,1.67,1.67,0,0,0,.12-.88.91.91,0,0,1,.15-.73.87.87,0,0,1,1-.27.6.6,0,0,1,.35.41c0,.11,0,.22.06.33" style="fill:#231f20"/><path d="M68,20.2a1.58,1.58,0,0,1-.83-.24,1.29,1.29,0,0,1-.61-1.15,2,2,0,0,1,.13-.62l.17-.4.07-.15a.51.51,0,0,0,0-.32,2,2,0,0,1,.36-1.5,2.14,2.14,0,0,1,2.54-.64,1.74,1.74,0,0,1,1,1.13c0,.14,0,.26.07.36a.17.17,0,0,0,0,.07,1.09,1.09,0,0,1,0,.18,2.33,2.33,0,0,1-.31,1.14,5.31,5.31,0,0,1-1.56,1.75,1.77,1.77,0,0,1-.54.29,1.89,1.89,0,0,1-.56.1" style="fill:#231f20"/><path d="M47.24,23.64a2.1,2.1,0,0,0,.06-.24,4.9,4.9,0,0,1,.78-2.06A10.84,10.84,0,0,1,50.24,19a19.94,19.94,0,0,1,4.08-2.61,22.34,22.34,0,0,1,4.92-1.75,17.33,17.33,0,0,1,2.86-.43,10.39,10.39,0,0,1,1.85,0,4,4,0,0,1,1.56.46,2,2,0,0,1,1,1.57,3.34,3.34,0,0,1-.26,1.59A6.84,6.84,0,0,1,64.8,20a10.85,10.85,0,0,1-2.86,2.15l-.23.13a4.43,4.43,0,0,1,1.95,1.49l1-.15a28,28,0,0,1,2.9-.33,2.1,2.1,0,0,1,.79.1c.25.1.37.25.36.46a.42.42,0,0,1-.31.41,2.71,2.71,0,0,1-.58.12c-.46,0-.93,0-1.4.08-.72.07-1.43.16-2.15.25l-.1,0,0,.18A4.72,4.72,0,0,1,64,27.64a9.33,9.33,0,0,1-1.71,2.91,17.45,17.45,0,0,1-5,4.06,16.15,16.15,0,0,1-3.87,1.58,9.74,9.74,0,0,1-2.89.34,3.77,3.77,0,0,1-2.11-.69,2.42,2.42,0,0,1-1-2.43,4.53,4.53,0,0,1,1.08-2.23,11.56,11.56,0,0,1,2.25-2.05,24.79,24.79,0,0,1,2.38-1.54.43.43,0,0,0,.24-.3,20.66,20.66,0,0,1,1.51-3.76,31.21,31.21,0,0,1,2.65-4.26A12.65,12.65,0,0,1,59,17.5c.24-.22.51-.42.76-.63l.18-.1a.8.8,0,0,1,1.13.37.45.45,0,0,1,0,.46,2.74,2.74,0,0,1-.32.36c-.45.42-.91.83-1.35,1.25A15.28,15.28,0,0,0,57,22.16a24.45,24.45,0,0,0-1.71,3.19c-.17.39-.32.79-.47,1.19l0,.11c.81-.36,1.6-.72,2.4-1a19.41,19.41,0,0,1,2.47-.84c.84-.24,1.7-.45,2.56-.68l-.12-.14a2.55,2.55,0,0,0-1.29-.59,5.82,5.82,0,0,0-2.08,0,3.66,3.66,0,0,1-.65.06c-.34,0-.47-.17-.45-.47a.65.65,0,0,1,.45-.62,6.13,6.13,0,0,1,.83-.26,9.8,9.8,0,0,0,2.6-1,8.51,8.51,0,0,0,2.37-1.82,4.46,4.46,0,0,0,1-1.79,2.5,2.5,0,0,0,.1-.94,1.19,1.19,0,0,0-.69-1,3.25,3.25,0,0,0-1.14-.29,10.4,10.4,0,0,0-3.43.31,21.58,21.58,0,0,0-5.61,2.21A19.22,19.22,0,0,0,50.77,20a9.18,9.18,0,0,0-1.33,1.39,3.54,3.54,0,0,0-.68,1.32,1,1,0,0,0,.07.76A.68.68,0,0,1,49,24a.84.84,0,0,1-.82.64.71.71,0,0,1-.82-.6,2.33,2.33,0,0,0-.07-.25Zm5.66,5.28-.17.09c-.55.38-1.11.75-1.64,1.15a9.27,9.27,0,0,0-1.79,1.69,3.51,3.51,0,0,0-.78,1.58,1.52,1.52,0,0,0,.37,1.33,2,2,0,0,0,.92.52,4.78,4.78,0,0,0,2.06.1,10,10,0,0,0,2.23-.58,16.4,16.4,0,0,0,3.53-1.89,17.31,17.31,0,0,0,3.59-3.29,9.12,9.12,0,0,0,1.31-2.14,3.85,3.85,0,0,0,.3-2.14c0-.1,0-.21-.08-.32l-.72.15a27.11,27.11,0,0,0-4.42,1.33A34.42,34.42,0,0,0,54.49,28c-.07,0-.11.08-.11.15l0,.16a12,12,0,0,0-.08,1.58,1.74,1.74,0,0,1-.05.39.31.31,0,0,1-.34.23,1.09,1.09,0,0,1-.26,0,1.11,1.11,0,0,1-.54-.3.69.69,0,0,1-.23-.57c0-.22,0-.44,0-.69" style="fill:#951b1f"/><path d="M50.9,37h-.4a4.36,4.36,0,0,1-2.41-.8,2.89,2.89,0,0,1-1.24-2.88A5,5,0,0,1,48,30.89a12.15,12.15,0,0,1,2.34-2.14,24.56,24.56,0,0,1,2.44-1.57h0a20.4,20.4,0,0,1,1.55-3.85A31.67,31.67,0,0,1,57,19a12.88,12.88,0,0,1,1.57-1.83,6.8,6.8,0,0,1,.59-.5l.2-.16a1.19,1.19,0,0,1,.27-.17,1.45,1.45,0,0,1,1.08-.09,1.3,1.3,0,0,1,.8.72.87.87,0,0,1-.09.91,4.08,4.08,0,0,1-.37.42l-.56.51-.79.74a13.94,13.94,0,0,0-1.92,2.33l.07,0a6.1,6.1,0,0,1,.91-.29,9.63,9.63,0,0,0,2.45-.91,8.24,8.24,0,0,0,2.24-1.72,3.9,3.9,0,0,0,.91-1.6,2.21,2.21,0,0,0,.09-.79.69.69,0,0,0-.43-.62,2.52,2.52,0,0,0-.93-.23,10.3,10.3,0,0,0-3.24.29,21.3,21.3,0,0,0-5.46,2.16,17.9,17.9,0,0,0-3.29,2.26,8,8,0,0,0-1.26,1.31,3.08,3.08,0,0,0-.6,1.14.54.54,0,0,0,0,.44,1.09,1.09,0,0,1,.16.78,1.35,1.35,0,0,1-1.31,1,1.21,1.21,0,0,1-1.37-1s0-.07,0-.12l0-.09,0-.06v-.28l0-.06,0-.09a.25.25,0,0,0,0-.07,5.19,5.19,0,0,1,.85-2.25,11.16,11.16,0,0,1,2.26-2.5,20.08,20.08,0,0,1,4.19-2.68,23.16,23.16,0,0,1,5-1.79,17.82,17.82,0,0,1,3-.44,10.51,10.51,0,0,1,1.94,0,4.33,4.33,0,0,1,1.79.54,2.47,2.47,0,0,1,1.29,1.92A3.55,3.55,0,0,1,66.8,18a7.38,7.38,0,0,1-1.59,2.39,11.52,11.52,0,0,1-2.45,1.94,4.47,4.47,0,0,1,1.15,1l.62-.1c.89-.13,1.92-.28,3-.34a2.55,2.55,0,0,1,1,.14,1,1,0,0,1,.7.92.92.92,0,0,1-.67.86,3.57,3.57,0,0,1-.71.14l-.64,0c-.26,0-.51,0-.75.05-.51.05-1,.11-1.54.18l-.15,0a5.33,5.33,0,0,1-.29,2.61,9.8,9.8,0,0,1-1.79,3.05A18.09,18.09,0,0,1,57.57,35a16.23,16.23,0,0,1-4,1.64A10.49,10.49,0,0,1,50.9,37m9.43-19.88a.2.2,0,0,0-.13,0s-.08,0-.09,0l-.21.16c-.18.15-.36.29-.52.44a12.11,12.11,0,0,0-1.45,1.69,31.48,31.48,0,0,0-2.6,4.2,19.52,19.52,0,0,0-1.48,3.68,1,1,0,0,1-.47.59A25.69,25.69,0,0,0,51,29.5a11.42,11.42,0,0,0-2.15,2,4.14,4.14,0,0,0-1,2,2,2,0,0,0,.85,2,3.27,3.27,0,0,0,1.8.58,9.32,9.32,0,0,0,2.71-.32A15.57,15.57,0,0,0,57,34.19a17.23,17.23,0,0,0,4.81-3.93,9,9,0,0,0,1.62-2.76,4.33,4.33,0,0,0,.2-2.44l0-.14-.08-.45.43-.15a1.13,1.13,0,0,1,.2-.05l.59-.07L66.33,24l.81,0,.6,0a1.35,1.35,0,0,0,.34-.06,1.41,1.41,0,0,0-.53-.06,28.48,28.48,0,0,0-2.84.33l-.63.09-.68.11-.19-.28a4,4,0,0,0-1.74-1.31l-.87-.4,1.07-.58a10.68,10.68,0,0,0,2.73-2.05,6.46,6.46,0,0,0,1.4-2.08A3,3,0,0,0,66,16.26a1.56,1.56,0,0,0-.81-1.21,3.26,3.26,0,0,0-1.34-.39,11.28,11.28,0,0,0-1.74,0,17.91,17.91,0,0,0-2.77.42,22.37,22.37,0,0,0-4.8,1.7,18.84,18.84,0,0,0-4,2.54,10,10,0,0,0-2.07,2.28,4.17,4.17,0,0,0-.7,1.86,1.38,1.38,0,0,1-.07.26h0a1.37,1.37,0,0,1,.07.24c0,.19.09.2.26.19a.32.32,0,0,0,.32-.23.33.33,0,0,0-.06-.18,1.4,1.4,0,0,1-.13-1.09A4.09,4.09,0,0,1,49,21.16a9,9,0,0,1,1.4-1.47,19.63,19.63,0,0,1,3.48-2.38,22.12,22.12,0,0,1,5.75-2.26,11.15,11.15,0,0,1,3.61-.32,3.46,3.46,0,0,1,1.35.35,1.66,1.66,0,0,1,1,1.4,3.23,3.23,0,0,1-.12,1.09,4.76,4.76,0,0,1-1.12,2,9.1,9.1,0,0,1-2.52,1.94,10.64,10.64,0,0,1-2.74,1,6.62,6.62,0,0,0-.75.24.15.15,0,0,0-.12.15l.46,0a6.5,6.5,0,0,1,2.29,0,3,3,0,0,1,1.56.74.68.68,0,0,1,.12.12l0,0,.53.57-.79.21-.79.21-.75.2,1.06-.25.47-.1.77-.16.12.48,0,.09a1.84,1.84,0,0,1,.05.25A4.13,4.13,0,0,1,63,27.65a9.36,9.36,0,0,1-1.38,2.25A17.38,17.38,0,0,1,58,33.3a16.5,16.5,0,0,1-3.64,1.94,10.47,10.47,0,0,1-2.36.62,5.42,5.42,0,0,1-2.3-.12,2.46,2.46,0,0,1-1.16-.67,1.93,1.93,0,0,1-.5-1.71,4.1,4.1,0,0,1,.87-1.79,10.2,10.2,0,0,1,1.89-1.79c.38-.29.79-.56,1.18-.83l.48-.33.15-.08.07,0L53.5,28l-.08,1.16,0,.46a.2.2,0,0,0,.08.2.61.61,0,0,0,.26.15.4.4,0,0,0,0-.11,11.51,11.51,0,0,1,.09-1.64.22.22,0,0,0,0-.08.06.06,0,0,0,0,0,.68.68,0,0,1,.38-.55l.1,0c.71-.37,1.44-.75,2.2-1.1l-.74.33-.73.32-1,.45.27-1a.46.46,0,0,1,0-.13l.13-.36c.11-.28.21-.57.34-.85a24.85,24.85,0,0,1,1.74-3.24A15.16,15.16,0,0,1,59,18.88c.27-.25.54-.51.81-.75l.55-.5.25-.29v0a.31.31,0,0,0-.16-.16h-.07m-8,12.74c-.31.21-.62.42-.91.64a9.09,9.09,0,0,0-1.7,1.6,3,3,0,0,0-.68,1.37,1,1,0,0,0,.25.94,1.48,1.48,0,0,0,.68.38,4.2,4.2,0,0,0,1.81.08,10,10,0,0,0,2.11-.55,15.44,15.44,0,0,0,3.4-1.82,16.89,16.89,0,0,0,3.49-3.2,8.29,8.29,0,0,0,1.24-2,3.4,3.4,0,0,0,.29-1.7l-.17,0a26.24,26.24,0,0,0-4.32,1.29,30.62,30.62,0,0,0-2.94,1.42h0a10.34,10.34,0,0,0-.07,1.51,2.16,2.16,0,0,1-.07.51.83.83,0,0,1-.86.61,1.76,1.76,0,0,1-.4-.06,1.61,1.61,0,0,1-.79-.43,1.12,1.12,0,0,1-.35-.62m2.57-1.71h0m4.47-2.82a18.27,18.27,0,0,0-2,.68h0a20.45,20.45,0,0,1,2-.68M57.11,23a23.31,23.31,0,0,0-1.31,2.5l-.07.18c.41-.19.83-.37,1.26-.55a24,24,0,0,1,2.53-.85l1.5-.41-.3-.07a5.38,5.38,0,0,0-1.88,0,4.32,4.32,0,0,1-.73.06,1,1,0,0,1-.74-.25.87.87,0,0,1-.26-.59m7.19,2.21h0m3.83-1.34Z" style="fill:#fff3d9"/><path d="M163.76,24.93a1.84,1.84,0,0,1-.41.59c-.52.58-1,1.16-1.55,1.72a11.26,11.26,0,0,1-1.94,1.7,4.24,4.24,0,0,1-1.05.56,1.79,1.79,0,0,1-.83.09,1.15,1.15,0,0,1-1-.74,2.25,2.25,0,0,1-.12-1.06,16,16,0,0,1,.54-2.56c0-.11.06-.21.08-.31a.69.69,0,0,0,0-.2c0-.28-.18-.41-.46-.32a2,2,0,0,0-.4.18,5.61,5.61,0,0,0-1,.82,14.49,14.49,0,0,0-2.05,2.52c-.15.24-.27.5-.4.75a6.6,6.6,0,0,1-.36.64c-.22.32-.44.35-.77.13a2.09,2.09,0,0,1-.22-.2.48.48,0,0,1-.11-.52l.54-1.53c.23-.7.46-1.4.68-2.1a2.94,2.94,0,0,0,.1-.58.46.46,0,0,0-.68-.42,5.51,5.51,0,0,0-.58.34A9.56,9.56,0,0,0,149,27.55a14.58,14.58,0,0,0-1,1.93,1.19,1.19,0,0,1-.12.22.47.47,0,0,1-.58.19.61.61,0,0,1-.42-.74c.07-.28.17-.56.27-.84s.2-.57.31-.86a.19.19,0,0,0,0-.13l-.26.23a10.8,10.8,0,0,1-2,1.44,3.41,3.41,0,0,1-1,.36,1.89,1.89,0,0,1-.82,0,1.2,1.2,0,0,1-.91-1.06c0-.27,0-.54,0-.81s0-.29,0-.44a.39.39,0,0,0,0-.15.25.25,0,0,0-.24.08l-.41.35a16.31,16.31,0,0,1-2.25,1.78,4.09,4.09,0,0,1-1,.49,3.34,3.34,0,0,1-.43.1.78.78,0,0,1-.57-.17,1.22,1.22,0,0,1-.47-1.12c0-.11,0-.23,0-.38l-.21.14a9.36,9.36,0,0,1-2.3,1.21,7,7,0,0,1-2.12.38,1.86,1.86,0,0,1-1.76-1,1.49,1.49,0,0,1-.2-.74,4,4,0,0,0-.08-.48.73.73,0,0,1,.37-.8.63.63,0,0,0,.21-.25,7.6,7.6,0,0,1,1.52-2.14A5,5,0,0,1,135,22.91a2.55,2.55,0,0,1,1-.06,1.41,1.41,0,0,1,.7.35.89.89,0,0,1,.25,1,2.38,2.38,0,0,1-.49.84,6.36,6.36,0,0,1-1.66,1.33,8.27,8.27,0,0,1-2.37.94l-.09,0c-.32.09-.49.2-.43.63a.84.84,0,0,0,.92.75,5.35,5.35,0,0,0,2.34-.57,8.37,8.37,0,0,0,1.91-1.3l.34-.31a3.38,3.38,0,0,0,.55-.64,7.25,7.25,0,0,1,3.49-2.76,4.63,4.63,0,0,1,1.29-.27,1.12,1.12,0,0,1,.69.18c.17.11.34.24.51.37s.22.13.37,0l.29-.31a.86.86,0,0,1,1.09.1.49.49,0,0,1,.07.53,5.45,5.45,0,0,1-.29.53c-.34.54-.69,1.08-1,1.63a4.41,4.41,0,0,0-.5,1.08,1.76,1.76,0,0,0-.09.85,1.11,1.11,0,0,0,.07.26.37.37,0,0,0,.42.21,2.13,2.13,0,0,0,.73-.26,6.46,6.46,0,0,0,1.24-.88,16.75,16.75,0,0,0,1.94-2,.78.78,0,0,0,.12-.22c.26-.7.51-1.4.76-2.1a1.84,1.84,0,0,1,.44-.73.73.73,0,0,1,.93,0,.43.43,0,0,1,.13.4,3.68,3.68,0,0,1-.15.57c-.23.61-.48,1.21-.72,1.81,0,.07-.05.14-.07.2l0,0,.14-.16a8.1,8.1,0,0,1,2-1.65,2.61,2.61,0,0,1,.93-.38,1.68,1.68,0,0,1,1.37.35.8.8,0,0,1,.32.7,7.53,7.53,0,0,1-.18,1.25,1,1,0,0,0,0,.31l.13-.14a7.78,7.78,0,0,1,1.88-1.63,3.87,3.87,0,0,1,1.25-.53,1.19,1.19,0,0,1,1.11.31.83.83,0,0,1,.27.82c-.11.49-.25,1-.38,1.46a11.26,11.26,0,0,0-.38,1.6,3.65,3.65,0,0,0,0,.66c0,.35.25.5.62.42a1.91,1.91,0,0,0,.65-.29,8,8,0,0,0,1.17-1c.62-.62,1.18-1.29,1.73-2a6.17,6.17,0,0,1,.48-.54.91.91,0,0,1,.24-.2.49.49,0,0,1,.74.16Zm-25.3,3a.36.36,0,0,0,.57.32c.18-.11.37-.21.55-.33a25.89,25.89,0,0,0,3.15-2.56,5.47,5.47,0,0,0,.45-.51c.21-.25.1-.28-.11-.32a.33.33,0,0,1-.3-.3c0-.22-.16-.31-.39-.3l-.14,0a2.67,2.67,0,0,0-.89.37,7.61,7.61,0,0,0-1.72,1.47,5.7,5.7,0,0,0-1,1.45,1.9,1.9,0,0,0-.19.69m-6.15-1.52a1.68,1.68,0,0,0,.63-.13,7.45,7.45,0,0,0,2.35-1.4,2.93,2.93,0,0,0,.37-.42.52.52,0,0,0,.09-.28.21.21,0,0,0-.21-.24,1.71,1.71,0,0,0-.32,0,2.11,2.11,0,0,0-.8.38,8.91,8.91,0,0,0-2,1.95.92.92,0,0,0-.09.13" style="fill:#951b1f"/><path d="M147.47,30.41a1.34,1.34,0,0,1-.39-.07,1.07,1.07,0,0,1-.75-1.3l.06-.24a7.37,7.37,0,0,1-1,.61,4.1,4.1,0,0,1-1.16.42,2.6,2.6,0,0,1-1.08,0,1.72,1.72,0,0,1-1.3-1.5,2.54,2.54,0,0,1,0-.39,18.22,18.22,0,0,1-2,1.57,5.08,5.08,0,0,1-1.12.55,3.1,3.1,0,0,1-.51.11,1.26,1.26,0,0,1-1-.28,1.65,1.65,0,0,1-.61-.91,9.19,9.19,0,0,1-1.8.85,7.59,7.59,0,0,1-2.3.42,2.41,2.41,0,0,1-2.25-1.31A2,2,0,0,1,130,28a1.88,1.88,0,0,0-.06-.37v0a1.2,1.2,0,0,1,.57-1.28.07.07,0,0,0,0-.05,8,8,0,0,1,1.62-2.28,5.49,5.49,0,0,1,2.71-1.5,3.05,3.05,0,0,1,1.26-.07,2.07,2.07,0,0,1,1,.48,1.32,1.32,0,0,1,.38,1.47,2.9,2.9,0,0,1-.58,1,6.5,6.5,0,0,1-1.79,1.43,8.53,8.53,0,0,1-2.54,1h-.05l-.07,0a.25.25,0,0,0,0,.08.34.34,0,0,0,.39.33,5,5,0,0,0,2.09-.52,8.14,8.14,0,0,0,1.78-1.21l.34-.3a4.29,4.29,0,0,0,.48-.56,7.74,7.74,0,0,1,3.73-3,5.06,5.06,0,0,1,1.46-.3,1.67,1.67,0,0,1,1,.26l.34.24a.8.8,0,0,1,.13-.13,1.2,1.2,0,0,1,.94-.31,1.33,1.33,0,0,1,1,.46.93.93,0,0,1,.12,1c-.11.22-.21.41-.31.57l-.51.81-.52.83a4.44,4.44,0,0,0-.46,1,1.42,1.42,0,0,0-.07.65v0a1.7,1.7,0,0,0,.42-.16,6,6,0,0,0,1.14-.82,16,16,0,0,0,1.88-2,.19.19,0,0,0,0-.08c.16-.42.31-.84.46-1.26l.3-.84a2.32,2.32,0,0,1,.57-.92,1.32,1.32,0,0,1,1.71,0,.88.88,0,0,1,.25.81,3.14,3.14,0,0,1-.17.65v0c.19-.14.39-.26.59-.38a3.17,3.17,0,0,1,1.12-.45,2.27,2.27,0,0,1,1.82.46A1.25,1.25,0,0,1,155,24V24a8.41,8.41,0,0,1,1-.71,4.26,4.26,0,0,1,1.43-.6,1.75,1.75,0,0,1,1.62.44,1.28,1.28,0,0,1,.4,1.26c-.11.49-.25,1-.38,1.47l-.07.24a11.15,11.15,0,0,0-.3,1.31,3.25,3.25,0,0,0,0,.54,1.81,1.81,0,0,0,.42-.21,7.18,7.18,0,0,0,1.08-.91c.61-.62,1.18-1.3,1.7-1.93.14-.17.3-.35.5-.57a1.6,1.6,0,0,1,.35-.28,1.11,1.11,0,0,1,.84-.17,1.06,1.06,0,0,1,.67.5l.06.11V25l0,.07a2.07,2.07,0,0,1-.51.76c-.16.19-.33.37-.49.55-.34.39-.7.79-1.06,1.17a12.16,12.16,0,0,1-2,1.78A5.07,5.07,0,0,1,159,30a2.37,2.37,0,0,1-1.1.12A1.68,1.68,0,0,1,156.51,29a2.62,2.62,0,0,1-.15-1.27,15.06,15.06,0,0,1,.53-2.54l0-.17v0a4.56,4.56,0,0,0-.86.72,13.8,13.8,0,0,0-2,2.43c-.08.14-.15.28-.23.44l-.15.29-.07.13c-.1.18-.19.36-.31.54a1.1,1.1,0,0,1-.7.5,1.2,1.2,0,0,1-.85-.23,2,2,0,0,1-.31-.28.93.93,0,0,1-.21-1l.12-.34c.14-.39.28-.79.41-1.19.21-.62.45-1.35.69-2.1a3.06,3.06,0,0,0,.07-.37c-.15.08-.28.15-.4.23a9.35,9.35,0,0,0-2.74,3,13.55,13.55,0,0,0-.95,1.86,1.3,1.3,0,0,1-.16.31,1,1,0,0,1-.84.46m.27-4,.21.75a.68.68,0,0,1,0,.4c0,.1-.08.2-.11.3s-.14.37-.2.56l0,0c-.09.26-.17.51-.24.77a.11.11,0,0,0,0,.14,1,1,0,0,0,0-.1,15.32,15.32,0,0,1,1-2,10,10,0,0,1,1.25-1.71l-.67-.34.16-.44.06-.15.21-.53c.17-.42.34-.85.5-1.28a2.72,2.72,0,0,0,.13-.49H150a1.39,1.39,0,0,0-.31.54l-.3.85c-.16.42-.31.84-.46,1.26a1.31,1.31,0,0,1-.21.36,14,14,0,0,1-.94,1.05M135.67,23.3a2.9,2.9,0,0,0-.57.08,4.48,4.48,0,0,0-2.18,1.22,7.09,7.09,0,0,0-1.42,2,1.05,1.05,0,0,1-.38.43c-.19.13-.18.23-.16.33v0a2.7,2.7,0,0,1,.08.52,1.1,1.1,0,0,0,.14.53,1.34,1.34,0,0,0,1.27.79q.38,0,.75-.06h-.38A1.36,1.36,0,0,1,131.37,28a.93.93,0,0,1,.72-1.12h-.7l.49-.78A.62.62,0,0,1,132,26a9.8,9.8,0,0,1,2.13-2.06,2.75,2.75,0,0,1,1-.46,1.76,1.76,0,0,1,.51,0,.7.7,0,0,1,.66.76,1,1,0,0,1-.05.27,1.6,1.6,0,0,0,.2-.42.43.43,0,0,0-.11-.52.92.92,0,0,0-.44-.22l-.21,0M137.73,27l-.13,1.44a.75.75,0,0,0,.29.71.28.28,0,0,0,.13.06,2.44,2.44,0,0,0,.34-.08,3.51,3.51,0,0,0,.73-.35,1,1,0,0,1-.74-.08.78.78,0,0,1-.42-.79,2.43,2.43,0,0,1,.22-.84,6,6,0,0,1,1.07-1.56,7.77,7.77,0,0,1,1.84-1.57,3,3,0,0,1,1.08-.44.64.64,0,0,1,.2,0,.85.85,0,0,1,.95.63.66.66,0,0,1,.5.37.68.68,0,0,1-.17.68,5.77,5.77,0,0,1-.5.56c-.25.24-.49.46-.75.69h.17l.36.07.06.37a.88.88,0,0,1,0,.2c0,.09,0,.17,0,.26a1.21,1.21,0,0,0,0,.19c0,.08,0,.16,0,.25a4.29,4.29,0,0,0,0,.5.71.71,0,0,0,.54.64,1.31,1.31,0,0,0,.56,0,2.22,2.22,0,0,0,.56-.17l-.17,0a.89.89,0,0,1-1-.5,1.34,1.34,0,0,1-.11-.37,2.33,2.33,0,0,1,.1-1.05,5.11,5.11,0,0,1,.55-1.2l.53-.83L145,24c.08-.14.17-.3.26-.48a.08.08,0,0,0,0-.06.37.37,0,0,0-.26,0l-.15.17-.12.12a.75.75,0,0,1-1.11.08l-.07-.05-.41-.3a.61.61,0,0,0-.35-.09,4.14,4.14,0,0,0-1.12.24,6.62,6.62,0,0,0-3.24,2.57,4.65,4.65,0,0,1-.61.72l-.25.23Zm19.51-3.08a.8.8,0,0,1,.48.14.78.78,0,0,1,.36.69,1.12,1.12,0,0,1,0,.29c0,.09,0,.18-.07.26l0,.17a15,15,0,0,0-.51,2.39,1.84,1.84,0,0,0,.09.85.64.64,0,0,0,.56.43,1,1,0,0,0,.55-.07,1.88,1.88,0,0,0,.3-.12h0a1.11,1.11,0,0,1-.89-.13.92.92,0,0,1-.38-.74,4.51,4.51,0,0,1,0-.73,9.44,9.44,0,0,1,.33-1.44l.06-.23c.13-.48.26-1,.38-1.44a.4.4,0,0,0-.14-.39.63.63,0,0,0-.61-.16,2.58,2.58,0,0,0-.74.27,1,1,0,0,1,.33-.05m-4.59-.34a1.07,1.07,0,0,1,.52.14.88.88,0,0,1,.47.86,4.31,4.31,0,0,1-.12.67c-.24.75-.48,1.49-.69,2.11-.14.41-.28.82-.42,1.21l-.12.33v0l0,0a.68.68,0,0,0,.12.12,4.79,4.79,0,0,0,.25-.45l.08-.14c.05-.09.09-.17.13-.26s.18-.35.28-.52c.22-.33.45-.67.7-1l-.12-1.14a1.35,1.35,0,0,1,0-.46,6.48,6.48,0,0,0,.16-1.16.34.34,0,0,0-.12-.32,1.15,1.15,0,0,0-.94-.24,2.23,2.23,0,0,0-.73.31l-.14.08.06,0,.08,0a1.08,1.08,0,0,1,.5-.12m-10.38.88a2.45,2.45,0,0,0-.62.28,7.12,7.12,0,0,0-1.6,1.37,5.2,5.2,0,0,0-.9,1.33l-.1.24.2-.12A23.65,23.65,0,0,0,142.34,25l.2-.2a.74.74,0,0,1-.27-.38m.51.08Zm9.92,0h0" style="fill:#fff3d9"/><path d="M127,24.52a.19.19,0,0,0,.22,0l.23-.2a11.42,11.42,0,0,1,1.4-1.19,2.85,2.85,0,0,1,1.05-.47,1.38,1.38,0,0,1,.67,0,.89.89,0,0,1,.69.83,2.41,2.41,0,0,1-.22,1.24.9.9,0,0,1-.65.54.58.58,0,0,1-.74-.67c0-.15.1-.3.15-.44s.08-.21,0-.3a.28.28,0,0,0-.37,0,3.36,3.36,0,0,0-.51.32A14.21,14.21,0,0,0,126.17,27a8.72,8.72,0,0,0-.75,1.33l-.48,1a1.49,1.49,0,0,1-.18.3c-.09.12-.15.13-.3.09a.69.69,0,0,1-.51-.85c.1-.34.23-.68.35-1a.65.65,0,0,0,.06-.24.81.81,0,0,0-.1.09A32.24,32.24,0,0,1,121,30.44a16.93,16.93,0,0,1-3.26,2,9.7,9.7,0,0,1-2.48.79,6,6,0,0,1-2.54-.07,3.49,3.49,0,0,1-2.69-2.71,5.69,5.69,0,0,1-.06-1.93,12.68,12.68,0,0,1,1.72-4.94,21.42,21.42,0,0,1,3.7-4.71,22,22,0,0,1,3.36-2.7,13.66,13.66,0,0,1,3.32-1.63,6.88,6.88,0,0,1,2.43-.39,2.94,2.94,0,0,1,1.73.55,1.74,1.74,0,0,1,.68,1.21,3.54,3.54,0,0,1-.37,1.86,8.13,8.13,0,0,1-1.51,2.17,9.42,9.42,0,0,1-1.85,1.53,3.11,3.11,0,0,1-1,.43,1.09,1.09,0,0,1-.62-.05.45.45,0,0,1-.33-.42.78.78,0,0,1,.51-.81,2.4,2.4,0,0,1,.38-.12,2.81,2.81,0,0,0,1-.44A5.53,5.53,0,0,0,125.33,17a2.12,2.12,0,0,0,.07-1,.83.83,0,0,0-.78-.68,3.38,3.38,0,0,0-1.05.06,9,9,0,0,0-2.68,1,18.44,18.44,0,0,0-3.21,2.24,21.59,21.59,0,0,0-4.43,5.08,12.88,12.88,0,0,0-1.58,3.56,7.1,7.1,0,0,0-.24,2.1A2.93,2.93,0,0,0,112,31a2.58,2.58,0,0,0,2.13,1.06,8,8,0,0,0,3.11-.63,14.69,14.69,0,0,0,3.45-2A25.88,25.88,0,0,0,125.37,25a1.74,1.74,0,0,0,.35-.62c.1-.28.18-.56.29-.84a3.23,3.23,0,0,1,.29-.59.64.64,0,0,1,.87-.15.35.35,0,0,1,.19.37,1.91,1.91,0,0,1-.11.41c-.08.23-.17.45-.26.68a.43.43,0,0,0,0,.25" style="fill:#951b1f"/><path d="M114.1,33.8a5.73,5.73,0,0,1-1.51-.19,4,4,0,0,1-3.07-3.07,6.14,6.14,0,0,1-.07-2.07,13.26,13.26,0,0,1,1.78-5.12A22.25,22.25,0,0,1,115,18.53a21.35,21.35,0,0,1,3.44-2.76,14.47,14.47,0,0,1,3.45-1.7,7.52,7.52,0,0,1,2.63-.41,3.41,3.41,0,0,1,2,.66,2.17,2.17,0,0,1,.87,1.53,3.94,3.94,0,0,1-.41,2.1,8.3,8.3,0,0,1-1.6,2.29,9.37,9.37,0,0,1-2,1.62,3.62,3.62,0,0,1-1.19.51,1.73,1.73,0,0,1-.93-.08.92.92,0,0,1-.66-.84,1.23,1.23,0,0,1,.81-1.27A2.08,2.08,0,0,1,122,20a2.3,2.3,0,0,0,.78-.35,5.16,5.16,0,0,0,2-2.83,1.88,1.88,0,0,0,.06-.79.34.34,0,0,0-.34-.29,2.85,2.85,0,0,0-.87.05,8.32,8.32,0,0,0-2.51,1A18,18,0,0,0,118,18.93a21.15,21.15,0,0,0-4.32,5,12,12,0,0,0-1.52,3.43,6.49,6.49,0,0,0-.24,2,2.58,2.58,0,0,0,.48,1.47,2,2,0,0,0,1.7.84A7.4,7.4,0,0,0,117,31a14.18,14.18,0,0,0,3.32-1.9,25.71,25.71,0,0,0,4.59-4.41,1.42,1.42,0,0,0,.27-.47l.06-.19c.07-.22.15-.45.23-.67a3.45,3.45,0,0,1,.35-.69,1.12,1.12,0,0,1,.72-.46,1.2,1.2,0,0,1,.9.18.82.82,0,0,1,.43.73,6.7,6.7,0,0,1,.6-.45,3.27,3.27,0,0,1,1.25-.55,1.89,1.89,0,0,1,.95,0,1.4,1.4,0,0,1,1.06,1.26,2.79,2.79,0,0,1-.27,1.47,1.4,1.4,0,0,1-1,.81,1.19,1.19,0,0,1-1.07-.26,1,1,0,0,1-.33-.83,13.26,13.26,0,0,0-2.45,2.58,8.17,8.17,0,0,0-.71,1.26l-.08.15c-.13.28-.27.55-.4.83a3.61,3.61,0,0,1-.23.36.77.77,0,0,1-.9.28,1.21,1.21,0,0,1-.9-1c-.7.63-1.37,1.19-2,1.69a18.61,18.61,0,0,1-3.36,2,10.22,10.22,0,0,1-2.63.83,8,8,0,0,1-1.27.1m10.21-19.18a6.71,6.71,0,0,0-2,.36,13.67,13.67,0,0,0-3.19,1.58,20.9,20.9,0,0,0-3.28,2.63,21.46,21.46,0,0,0-3.62,4.61,12.2,12.2,0,0,0-1.66,4.76,5.15,5.15,0,0,0,0,1.78,3,3,0,0,0,2.33,2.34,5.38,5.38,0,0,0,2.28.06,8.88,8.88,0,0,0,2.34-.74,13.66,13.66,0,0,0,1.85-1,13,13,0,0,1-1.91.94,8.73,8.73,0,0,1-3.34.66,3.12,3.12,0,0,1-2.57-1.27,3.42,3.42,0,0,1-.66-2,7.83,7.83,0,0,1,.26-2.22,13.18,13.18,0,0,1,1.63-3.7,22.49,22.49,0,0,1,4.53-5.2,18.51,18.51,0,0,1,3.31-2.3,9.49,9.49,0,0,1,2.85-1.06,4.08,4.08,0,0,1,1.23-.06,1.37,1.37,0,0,1,1.23,1.07,2.53,2.53,0,0,1-.08,1.2,6,6,0,0,1-2.41,3.36,3.24,3.24,0,0,1-1.18.53l-.28.09a.29.29,0,0,0-.2.34h0a.61.61,0,0,0,.3,0,2.73,2.73,0,0,0,.82-.36,8.75,8.75,0,0,0,1.74-1.45,7.37,7.37,0,0,0,1.42-2,3,3,0,0,0,.33-1.64,1.25,1.25,0,0,0-.49-.88,2.45,2.45,0,0,0-1.4-.44h-.19M125,26.33l-.07,1.22a1.3,1.3,0,0,1-.08.35v0c0,.1-.07.2-.11.3s-.16.47-.23.7a.17.17,0,0,0,0,.1c.13-.26.26-.52.38-.78l.08-.16a10,10,0,0,1,.79-1.4A14.83,14.83,0,0,1,127.14,25a.81.81,0,0,1-.43-.07l-.21-.1-.06-.21a.88.88,0,0,1,0-.53l.11-.27.15-.4a1,1,0,0,0,.07-.25h0l0,0a2.41,2.41,0,0,0-.25.51c-.08.19-.14.39-.21.61l-.06.2a2.5,2.5,0,0,1-.44.77c-.36.44-.73.86-1.1,1.26Zm4.6-3a.81.81,0,0,1,.55.21.67.67,0,0,1,.16.76v0a1.42,1.42,0,0,1-.05.16l-.08.24s0,.08,0,.09a.09.09,0,0,0,.08,0c.09,0,.19-.06.28-.26a1.9,1.9,0,0,0,.18-1,.41.41,0,0,0-.34-.4.69.69,0,0,0-.38,0,1.73,1.73,0,0,0-.55.2h.15" style="fill:#fff3d9"/><path d="M84.07,28.74a20.72,20.72,0,0,1,1.87-6.62,21.32,21.32,0,0,1,3.82-5.87l-.18,0a19.48,19.48,0,0,1-2.64.62,11,11,0,0,1-2.14.16,4.54,4.54,0,0,1-2-.5,3.52,3.52,0,0,1-.5-.36.83.83,0,0,1-.26-.45.7.7,0,0,1,.88-.85.83.83,0,0,1,.45.26,2.09,2.09,0,0,0,1.19.71,4.36,4.36,0,0,0,.63,0l1-.07a15.06,15.06,0,0,0,2.42-.5c.91-.25,1.81-.52,2.72-.78a11.19,11.19,0,0,1,2.24-.4,4.92,4.92,0,0,1,1.83.13,1.77,1.77,0,0,1,1,.68,1.17,1.17,0,0,1,0,1.28.79.79,0,0,1-.52.4.63.63,0,0,1-.82-.54V16a.77.77,0,0,0-.49-.66,1.91,1.91,0,0,0-.62-.13,3.69,3.69,0,0,0-1.19.13l-.82.23a1.45,1.45,0,0,1-.63,1,10.42,10.42,0,0,0-2.31,2.7,27.16,27.16,0,0,0-2.73,5.54,14.1,14.1,0,0,0-.66,2.39c-.06.34-.09.69-.12,1a.51.51,0,0,0,0,.17h.17a13,13,0,0,1,2.17-.3,5.47,5.47,0,0,1,1.89.2,2.24,2.24,0,0,1,.75.39,1,1,0,0,1,.32,1.13.76.76,0,0,1-.88.44.62.62,0,0,1-.47-.54.44.44,0,0,0-.35-.42,2.69,2.69,0,0,0-.75-.14,6.58,6.58,0,0,0-2,.19l-.51.12a1.18,1.18,0,0,0-.53.25.88.88,0,0,1-.92.12.61.61,0,0,0-.3,0A14.84,14.84,0,0,1,81.8,30a5,5,0,0,1-1.55-.17,1.78,1.78,0,0,1-.66-.33,1,1,0,0,1-.37-.79.49.49,0,0,1,.13-.33.84.84,0,0,1,1.17-.1l.19.18a1.27,1.27,0,0,0,1,.42,14.34,14.34,0,0,0,1.73-.1l.65-.07" style="fill:#951b1f"/><path d="M90.14,30.72a1.63,1.63,0,0,1-.31,0,1.12,1.12,0,0,1-.86-1h0a2.36,2.36,0,0,0-.6-.11,5.76,5.76,0,0,0-1.85.18l-.2,0-.32.08a.52.52,0,0,0-.28.12,1.41,1.41,0,0,1-1.47.23h0a15.06,15.06,0,0,1-2.4.25,5.57,5.57,0,0,1-1.73-.19,2.35,2.35,0,0,1-.85-.43,1.43,1.43,0,0,1-.54-1.16,1,1,0,0,1,.23-.62,1.41,1.41,0,0,1,1-.48,1.48,1.48,0,0,1,1,.32,2.72,2.72,0,0,1,.24.24.67.67,0,0,0,.57.23,11.8,11.8,0,0,0,1.65-.09l.23,0a21.09,21.09,0,0,1,1.87-6.36,22.76,22.76,0,0,1,2.87-4.8c-.45.1-.87.19-1.29.25a11.07,11.07,0,0,1-2.25.16A5.11,5.11,0,0,1,82.54,17a3,3,0,0,1-.59-.43,1.3,1.3,0,0,1-.42-.68,1.1,1.1,0,0,1,.32-1.13A1.35,1.35,0,0,1,83,14.44a1.41,1.41,0,0,1,.75.42,1.55,1.55,0,0,0,.87.54,2.2,2.2,0,0,0,.51,0c.32,0,.64,0,1-.07a13.22,13.22,0,0,0,2.32-.47l1.37-.39,1.35-.39a11.48,11.48,0,0,1,2.36-.43,5.69,5.69,0,0,1,2,.16,2.26,2.26,0,0,1,1.32.9,1.61,1.61,0,0,1,.05,1.75,1.34,1.34,0,0,1-.86.64,1.31,1.31,0,0,1-1-.15,1.09,1.09,0,0,1-.5-.82v-.09a.09.09,0,0,0,0,0,.27.27,0,0,0-.19-.26,1.12,1.12,0,0,0-.4-.09,3.76,3.76,0,0,0-1,.11l-.51.15a2,2,0,0,1-.74,1,9.73,9.73,0,0,0-2.2,2.59,27.23,27.23,0,0,0-2.68,5.44,13.69,13.69,0,0,0-.64,2.31c0,.18,0,.36-.07.54a13.1,13.1,0,0,1,1.74-.2,6,6,0,0,1,2.1.22,3,3,0,0,1,.93.49,1.42,1.42,0,0,1,.46,1.64,1.27,1.27,0,0,1-1.21.79M88,28.61l.46,0a3.34,3.34,0,0,1,.9.18.94.94,0,0,1,.69.85.11.11,0,0,0,.07.09.22.22,0,0,0,.23-.13.51.51,0,0,0-.16-.61,1.74,1.74,0,0,0-.58-.29,4.86,4.86,0,0,0-1.69-.17,11.76,11.76,0,0,0-2.07.28.79.79,0,0,1-.2,0h0l-.55,0,0-.5v0a1.15,1.15,0,0,1,0-.2l0-.27c0-.25.06-.52.1-.79a14.51,14.51,0,0,1,.68-2.46A27.81,27.81,0,0,1,88.59,19,10.64,10.64,0,0,1,91,16.17a.94.94,0,0,0,.44-.67l0-.32.61-.18.56-.15A3.94,3.94,0,0,1,94,14.7a2.1,2.1,0,0,1,.82.18,1.22,1.22,0,0,1,.79,1,.41.41,0,0,0,0,.11v0a.1.1,0,0,0,0,.1.1.1,0,0,0,.09,0A.26.26,0,0,0,96,16a.71.71,0,0,0,0-.81,1.16,1.16,0,0,0-.72-.47,4.44,4.44,0,0,0-1.62-.11,10.73,10.73,0,0,0-2.13.39l-1.33.38-1.38.4a15.61,15.61,0,0,1-2.52.51c-.34,0-.69.06-1,.07a3.94,3.94,0,0,1-.75,0,2.61,2.61,0,0,1-1.5-.88.29.29,0,0,0-.16-.1.23.23,0,0,0-.2,0,.2.2,0,0,0,0,.21.42.42,0,0,0,.11.22,3.07,3.07,0,0,0,.4.29,3.82,3.82,0,0,0,1.74.43,9.68,9.68,0,0,0,2-.15,18.15,18.15,0,0,0,2.56-.6l.16,0h.06l1.58-.33-1,1.11a21,21,0,0,0-3.72,5.75,19.84,19.84,0,0,0-1.83,6.47l0,.39-1.09.12a12.37,12.37,0,0,1-1.8.1,1.8,1.8,0,0,1-1.39-.6.74.74,0,0,0-.13-.12.3.3,0,0,0-.2-.07.3.3,0,0,0-.19.1.08.08,0,0,0,0,0,.53.53,0,0,0,.19.43,1.32,1.32,0,0,0,.46.23,4.59,4.59,0,0,0,1.38.14A14.06,14.06,0,0,0,84,29.31a1.05,1.05,0,0,1,.58,0c.26.08.32,0,.37,0a1.63,1.63,0,0,1,.78-.38L86,28.9l.22-.06A8.18,8.18,0,0,1,88,28.61" style="fill:#fff3d9"/><path d="M98.49,27.65l-.25.18a10.79,10.79,0,0,1-2.53,1.41,5.33,5.33,0,0,1-2,.39A1.72,1.72,0,0,1,92,28.1a2.79,2.79,0,0,1,.29-1.39,7,7,0,0,1,1.5-2.11,6.78,6.78,0,0,1,1.8-1.33,3.81,3.81,0,0,1,1.55-.42,1.57,1.57,0,0,1,1.4.91.83.83,0,0,1,0,.56,1.85,1.85,0,0,1-1,1.12.94.94,0,0,1-.47.09.32.32,0,0,1-.32-.24.45.45,0,0,1,.2-.58,3.92,3.92,0,0,0,.32-.25.41.41,0,0,0,.13-.19A.23.23,0,0,0,97.1,24a1.74,1.74,0,0,0-.45.06,3.08,3.08,0,0,0-1,.5,5.94,5.94,0,0,0-2,2.27,2.09,2.09,0,0,0-.24.95,1.31,1.31,0,0,0,.09.47.64.64,0,0,0,.67.41,3.93,3.93,0,0,0,1.32-.27,8.4,8.4,0,0,0,2.08-1.14,12.28,12.28,0,0,0,2-1.75c.15-.16.27-.34.41-.51a5.78,5.78,0,0,1,2-1.68,4.22,4.22,0,0,1,1.71-.45,1.4,1.4,0,0,1,1.13.47.83.83,0,0,1,.19.81,2.38,2.38,0,0,1-.44.85,5.9,5.9,0,0,1-1.44,1.23,8,8,0,0,1-2.68,1.12h0c-.41.11-.52.27-.47.66a.84.84,0,0,0,.87.73,5.09,5.09,0,0,0,2.21-.48,8.76,8.76,0,0,0,2.23-1.51,16.11,16.11,0,0,0,1.5-1.59,5.37,5.37,0,0,1,.58-.59.6.6,0,0,1,.45-.15.34.34,0,0,1,.35.32.6.6,0,0,1-.1.43,3.91,3.91,0,0,1-.3.41A17,17,0,0,1,105.08,28a8.72,8.72,0,0,1-2.74,1.42,7.46,7.46,0,0,1-1.87.31,1.94,1.94,0,0,1-1.78-1.11,1.67,1.67,0,0,1-.18-.72c0-.07,0-.13,0-.25m1.83-1.25a1.67,1.67,0,0,0,.62-.12,7.26,7.26,0,0,0,2-1.12,5.77,5.77,0,0,0,.63-.58.79.79,0,0,0,.18-.29.25.25,0,0,0-.26-.36,1.22,1.22,0,0,0-.27,0,2.25,2.25,0,0,0-.81.39,9.74,9.74,0,0,0-2,1.94l-.08.13" style="fill:#951b1f"/><path d="M100.39,30.21a2.46,2.46,0,0,1-2.19-1.39,1.53,1.53,0,0,1-.11-.27,10.58,10.58,0,0,1-2.17,1.14,6.08,6.08,0,0,1-2.2.43,2.22,2.22,0,0,1-2.26-2,3.24,3.24,0,0,1,.32-1.61,7.53,7.53,0,0,1,1.6-2.25,7.3,7.3,0,0,1,1.94-1.43,4.45,4.45,0,0,1,1.79-.49A2.08,2.08,0,0,1,99,23.6a1.27,1.27,0,0,1,0,.86,2.3,2.3,0,0,1-1.31,1.41A1.4,1.4,0,0,1,97,26a.84.84,0,0,1-.79-.57,1,1,0,0,1,0-.68L96,24.9A5.5,5.5,0,0,0,94.11,27a1.72,1.72,0,0,0-.2.75A.78.78,0,0,0,94,28c0,.08.06.1.16.1a3.38,3.38,0,0,0,1.13-.24,8.13,8.13,0,0,0,1.95-1.07,11.44,11.44,0,0,0,1.89-1.68,2.13,2.13,0,0,0,.26-.32s.09-.11.14-.17a6.43,6.43,0,0,1,2.2-1.82,4.61,4.61,0,0,1,1.93-.5,2,2,0,0,1,1.57.63,1.28,1.28,0,0,1,.3,1.23,2.6,2.6,0,0,1-.53,1,6,6,0,0,1-1.56,1.35,8.79,8.79,0,0,1-2.84,1.19h0l-.09,0a.46.46,0,0,0,0,.1.32.32,0,0,0,.34.31,4.48,4.48,0,0,0,2-.44,7.77,7.77,0,0,0,2.09-1.41,14,14,0,0,0,1.45-1.54,7.47,7.47,0,0,1,.62-.64,1.14,1.14,0,0,1,.9-.29.87.87,0,0,1,.83.75,1.07,1.07,0,0,1-.18.74,3.87,3.87,0,0,1-.35.45,16.87,16.87,0,0,1-2.7,2.54,9.39,9.39,0,0,1-2.91,1.5,7.9,7.9,0,0,1-2,.33h-.1M99,26.72l.06,1a1,1,0,0,1,0,.16,1.43,1.43,0,0,0,.13.55,1.4,1.4,0,0,0,1.27.81c.25,0,.48,0,.71-.06h-.38A1.36,1.36,0,0,1,99.38,28a1,1,0,0,1,.74-1.15h-.69l.45-.75A.77.77,0,0,1,100,26a9.86,9.86,0,0,1,2.11-2,2.59,2.59,0,0,1,1-.48,1.59,1.59,0,0,1,.43,0,.89.89,0,0,1,.64.33.71.71,0,0,1,.07.68h0a1.4,1.4,0,0,0,.2-.46.39.39,0,0,0-.06-.4.89.89,0,0,0-.71-.3,3.79,3.79,0,0,0-1.47.39,5.44,5.44,0,0,0-1.84,1.54,1,1,0,0,0-.13.16,4.73,4.73,0,0,1-.31.38,10.77,10.77,0,0,1-1,.95m-1.79-3.39h0a3.21,3.21,0,0,0-1.32.37,6.2,6.2,0,0,0-1.66,1.23,6.58,6.58,0,0,0-1.41,2,2.37,2.37,0,0,0-.25,1.18,1.2,1.2,0,0,0,1.22,1.08,4,4,0,0,0,.69-.06l-.28,0A1.21,1.21,0,0,1,93,28.37a1.86,1.86,0,0,1-.12-.63,2.6,2.6,0,0,1,.29-1.15,6.4,6.4,0,0,1,2.18-2.45,3.57,3.57,0,0,1,1.19-.59,2.54,2.54,0,0,1,.6-.08.85.85,0,0,1,.63.28.69.69,0,0,1,.13.65.9.9,0,0,1-.17.3,1.19,1.19,0,0,0,.31-.52.35.35,0,0,0,0-.26,1,1,0,0,0-.84-.59m3.36,4.44h0" style="fill:#fff3d9"/><path d="M70.92,29.73a2.19,2.19,0,0,1-1.66-.65,1.21,1.21,0,0,1-.3-.61.72.72,0,0,1,.12-.55.66.66,0,0,1,.77-.25.41.41,0,0,1,.31.39,2,2,0,0,0,0,.24.63.63,0,0,0,.51.48,1,1,0,0,0,1.36-1.18.77.77,0,0,0-.33-.48,4.59,4.59,0,0,0-.52-.33l-.53-.29-.25-.16A1.09,1.09,0,0,1,70,25.1,2.43,2.43,0,0,1,70.64,24,4.82,4.82,0,0,1,73,22.7a2.33,2.33,0,0,1,.53-.07,1.32,1.32,0,0,1,1.06.48.88.88,0,0,1,.2.66,2.27,2.27,0,0,1-.31.94,1.44,1.44,0,0,1-.27.34.69.69,0,0,1-.83.07.48.48,0,0,1-.14-.7,1.9,1.9,0,0,1,.25-.24c.13-.11.15-.15,0-.28a.48.48,0,0,0-.54-.18,3.16,3.16,0,0,0-.43.16,2.89,2.89,0,0,0-1,.74,1.2,1.2,0,0,0-.27.51.46.46,0,0,0,.15.48,1.2,1.2,0,0,0,.26.18c.15.09.31.17.47.25l.46.26a1.69,1.69,0,0,1,.15,2.82,2.78,2.78,0,0,1-1.42.57l-.45,0" style="fill:#951b1f"/><path d="M70.94,30.21h0a2.68,2.68,0,0,1-2-.82,1.61,1.61,0,0,1-.43-.85,1.17,1.17,0,0,1,.19-.87A1.23,1.23,0,0,1,70,27.21a.91.91,0,0,1,.66.82.79.79,0,0,0,0,.17c0,.08,0,.1.11.11a.54.54,0,0,0,.7-.64.29.29,0,0,0-.13-.17,4.8,4.8,0,0,0-.48-.3L70.64,27l-.24-.13-.3-.19A1.53,1.53,0,0,1,69.44,25a2.84,2.84,0,0,1,.8-1.33,5.43,5.43,0,0,1,2.61-1.43,3.51,3.51,0,0,1,.65-.09,1.87,1.87,0,0,1,1.5.68,1.26,1.26,0,0,1,.31,1,2.56,2.56,0,0,1-.37,1.12,1.73,1.73,0,0,1-.36.44,1.26,1.26,0,0,1-1.51.15.93.93,0,0,1-.41-1.14,2.22,2.22,0,0,0-.67.53.8.8,0,0,0-.17.31v0l.17.12.25.14.21.1h0l.47.26A2.16,2.16,0,0,1,74,27.58a2.23,2.23,0,0,1-.85,1.9,3.41,3.41,0,0,1-1.71.69l-.35,0h-.15Zm-1.32-2.09a.1.1,0,0,0-.08.05.25.25,0,0,0-.05.22.68.68,0,0,0,.18.37,1.4,1.4,0,0,0,.58.38,1.09,1.09,0,0,1-.58-.73c0-.11,0-.21,0-.29h0m3.94-5h0a2.7,2.7,0,0,0-.41.06A4.28,4.28,0,0,0,71,24.32a1.85,1.85,0,0,0-.54.89.6.6,0,0,0,.27.74l.2.14.22.12.32.17a5.32,5.32,0,0,1,.57.36,1.3,1.3,0,0,1,.52.78,1.5,1.5,0,0,1-.52,1.42l-.17.12a2.05,2.05,0,0,0,.54-.31,1.31,1.31,0,0,0,.5-1.11,1.21,1.21,0,0,0-.6-.94l-.42-.24h0l-.18-.1-.3-.16a2.14,2.14,0,0,1-.34-.24.88.88,0,0,1-.3-.92,1.65,1.65,0,0,1,.36-.71,3.45,3.45,0,0,1,1.18-.88,3.59,3.59,0,0,1,.51-.2,1.06,1.06,0,0,1,1.15.38.6.6,0,0,1-.14.91l0,0a.79.79,0,0,0-.13.12l0,0a.11.11,0,0,0,.14,0,1.21,1.21,0,0,0,.2-.24,1.79,1.79,0,0,0,.23-.75.41.41,0,0,0-.08-.31.77.77,0,0,0-.6-.3" style="fill:#fff3d9"/><path d="M69.41,16a1.44,1.44,0,0,1-.19.67A4.16,4.16,0,0,1,68,18a.88.88,0,0,1-.21.12c-.22.07-.38,0-.38-.24a1.46,1.46,0,0,1,.07-.3c.07-.17.15-.33.22-.5a1.62,1.62,0,0,0,.12-.87.9.9,0,0,1,.16-.74.86.86,0,0,1,1-.26.58.58,0,0,1,.35.4c0,.11,0,.23.06.34" style="fill:#951b1f"/><path d="M67.64,18.67a.84.84,0,0,1-.44-.13.7.7,0,0,1-.33-.64,1.26,1.26,0,0,1,.1-.44,3,3,0,0,1,.15-.36.77.77,0,0,0,.07-.16,1.15,1.15,0,0,0,.09-.63,1.28,1.28,0,0,1,.25-1.07,1.43,1.43,0,0,1,1.7-.43,1.09,1.09,0,0,1,.64.72c0,.11,0,.21.06.29a.28.28,0,0,0,0,.09V16a2,2,0,0,1-.25.88,4.73,4.73,0,0,1-1.38,1.55,1.33,1.33,0,0,1-.35.19,1,1,0,0,1-.33.06m1-3a.27.27,0,0,0-.23.13.42.42,0,0,0-.07.39,1.92,1.92,0,0,1-.09.95,3.55,3.55,0,0,0,.49-.68,1,1,0,0,0,.13-.43V16a.84.84,0,0,0,0-.18.15.15,0,0,0,0-.08.35.35,0,0,0-.14,0" style="fill:#fff3d9"/><path d="M47.24,23.64a2.1,2.1,0,0,0,.06-.24,4.9,4.9,0,0,1,.78-2.06A10.84,10.84,0,0,1,50.24,19a19.94,19.94,0,0,1,4.08-2.61,22.34,22.34,0,0,1,4.92-1.75,17.33,17.33,0,0,1,2.86-.43,10.39,10.39,0,0,1,1.85,0,3.88,3.88,0,0,1,1.56.47,2,2,0,0,1,1,1.56,3.4,3.4,0,0,1-.26,1.6A6.8,6.8,0,0,1,64.8,20a10.85,10.85,0,0,1-2.86,2.15l-.23.13a4.43,4.43,0,0,1,1.95,1.49l1-.15a28,28,0,0,1,2.9-.33,2.1,2.1,0,0,1,.79.1c.25.1.37.25.36.46a.42.42,0,0,1-.31.41,2.71,2.71,0,0,1-.58.12c-.46,0-.93,0-1.4.08-.72.07-1.43.17-2.15.25l-.1,0,0,.17A4.72,4.72,0,0,1,64,27.64a9.22,9.22,0,0,1-1.71,2.91,17.45,17.45,0,0,1-5,4.06,16.15,16.15,0,0,1-3.87,1.58,9.42,9.42,0,0,1-2.89.34,3.69,3.69,0,0,1-2.11-.69,2.42,2.42,0,0,1-1-2.43,4.57,4.57,0,0,1,1.08-2.23,11.88,11.88,0,0,1,2.25-2.05,24.79,24.79,0,0,1,2.38-1.54.43.43,0,0,0,.24-.3,20.66,20.66,0,0,1,1.51-3.76,31.21,31.21,0,0,1,2.65-4.26A13.25,13.25,0,0,1,59,17.5c.24-.22.51-.42.76-.63l.18-.1a.81.81,0,0,1,1.13.37.47.47,0,0,1,0,.47,3.49,3.49,0,0,1-.32.35c-.45.42-.91.83-1.35,1.25A15.28,15.28,0,0,0,57,22.16a24.45,24.45,0,0,0-1.71,3.19c-.17.39-.32.79-.47,1.19l0,.11c.81-.36,1.6-.72,2.4-1a21.11,21.11,0,0,1,2.47-.84c.84-.24,1.7-.45,2.56-.68L62.12,24a2.49,2.49,0,0,0-1.29-.6,5.6,5.6,0,0,0-2.08,0,4.87,4.87,0,0,1-.65.05c-.34,0-.47-.17-.45-.47a.63.63,0,0,1,.45-.61,5,5,0,0,1,.83-.27,10.13,10.13,0,0,0,2.6-1,8.54,8.54,0,0,0,2.37-1.83,4.46,4.46,0,0,0,1-1.79,2.5,2.5,0,0,0,.1-.94,1.19,1.19,0,0,0-.69-1,3.25,3.25,0,0,0-1.14-.29,10.4,10.4,0,0,0-3.43.31,21.93,21.93,0,0,0-5.61,2.21,18.75,18.75,0,0,0-3.38,2.32,8.67,8.67,0,0,0-1.33,1.38,3.54,3.54,0,0,0-.68,1.32,1,1,0,0,0,.07.76A.7.7,0,0,1,49,24a.84.84,0,0,1-.82.64.71.71,0,0,1-.82-.6,2.33,2.33,0,0,0-.07-.25Zm5.66,5.28-.17.09c-.55.38-1.11.75-1.64,1.15a9.58,9.58,0,0,0-1.79,1.69,3.51,3.51,0,0,0-.78,1.58,1.51,1.51,0,0,0,.37,1.33,2.12,2.12,0,0,0,.92.53,4.94,4.94,0,0,0,2.06.09,10,10,0,0,0,2.23-.58,16.4,16.4,0,0,0,3.53-1.89,17.31,17.31,0,0,0,3.59-3.29,8.92,8.92,0,0,0,1.31-2.14,3.85,3.85,0,0,0,.3-2.14c0-.1,0-.2-.08-.32l-.72.15a28.13,28.13,0,0,0-4.42,1.33A34.42,34.42,0,0,0,54.49,28c-.07,0-.11.08-.11.15l0,.16a12,12,0,0,0-.08,1.58,1.74,1.74,0,0,1-.05.39.31.31,0,0,1-.34.23,1.09,1.09,0,0,1-.26,0,1.11,1.11,0,0,1-.54-.3.69.69,0,0,1-.23-.57c0-.22,0-.43,0-.69" style="fill:#951b1f"/><path d="M163.76,24.93a2,2,0,0,1-.41.6c-.52.57-1,1.15-1.55,1.71a11.26,11.26,0,0,1-1.94,1.7,4.24,4.24,0,0,1-1.05.56,1.67,1.67,0,0,1-.83.09,1.15,1.15,0,0,1-1-.74,2.25,2.25,0,0,1-.12-1.06,16.2,16.2,0,0,1,.54-2.56c0-.1.06-.21.08-.31a.69.69,0,0,0,0-.2c0-.28-.18-.41-.46-.32a1.62,1.62,0,0,0-.4.19,5.15,5.15,0,0,0-1,.81,14.49,14.49,0,0,0-2.05,2.52c-.15.24-.27.51-.4.76s-.22.43-.36.63-.44.36-.77.13a2.09,2.09,0,0,1-.22-.2.48.48,0,0,1-.11-.52l.54-1.53c.23-.7.46-1.4.68-2.1a2.94,2.94,0,0,0,.1-.58.46.46,0,0,0-.68-.42,5.51,5.51,0,0,0-.58.34A9.59,9.59,0,0,0,149,27.56a13.88,13.88,0,0,0-1,1.92.94.94,0,0,1-.12.22.46.46,0,0,1-.58.19.61.61,0,0,1-.42-.74c.07-.28.17-.56.27-.84s.2-.57.31-.86a.19.19,0,0,0,0-.13l-.26.23a10.8,10.8,0,0,1-2,1.44,3.41,3.41,0,0,1-1,.36,1.89,1.89,0,0,1-.82,0,1.2,1.2,0,0,1-.91-1.06c0-.27,0-.54,0-.8s0-.3,0-.45a.39.39,0,0,0,0-.15.25.25,0,0,0-.24.08l-.41.35a14.93,14.93,0,0,1-2.25,1.78,4.09,4.09,0,0,1-1,.49,3.34,3.34,0,0,1-.43.1.78.78,0,0,1-.57-.17,1.21,1.21,0,0,1-.47-1.12c0-.11,0-.22,0-.38l-.21.14a9,9,0,0,1-2.3,1.21,6.67,6.67,0,0,1-2.12.38,1.86,1.86,0,0,1-1.76-1,1.49,1.49,0,0,1-.2-.74,4,4,0,0,0-.08-.48.73.73,0,0,1,.37-.8.63.63,0,0,0,.21-.25,7.6,7.6,0,0,1,1.52-2.14A5,5,0,0,1,135,22.91a2.55,2.55,0,0,1,1-.06,1.41,1.41,0,0,1,.7.35.89.89,0,0,1,.25,1,2.38,2.38,0,0,1-.49.84,6,6,0,0,1-1.66,1.33,8,8,0,0,1-2.37.94l-.09,0c-.32.08-.49.19-.43.62a.85.85,0,0,0,.92.76,5.5,5.5,0,0,0,2.34-.58,8.66,8.66,0,0,0,1.91-1.29l.34-.32a3.38,3.38,0,0,0,.55-.64,7.25,7.25,0,0,1,3.49-2.76,4.63,4.63,0,0,1,1.29-.27,1.19,1.19,0,0,1,.69.18c.17.11.34.24.51.37s.22.13.37,0l.29-.3a.84.84,0,0,1,1.09.1.47.47,0,0,1,.07.52,5.45,5.45,0,0,1-.29.53l-1,1.63a4.41,4.41,0,0,0-.5,1.08,1.76,1.76,0,0,0-.09.85,1.11,1.11,0,0,0,.07.26.36.36,0,0,0,.42.21,2.34,2.34,0,0,0,.73-.25,7,7,0,0,0,1.24-.89,17.44,17.44,0,0,0,1.94-2,1.19,1.19,0,0,0,.12-.22c.26-.7.51-1.41.76-2.11a1.8,1.8,0,0,1,.44-.72.71.71,0,0,1,.93,0,.43.43,0,0,1,.13.4,3.68,3.68,0,0,1-.15.57c-.23.61-.48,1.21-.72,1.82l-.07.19,0,0,.14-.16a8.1,8.1,0,0,1,2-1.65,2.61,2.61,0,0,1,.93-.38,1.71,1.71,0,0,1,1.37.35.8.8,0,0,1,.32.71,7.57,7.57,0,0,1-.18,1.24,1,1,0,0,0,0,.31l.13-.14a7.78,7.78,0,0,1,1.88-1.63,4.1,4.1,0,0,1,1.25-.53,1.19,1.19,0,0,1,1.11.31.83.83,0,0,1,.27.82c-.11.49-.25,1-.38,1.46a11.08,11.08,0,0,0-.38,1.61,3.61,3.61,0,0,0,0,.66c0,.34.25.49.62.41a1.91,1.91,0,0,0,.65-.29,8,8,0,0,0,1.17-1c.62-.62,1.18-1.29,1.73-2a6.17,6.17,0,0,1,.48-.54.91.91,0,0,1,.24-.2.49.49,0,0,1,.74.16Zm-25.3,3a.36.36,0,0,0,.57.32c.18-.11.37-.21.55-.33a25.89,25.89,0,0,0,3.15-2.56,5.47,5.47,0,0,0,.45-.51c.21-.25.1-.28-.11-.32s-.28-.11-.3-.3-.16-.31-.39-.3l-.14,0a2.67,2.67,0,0,0-.89.37,7.61,7.61,0,0,0-1.72,1.47,5.7,5.7,0,0,0-1,1.45,1.9,1.9,0,0,0-.19.69m-6.15-1.52a1.68,1.68,0,0,0,.63-.13,7.45,7.45,0,0,0,2.35-1.4,3.51,3.51,0,0,0,.37-.41.58.58,0,0,0,.09-.29.21.21,0,0,0-.21-.24,1.15,1.15,0,0,0-.32,0,2,2,0,0,0-.8.37,8.91,8.91,0,0,0-2,1.95.92.92,0,0,0-.09.13" style="fill:#951b1f"/><path d="M127,24.52a.19.19,0,0,0,.22,0l.23-.19a9.9,9.9,0,0,1,1.4-1.19,2.87,2.87,0,0,1,1.05-.48,1.38,1.38,0,0,1,.67,0,.89.89,0,0,1,.69.83,2.46,2.46,0,0,1-.22,1.25.89.89,0,0,1-.65.53.58.58,0,0,1-.74-.67c0-.15.1-.29.15-.44s.08-.21,0-.3a.3.3,0,0,0-.37,0,3.36,3.36,0,0,0-.51.32A14.21,14.21,0,0,0,126.17,27a8.72,8.72,0,0,0-.75,1.33l-.48,1a1.75,1.75,0,0,1-.18.29c-.09.12-.15.13-.3.09a.69.69,0,0,1-.51-.84c.1-.35.23-.69.35-1a.65.65,0,0,0,.06-.24.81.81,0,0,0-.1.09A32.24,32.24,0,0,1,121,30.44a16.93,16.93,0,0,1-3.26,2,9.32,9.32,0,0,1-2.48.79,6,6,0,0,1-2.54-.07,3.49,3.49,0,0,1-2.69-2.71,5.69,5.69,0,0,1-.06-1.93,12.58,12.58,0,0,1,1.72-4.93,21.24,21.24,0,0,1,3.7-4.72,22,22,0,0,1,3.36-2.7,14,14,0,0,1,3.32-1.63,6.88,6.88,0,0,1,2.43-.39,2.94,2.94,0,0,1,1.73.55,1.76,1.76,0,0,1,.68,1.21,3.54,3.54,0,0,1-.37,1.86,8.13,8.13,0,0,1-1.51,2.17,9.42,9.42,0,0,1-1.85,1.53,3.11,3.11,0,0,1-1,.43,1.09,1.09,0,0,1-.62-.05.45.45,0,0,1-.33-.42.76.76,0,0,1,.51-.8,1.71,1.71,0,0,1,.38-.13,2.81,2.81,0,0,0,1-.44A5.5,5.5,0,0,0,125.33,17a2.12,2.12,0,0,0,.07-1,.83.83,0,0,0-.78-.68,3.38,3.38,0,0,0-1.05.06,9,9,0,0,0-2.68,1,18.44,18.44,0,0,0-3.21,2.24,21.59,21.59,0,0,0-4.43,5.08,12.81,12.81,0,0,0-1.58,3.57,7,7,0,0,0-.24,2.09A2.93,2.93,0,0,0,112,31a2.58,2.58,0,0,0,2.13,1.06,8,8,0,0,0,3.11-.63,15,15,0,0,0,3.45-2A26.58,26.58,0,0,0,125.37,25a1.87,1.87,0,0,0,.35-.63c.1-.28.18-.56.29-.84a3.23,3.23,0,0,1,.29-.59.64.64,0,0,1,.87-.15.35.35,0,0,1,.19.37,1.91,1.91,0,0,1-.11.41c-.08.23-.17.45-.26.68a.43.43,0,0,0,0,.25" style="fill:#951b1f"/><path d="M84.07,28.74a20.72,20.72,0,0,1,1.87-6.62,21.32,21.32,0,0,1,3.82-5.87l-.18,0a19.48,19.48,0,0,1-2.64.62,11,11,0,0,1-2.14.16,4.54,4.54,0,0,1-2-.5,2.87,2.87,0,0,1-.5-.36.83.83,0,0,1-.26-.45.7.7,0,0,1,.88-.85.83.83,0,0,1,.45.26,2.09,2.09,0,0,0,1.19.71,4.36,4.36,0,0,0,.63,0l1-.07a15.06,15.06,0,0,0,2.42-.5l2.72-.77a10.53,10.53,0,0,1,2.24-.41,4.92,4.92,0,0,1,1.83.13,1.74,1.74,0,0,1,1,.69,1.15,1.15,0,0,1,0,1.27.79.79,0,0,1-.52.4.63.63,0,0,1-.82-.54V16a.78.78,0,0,0-.49-.66,1.91,1.91,0,0,0-.62-.13,3.69,3.69,0,0,0-1.19.13l-.82.23a1.45,1.45,0,0,1-.63,1,10.42,10.42,0,0,0-2.31,2.7,27.41,27.41,0,0,0-2.73,5.54,14.1,14.1,0,0,0-.66,2.39c-.06.34-.09.69-.12,1a.5.5,0,0,0,0,.17h.17a14.17,14.17,0,0,1,2.17-.3,5.47,5.47,0,0,1,1.89.2,2.24,2.24,0,0,1,.75.39,1,1,0,0,1,.32,1.13.76.76,0,0,1-.88.44.62.62,0,0,1-.47-.54.46.46,0,0,0-.35-.42,2.69,2.69,0,0,0-.75-.14,6.58,6.58,0,0,0-2,.19l-.51.13a1.16,1.16,0,0,0-.53.24.88.88,0,0,1-.92.12.61.61,0,0,0-.3,0A13.72,13.72,0,0,1,81.8,30a5,5,0,0,1-1.55-.17,1.78,1.78,0,0,1-.66-.33,1,1,0,0,1-.37-.79.49.49,0,0,1,.13-.33.84.84,0,0,1,1.17-.1l.19.18a1.27,1.27,0,0,0,1,.42,14.34,14.34,0,0,0,1.73-.1l.65-.07" style="fill:#951b1f"/><path d="M98.49,27.65l-.25.18a10.79,10.79,0,0,1-2.53,1.41,5.33,5.33,0,0,1-2,.39A1.72,1.72,0,0,1,92,28.1a2.81,2.81,0,0,1,.29-1.39,7.66,7.66,0,0,1,3.3-3.44,3.81,3.81,0,0,1,1.55-.42,1.57,1.57,0,0,1,1.4.91.83.83,0,0,1,0,.56,1.83,1.83,0,0,1-1,1.12.94.94,0,0,1-.47.09.32.32,0,0,1-.32-.23.46.46,0,0,1,.2-.59,3.92,3.92,0,0,0,.32-.25.41.41,0,0,0,.13-.19A.23.23,0,0,0,97.1,24a1.74,1.74,0,0,0-.45.06,3.29,3.29,0,0,0-1,.5,5.94,5.94,0,0,0-2,2.27,2.09,2.09,0,0,0-.24.95,1.27,1.27,0,0,0,.09.47.64.64,0,0,0,.67.41,3.7,3.7,0,0,0,1.32-.27,8.4,8.4,0,0,0,2.08-1.14,12.28,12.28,0,0,0,2-1.75c.15-.16.27-.34.41-.51a5.89,5.89,0,0,1,2-1.68,4.38,4.38,0,0,1,1.71-.45,1.4,1.4,0,0,1,1.13.47.84.84,0,0,1,.19.81,2.38,2.38,0,0,1-.44.85,5.69,5.69,0,0,1-1.44,1.23,8,8,0,0,1-2.68,1.12h0c-.41.11-.52.27-.47.66a.84.84,0,0,0,.87.73,5.09,5.09,0,0,0,2.21-.48,8.51,8.51,0,0,0,2.23-1.51,17.2,17.2,0,0,0,1.5-1.58,4.69,4.69,0,0,1,.58-.6.6.6,0,0,1,.45-.15.34.34,0,0,1,.35.32.6.6,0,0,1-.1.43,3.91,3.91,0,0,1-.3.41A17.53,17.53,0,0,1,105.08,28a8.91,8.91,0,0,1-2.74,1.41,7.46,7.46,0,0,1-1.87.31,2,2,0,0,1-1.78-1.1,1.75,1.75,0,0,1-.18-.73c0-.07,0-.13,0-.25m1.83-1.25a1.67,1.67,0,0,0,.62-.12,7,7,0,0,0,2-1.12,4.92,4.92,0,0,0,.63-.58.79.79,0,0,0,.18-.29c.07-.2,0-.34-.26-.36a1.22,1.22,0,0,0-.27,0,2.43,2.43,0,0,0-.81.39,9.74,9.74,0,0,0-2,1.94l-.08.13" style="fill:#951b1f"/><path d="M70.92,29.73a2.19,2.19,0,0,1-1.66-.65,1.21,1.21,0,0,1-.3-.61.72.72,0,0,1,.12-.55.66.66,0,0,1,.77-.25.41.41,0,0,1,.31.39,2,2,0,0,0,0,.24.66.66,0,0,0,.51.49,1.06,1.06,0,0,0,1.36-1.19.77.77,0,0,0-.33-.48,4.59,4.59,0,0,0-.52-.33l-.53-.29-.25-.16A1.09,1.09,0,0,1,70,25.1,2.43,2.43,0,0,1,70.64,24,4.82,4.82,0,0,1,73,22.7a2.33,2.33,0,0,1,.53-.07,1.32,1.32,0,0,1,1.06.48.88.88,0,0,1,.2.66,2.27,2.27,0,0,1-.31.94,1.44,1.44,0,0,1-.27.34.69.69,0,0,1-.83.07.47.47,0,0,1-.14-.69,1.48,1.48,0,0,1,.25-.25c.13-.1.15-.15,0-.28a.48.48,0,0,0-.54-.18,3.16,3.16,0,0,0-.43.16,3.06,3.06,0,0,0-1,.75,1.1,1.1,0,0,0-.27.51.45.45,0,0,0,.15.47,1.2,1.2,0,0,0,.26.18c.15.09.31.17.47.25l.46.26a1.69,1.69,0,0,1,.15,2.82,2.78,2.78,0,0,1-1.42.57l-.45,0" style="fill:#951b1f"/><path d="M69.41,16a1.44,1.44,0,0,1-.19.67A4.16,4.16,0,0,1,68,18a.88.88,0,0,1-.21.12c-.22.07-.38,0-.38-.24a1.63,1.63,0,0,1,.07-.3c.07-.17.15-.33.22-.5a1.62,1.62,0,0,0,.12-.87.9.9,0,0,1,.16-.74.86.86,0,0,1,1-.26.6.6,0,0,1,.35.41,3.23,3.23,0,0,1,.06.33" style="fill:#951b1f"/></g></g></g></g></g></svg>