<svg xmlns="http://www.w3.org/2000/svg" viewBox="0 0 256.01 59.15"><title>Asset 1</title><g id="Layer_2" data-name="Layer 2"><g id="text"><path d="M2.59,25.91a2.61,2.61,0,0,0,.14-.55,12.08,12.08,0,0,1,1.68-4.89A24.45,24.45,0,0,1,9.06,14.8a42.52,42.52,0,0,1,8.78-6.2,45.52,45.52,0,0,1,10.6-4.15,35.56,35.56,0,0,1,6.15-1,21.06,21.06,0,0,1,4,0,7.76,7.76,0,0,1,3.36,1.1,4.79,4.79,0,0,1,2.26,3.72,8.45,8.45,0,0,1-.56,3.79,16.8,16.8,0,0,1-3.22,5.31,24.46,24.46,0,0,1-6.15,5.1l-.5.3a9.79,9.79,0,0,1,4.19,3.54L40,26a59.56,59.56,0,0,1,6.23-.78,3.81,3.81,0,0,1,1.71.25,1.07,1.07,0,0,1,.78,1.08,1,1,0,0,1-.67,1,4.75,4.75,0,0,1-1.24.28c-1,.08-2,.08-3,.18-1.55.17-3.1.4-4.64.61a1.52,1.52,0,0,0-.22.08c0,.15,0,.28.08.42a12.72,12.72,0,0,1-.45,6.36,23,23,0,0,1-3.68,6.91A38.87,38.87,0,0,1,24.23,52a32.63,32.63,0,0,1-8.34,3.77,18.94,18.94,0,0,1-6.21.8A7.58,7.58,0,0,1,5.15,54.9,6,6,0,0,1,2.9,49.11a11.3,11.3,0,0,1,2.33-5.29A26.83,26.83,0,0,1,10.06,39a49.72,49.72,0,0,1,5.14-3.64,1.09,1.09,0,0,0,.5-.72A51.42,51.42,0,0,1,19,25.65a76.63,76.63,0,0,1,5.68-10.12,31.39,31.39,0,0,1,3.25-4.18c.51-.54,1.09-1,1.64-1.5a1.92,1.92,0,0,1,.38-.25,1.67,1.67,0,0,1,2.42.89,1.13,1.13,0,0,1-.08,1.1,7.11,7.11,0,0,1-.69.85c-1,1-1.95,2-2.9,3a35.47,35.47,0,0,0-5,7A62.13,62.13,0,0,0,20,30c-.36.93-.67,1.89-1,2.83a1.67,1.67,0,0,0-.06.26c1.73-.84,3.43-1.7,5.16-2.49a43.59,43.59,0,0,1,5.32-2C31.2,28,33,27.5,34.89,27a2.73,2.73,0,0,0-.27-.31,5.33,5.33,0,0,0-2.77-1.43,11.64,11.64,0,0,0-4.48,0,9.34,9.34,0,0,1-1.4.13c-.72,0-1-.39-1-1.12a1.54,1.54,0,0,1,1-1.45,13.31,13.31,0,0,1,1.8-.64,20.31,20.31,0,0,0,5.59-2.28,19.15,19.15,0,0,0,5.11-4.34,10.91,10.91,0,0,0,2.19-4.25A7.26,7.26,0,0,0,40.88,9a2.83,2.83,0,0,0-1.5-2.39,6,6,0,0,0-2.45-.69,20.88,20.88,0,0,0-7.38.72,44.36,44.36,0,0,0-12.07,5.25,41.87,41.87,0,0,0-7.29,5.5,21.44,21.44,0,0,0-2.86,3.3A8.87,8.87,0,0,0,5.86,23.8,2.53,2.53,0,0,0,6,25.61a1.81,1.81,0,0,1,.24,1.14,1.86,1.86,0,0,1-1.76,1.52,1.54,1.54,0,0,1-1.75-1.42c0-.2-.11-.4-.17-.6Zm12.2,12.55-.37.21c-1.18.91-2.39,1.78-3.54,2.73a21,21,0,0,0-3.85,4,8.5,8.5,0,0,0-1.67,3.75,3.76,3.76,0,0,0,.79,3.15,4.36,4.36,0,0,0,2,1.25,9.58,9.58,0,0,0,4.42.23,19.64,19.64,0,0,0,4.81-1.39A33.61,33.61,0,0,0,25,47.93a38.2,38.2,0,0,0,7.73-7.82A22.09,22.09,0,0,0,35.52,35,9.93,9.93,0,0,0,36.15,30c0-.24-.11-.48-.17-.74l-1.54.35a56.15,56.15,0,0,0-9.52,3.14,72.09,72.09,0,0,0-6.72,3.58.42.42,0,0,0-.24.36c0,.13,0,.25-.05.38a29,29,0,0,0-.18,3.73,4.14,4.14,0,0,1-.1.93.68.68,0,0,1-.73.56,2.7,2.7,0,0,1-.57-.08,2.46,2.46,0,0,1-1.16-.71,1.68,1.68,0,0,1-.49-1.35c0-.52.07-1,.11-1.64" style="fill:#231f20"/><path d="M10.49,59.15c-.32,0-.64,0-1,0a10.19,10.19,0,0,1-6-2.21A8.6,8.6,0,0,1,.33,48.77a13.73,13.73,0,0,1,2.81-6.48,29.05,29.05,0,0,1,5.28-5.35,54.43,54.43,0,0,1,4.91-3.52,53,53,0,0,1,3.29-8.86A78.78,78.78,0,0,1,22.5,14.1,37.47,37.47,0,0,1,24.75,11a48,48,0,0,0-5.92,3.08A39,39,0,0,0,12,19.26a18.5,18.5,0,0,0-2.52,2.88,6.52,6.52,0,0,0-1.07,2.22,1.15,1.15,0,0,0,0,.14,4.25,4.25,0,0,1,.45,2.7,4.43,4.43,0,0,1-4.16,3.65A4.09,4.09,0,0,1,.21,27.34a.5.5,0,0,0,0-.13L.1,27a2.44,2.44,0,0,1-.1-.71v-.34a2.5,2.5,0,0,1,.09-.66c0-.09.05-.18.08-.28a14.51,14.51,0,0,1,2-5.79A26.57,26.57,0,0,1,7.3,12.91a44.28,44.28,0,0,1,9.31-6.59A49,49,0,0,1,27.8,1.93,37.72,37.72,0,0,1,34.41.85a23.74,23.74,0,0,1,4.45,0,10.38,10.38,0,0,1,4.46,1.5A7.43,7.43,0,0,1,46.76,8a11,11,0,0,1-.69,4.94,19.39,19.39,0,0,1-3.7,6.13,26.18,26.18,0,0,1-4,3.74c.22.22.45.44.66.69l.53-.09a58.9,58.9,0,0,1,6.52-.81,6.41,6.41,0,0,1,2.84.43,3.66,3.66,0,0,1,2.38,3.54,3.57,3.57,0,0,1-2.38,3.36,7,7,0,0,1-1.9.42c-.5,0-1,.06-1.44.08s-1,.05-1.52.1c-.74.08-1.49.18-2.24.28a15.91,15.91,0,0,1-.79,5.39A25.47,25.47,0,0,1,37,43.88,41.55,41.55,0,0,1,25.6,54.16a34.82,34.82,0,0,1-9,4.06A22.37,22.37,0,0,1,10.49,59.15ZM13.05,43l-.53.43a18.5,18.5,0,0,0-3.38,3.53,5.88,5.88,0,0,0-1.21,2.61c-.11.74.08,1,.19,1.09a1.76,1.76,0,0,0,.83.48,7.06,7.06,0,0,0,3.25.12A17.41,17.41,0,0,0,16.37,50a31.38,31.38,0,0,0,7-4.14,35.24,35.24,0,0,0,7.21-7.29,18.63,18.63,0,0,0,2.5-4.47,8.91,8.91,0,0,0,.47-1.66A51.09,51.09,0,0,0,26,35.07,59.44,59.44,0,0,0,20.41,38c-.07.84-.09,1.72-.09,2.75a6.44,6.44,0,0,1-.17,1.52,3.26,3.26,0,0,1-3.29,2.56,5.6,5.6,0,0,1-1.21-.17,5,5,0,0,1-2.38-1.44A2.62,2.62,0,0,1,13.05,43ZM24,27.34l-.27.55q.36-.16.72-.3A3.14,3.14,0,0,1,24,27.34ZM.15,25.12Zm34-16.66a4.44,4.44,0,0,1,.61,1.09,3.7,3.7,0,0,1-.37,3.52,8.55,8.55,0,0,1-.94,1.17c-.4.42-.81.83-1.22,1.24-.58.58-1.12,1.13-1.66,1.7S29.49,18.38,29,19a16.6,16.6,0,0,0,3-1.43,16.45,16.45,0,0,0,4.43-3.75,8.37,8.37,0,0,0,1.7-3.23,5,5,0,0,0,.14-1.44c0-.22,0-.23-.18-.31a3.66,3.66,0,0,0-1.45-.38A14.08,14.08,0,0,0,34.14,8.46Zm-2.88,3.33Z" style="fill:#231f20"/><path d="M253.42,29a4.63,4.63,0,0,1-.88,1.42c-1.11,1.36-2.19,2.74-3.33,4.07a27.08,27.08,0,0,1-4.18,4,8.86,8.86,0,0,1-2.26,1.32,3.43,3.43,0,0,1-1.79.23,2.54,2.54,0,0,1-2.09-1.77,5.62,5.62,0,0,1-.25-2.51,40.63,40.63,0,0,1,1.16-6.09c.06-.24.12-.49.17-.74a1.83,1.83,0,0,0,.07-.46c0-.66-.39-1-1-.76a3.77,3.77,0,0,0-.85.43,11.25,11.25,0,0,0-2.14,1.94,32.93,32.93,0,0,0-4.41,6c-.33.57-.57,1.19-.86,1.79s-.48,1-.78,1.5c-.47.77-.94.85-1.65.31a3,3,0,0,1-.47-.47,1.25,1.25,0,0,1-.25-1.23c.39-1.21.79-2.42,1.16-3.63.5-1.67,1-3.33,1.48-5a8.07,8.07,0,0,0,.21-1.38A1,1,0,0,0,229,27a11.75,11.75,0,0,0-1.26.81,22.23,22.23,0,0,0-6.22,7.42,34.27,34.27,0,0,0-2.11,4.56,3.76,3.76,0,0,1-.25.54,1,1,0,0,1-1.25.43A1.46,1.46,0,0,1,217,39c.16-.67.37-1.33.57-2s.45-1.37.67-2.06a.5.5,0,0,0,0-.3l-.56.54a23.7,23.7,0,0,1-4.38,3.42,7,7,0,0,1-2.14.86,3.65,3.65,0,0,1-1.77-.07,2.8,2.8,0,0,1-2-2.52,17.45,17.45,0,0,1,0-1.91c0-.36,0-.71,0-1.06a2.23,2.23,0,0,0,0-.36.53.53,0,0,0-.51.19c-.31.27-.6.55-.88.84a36.12,36.12,0,0,1-4.86,4.23A8.69,8.69,0,0,1,199.13,40a4.93,4.93,0,0,1-.92.22,1.39,1.39,0,0,1-1.22-.4,3,3,0,0,1-1-2.65c0-.27,0-.53.07-.89-.2.14-.33.23-.45.33a19.06,19.06,0,0,1-5,2.86,13.82,13.82,0,0,1-4.57.91,4,4,0,0,1-3.79-2.48,4,4,0,0,1-.43-1.76,7.49,7.49,0,0,0-.16-1.13,1.82,1.82,0,0,1,.8-1.91,1.43,1.43,0,0,0,.45-.58,17.75,17.75,0,0,1,3.27-5.08,10.66,10.66,0,0,1,5.25-3.23,4.73,4.73,0,0,1,2.21-.15,2.93,2.93,0,0,1,1.51.83,2.22,2.22,0,0,1,.53,2.35,5.92,5.92,0,0,1-1,2,13.7,13.7,0,0,1-3.57,3.14A16.09,16.09,0,0,1,186,34.61l-.2.06c-.67.21-1.05.47-.93,1.49a1.89,1.89,0,0,0,2,1.79,10.8,10.8,0,0,0,5-1.37,18.31,18.31,0,0,0,4.1-3.07l.75-.74a10.3,10.3,0,0,0,1.18-1.52,15.94,15.94,0,0,1,7.5-6.56,8.6,8.6,0,0,1,2.78-.64,2.17,2.17,0,0,1,1.48.42c.39.27.75.58,1.12.88s.46.3.78-.06.41-.5.63-.74a1.7,1.7,0,0,1,2.34.24,1.25,1.25,0,0,1,.15,1.25,12,12,0,0,1-.61,1.25c-.73,1.3-1.49,2.58-2.22,3.88a11.61,11.61,0,0,0-1.09,2.57,4.76,4.76,0,0,0-.19,2,2.75,2.75,0,0,0,.16.61.74.74,0,0,0,.9.49,4.28,4.28,0,0,0,1.58-.6,14.5,14.5,0,0,0,2.66-2.09,38.61,38.61,0,0,0,4.17-4.77,1.72,1.72,0,0,0,.27-.52l1.64-5a4.2,4.2,0,0,1,.94-1.72,1.44,1.44,0,0,1,2,0,1.1,1.1,0,0,1,.26.95,7.88,7.88,0,0,1-.31,1.36c-.5,1.44-1,2.87-1.54,4.31-.06.15-.11.31-.16.46l.08.05.3-.38A17.93,17.93,0,0,1,227.81,25a5.51,5.51,0,0,1,2-.9,3.45,3.45,0,0,1,3,.84,2,2,0,0,1,.67,1.67,20.86,20.86,0,0,1-.37,2.95,2.53,2.53,0,0,0-.06.74l.28-.33a17.26,17.26,0,0,1,4.05-3.86A8,8,0,0,1,240,24.86a2.39,2.39,0,0,1,2.39.72,2.12,2.12,0,0,1,.59,2c-.25,1.16-.54,2.31-.83,3.47a30.72,30.72,0,0,0-.81,3.81,10.31,10.31,0,0,0-.06,1.57,1,1,0,0,0,1.33,1,4.1,4.1,0,0,0,1.4-.7,16.35,16.35,0,0,0,2.51-2.34c1.34-1.48,2.54-3.06,3.73-4.67.32-.44.67-.86,1-1.28a2.93,2.93,0,0,1,.53-.47,1,1,0,0,1,1.59.39ZM199,36.07a.77.77,0,0,0,1.21.78c.4-.26.81-.5,1.18-.78A56,56,0,0,0,208.15,30a11.27,11.27,0,0,0,1-1.21c.44-.6.2-.66-.25-.77a.69.69,0,0,1-.63-.71.71.71,0,0,0-.86-.7l-.28.05a5.39,5.39,0,0,0-1.92.87,16.79,16.79,0,0,0-3.7,3.49,13.52,13.52,0,0,0-2.12,3.44,4.88,4.88,0,0,0-.4,1.63m-13.24-3.59a3.4,3.4,0,0,0,1.36-.31,15.71,15.71,0,0,0,5-3.34,5.68,5.68,0,0,0,.79-1,1.58,1.58,0,0,0,.2-.68.48.48,0,0,0-.45-.56,2,2,0,0,0-.69,0,4.37,4.37,0,0,0-1.73.88,21.08,21.08,0,0,0-4.35,4.64l-.18.31" style="fill:#231f20"/><path d="M218.36,43.43a3.6,3.6,0,0,1-1.35-.26,4,4,0,0,1-2.36-2.31h0A9.5,9.5,0,0,1,211.69,42a6.19,6.19,0,0,1-3-.14,5.29,5.29,0,0,1-3.37-3c-.85.73-1.7,1.4-2.58,2a11,11,0,0,1-2.76,1.5,9.78,9.78,0,0,1-1.32.33,4,4,0,0,1-3.36-1,5.5,5.5,0,0,1-1-1.17,20.2,20.2,0,0,1-2.71,1.28A16.49,16.49,0,0,1,186.13,43,6.5,6.5,0,0,1,180,39.09a6.63,6.63,0,0,1-.73-2.88,5.52,5.52,0,0,0-.1-.65l0-.09a4.37,4.37,0,0,1,1.54-4.26,19.85,19.85,0,0,1,3.65-5.57,13.08,13.08,0,0,1,6.53-4,7.2,7.2,0,0,1,3.36-.16A5.47,5.47,0,0,1,197,23a4.67,4.67,0,0,1,1.42,3.35,17.79,17.79,0,0,1,6-4.09,11.41,11.41,0,0,1,3.59-.84,4.87,4.87,0,0,1,3,.76,4.13,4.13,0,0,1,2.52-.62,4.23,4.23,0,0,1,3.18,1.73,3.81,3.81,0,0,1,.39,3.74,14.83,14.83,0,0,1-.73,1.49l-1.1,1.93c-.3.52-.61,1-.9,1.56A36.88,36.88,0,0,0,217.89,28l.93-2.83c.22-.68.45-1.37.67-2.06a6.83,6.83,0,0,1,1.56-2.73,4,4,0,0,1,5.77.1,3.75,3.75,0,0,1,.87,1.66,6.47,6.47,0,0,1,1.66-.54A6,6,0,0,1,234.46,23a4.56,4.56,0,0,1,1,1.26l.4-.28a10.66,10.66,0,0,1,3.59-1.64,5,5,0,0,1,4.83,1.47,4.67,4.67,0,0,1,1.24,4.27c-.25,1.2-.55,2.39-.84,3.54l-.14.58c-.06.22-.12.44-.17.66l.24-.26c1.28-1.42,2.47-3,3.57-4.47.32-.43.68-.88,1.13-1.42a5.39,5.39,0,0,1,1-.93,3.58,3.58,0,0,1,5.34,1.3A2.64,2.64,0,0,1,256,28.3V29a2.53,2.53,0,0,1-.12.77A6.65,6.65,0,0,1,254.55,32c-.36.43-.71.87-1.07,1.31-.74.92-1.5,1.87-2.29,2.8a29.94,29.94,0,0,1-4.59,4.42,11.36,11.36,0,0,1-2.92,1.69,6,6,0,0,1-3.11.36,5.12,5.12,0,0,1-4.11-3.43,8.27,8.27,0,0,1-.4-3.64c.05-.58.12-1.14.2-1.71a30.24,30.24,0,0,0-2.37,3.53c-.15.26-.29.58-.45.92s-.22.49-.34.73l-.15.31c-.2.43-.44.91-.73,1.4a3.5,3.5,0,0,1-5.43,1,5.08,5.08,0,0,1-.91-.89,3.8,3.8,0,0,1-.71-3.67l.23-.74c.31-.94.62-1.91.91-2.86l.4-1.31a19.91,19.91,0,0,0-2.87,4.13,32.92,32.92,0,0,0-2,4.22,5.59,5.59,0,0,1-.46,1A3.51,3.51,0,0,1,218.36,43.43ZM180.92,31Zm49.43-1.79h0Z" style="fill:#231f20"/><path d="M174.2,28a.41.41,0,0,0,.49-.09c.17-.15.32-.31.48-.47a23.77,23.77,0,0,1,3-2.82,5.9,5.9,0,0,1,2.25-1.13,2.67,2.67,0,0,1,1.43.07,2.09,2.09,0,0,1,1.51,2,6.36,6.36,0,0,1-.48,2.95,2,2,0,0,1-1.4,1.27,1.29,1.29,0,0,1-1.59-1.59c.08-.36.21-.7.32-1.06s.17-.49-.05-.71a.61.61,0,0,0-.8,0,7.64,7.64,0,0,0-1.09.77,32.13,32.13,0,0,0-5.79,6.62,20.46,20.46,0,0,0-1.62,3.16c-.34.77-.68,1.55-1,2.31a5.25,5.25,0,0,1-.39.7.45.45,0,0,1-.64.22,1.68,1.68,0,0,1-1.1-2c.22-.82.5-1.62.75-2.43a2.59,2.59,0,0,0,.14-.58l-.23.21a71.32,71.32,0,0,1-7,6.72,37.44,37.44,0,0,1-7,4.72,19.68,19.68,0,0,1-5.35,1.87,11.81,11.81,0,0,1-5.45-.17,8,8,0,0,1-5.81-6.44,14.59,14.59,0,0,1-.13-4.57,32.16,32.16,0,0,1,3.71-11.72,50.83,50.83,0,0,1,8-11.2,48.35,48.35,0,0,1,7.23-6.41,29.33,29.33,0,0,1,7.15-3.88A13.94,13.94,0,0,1,169,3.36a5.89,5.89,0,0,1,3.72,1.32,4.15,4.15,0,0,1,1.47,2.86,9.07,9.07,0,0,1-.8,4.42,19.27,19.27,0,0,1-3.25,5.15,19.92,19.92,0,0,1-4,3.63,6.24,6.24,0,0,1-2.16,1,2.27,2.27,0,0,1-1.34-.11,1.06,1.06,0,0,1-.7-1,1.81,1.81,0,0,1,1.1-1.91,4,4,0,0,1,.81-.31,5.58,5.58,0,0,0,2.12-1,13.24,13.24,0,0,0,4.78-7.35,5.37,5.37,0,0,0,.14-2.36,1.87,1.87,0,0,0-1.68-1.62,6.62,6.62,0,0,0-2.26.14,18.54,18.54,0,0,0-5.77,2.38,39.51,39.51,0,0,0-6.92,5.31A50.53,50.53,0,0,0,144.69,26a32.16,32.16,0,0,0-3.39,8.46,18.52,18.52,0,0,0-.53,5A7.69,7.69,0,0,0,142,43.49,5.39,5.39,0,0,0,146.59,46a16,16,0,0,0,6.7-1.49,31.61,31.61,0,0,0,7.43-4.67,59.88,59.88,0,0,0,10.06-10.67,4.75,4.75,0,0,0,.77-1.48c.19-.66.37-1.33.61-2a7,7,0,0,1,.63-1.42,1.27,1.27,0,0,1,1.86-.34.85.85,0,0,1,.42.86,5.5,5.5,0,0,1-.24,1c-.17.54-.37,1.06-.56,1.6a1,1,0,0,0-.07.6" style="fill:#231f20"/><path d="M146.53,51.5a13,13,0,0,1-3.66-.51,10.54,10.54,0,0,1-7.61-8.38,17.11,17.11,0,0,1-.17-5.37,34.6,34.6,0,0,1,4-12.67,53.12,53.12,0,0,1,8.37-11.76,50,50,0,0,1,7.61-6.76,32.23,32.23,0,0,1,7.79-4.21,16.44,16.44,0,0,1,6.2-1.07,8.42,8.42,0,0,1,5.3,1.93,6.73,6.73,0,0,1,2.37,4.58,11.75,11.75,0,0,1-1,5.67,22,22,0,0,1-3.68,5.85,22.7,22.7,0,0,1-4.51,4.09,8.68,8.68,0,0,1-3.06,1.41,4.83,4.83,0,0,1-2.86-.24,3.66,3.66,0,0,1-2.32-3.25,4.39,4.39,0,0,1,2.57-4.41,6.28,6.28,0,0,1,1.3-.48,3,3,0,0,0,1.14-.56,10.53,10.53,0,0,0,3.87-5.94,4,4,0,0,0,.14-.8,7.82,7.82,0,0,0-.92.13,15.85,15.85,0,0,0-4.95,2.07,36.5,36.5,0,0,0-6.46,5A48.41,48.41,0,0,0,147,27.24,29.17,29.17,0,0,0,143.83,35a15.76,15.76,0,0,0-.47,4.28,5.07,5.07,0,0,0,.79,2.74,2.78,2.78,0,0,0,2.48,1.37,13.19,13.19,0,0,0,5.63-1.27,29,29,0,0,0,6.81-4.3,56.5,56.5,0,0,0,9.63-10.21,1.93,1.93,0,0,0,.36-.67l.13-.45c.16-.54.32-1.09.52-1.66a9.19,9.19,0,0,1,.89-1.93,3.83,3.83,0,0,1,2.49-1.74,4,4,0,0,1,3,.66,3.46,3.46,0,0,1,.67.59A8.24,8.24,0,0,1,179.93,21a5.25,5.25,0,0,1,2.79.16A4.67,4.67,0,0,1,186,25.38a8.71,8.71,0,0,1-.69,4.16,4.54,4.54,0,0,1-3.19,2.76,3.92,3.92,0,0,1-3.65-1,4.32,4.32,0,0,1-.34-.39,29.87,29.87,0,0,0-3.43,4.29A19.67,19.67,0,0,0,173.26,38l-.13.3c-.31.69-.61,1.37-.92,2a7.72,7.72,0,0,1-.58,1.05A3,3,0,0,1,168,42.63a4.16,4.16,0,0,1-1.9-1.26c-1,1-2,1.87-3.05,2.7a39.25,39.25,0,0,1-7.5,5,22.22,22.22,0,0,1-6,2.11A17.62,17.62,0,0,1,146.53,51.5Z" style="fill:#231f20"/><path d="M81.89,38a52.24,52.24,0,0,1,4-15.7A51.64,51.64,0,0,1,94.12,8.38a2.7,2.7,0,0,0-.38.09A38.56,38.56,0,0,1,88.06,10a23.11,23.11,0,0,1-4.62.37,9,9,0,0,1-4.27-1.18,6.3,6.3,0,0,1-1.07-.86,2.13,2.13,0,0,1-.58-1.06,1.6,1.6,0,0,1,1.9-2,1.64,1.64,0,0,1,1,.6A4.37,4.37,0,0,0,83,7.49a6.76,6.76,0,0,0,1.35.07c.72,0,1.44-.09,2.15-.17a29,29,0,0,0,5.2-1.17L97.5,4.37a22.77,22.77,0,0,1,4.82-1,9.91,9.91,0,0,1,3.94.32,3.72,3.72,0,0,1,2.2,1.63,3,3,0,0,1,.08,3,1.75,1.75,0,0,1-1.13.94,1.37,1.37,0,0,1-1.76-1.27c0-.12,0-.23,0-.34a1.81,1.81,0,0,0-1.06-1.56,3.37,3.37,0,0,0-1.32-.32,7.52,7.52,0,0,0-2.58.31l-1.76.55a3.4,3.4,0,0,1-1.35,2.36,24.23,24.23,0,0,0-5,6.43,68,68,0,0,0-5.87,13.15A36.46,36.46,0,0,0,85.3,34.3c-.12.81-.18,1.63-.26,2.45a2,2,0,0,0,0,.41,3.7,3.7,0,0,0,.37,0,25.47,25.47,0,0,1,4.66-.7,10.32,10.32,0,0,1,4.09.47,4.76,4.76,0,0,1,1.62.92,2.45,2.45,0,0,1,.67,2.67,1.61,1.61,0,0,1-1.9,1,1.44,1.44,0,0,1-1-1.28,1,1,0,0,0-.75-1,5.64,5.64,0,0,0-1.62-.34,13.23,13.23,0,0,0-4.38.47c-.36.09-.72.21-1.08.29a2.31,2.31,0,0,0-1.15.59,1.78,1.78,0,0,1-2,.29,1.09,1.09,0,0,0-.64-.05,29.81,29.81,0,0,1-5,.58,10.23,10.23,0,0,1-3.35-.39,3.72,3.72,0,0,1-1.41-.79,2.45,2.45,0,0,1-.8-1.89,1.29,1.29,0,0,1,.27-.78A1.71,1.71,0,0,1,74.25,37a4,4,0,0,1,.39.43,2.59,2.59,0,0,0,2.12,1,25.57,25.57,0,0,0,3.71-.22L81.89,38" style="fill:#231f20"/><path d="M95,44.18a3.79,3.79,0,0,1-1-.14,4,4,0,0,1-2.69-2.51l-.25,0a10.39,10.39,0,0,0-3.5.39l-.4.11-.74.2h0a4.29,4.29,0,0,1-4.2.91,31.21,31.21,0,0,1-5.06.56,12.36,12.36,0,0,1-4.2-.52,6.15,6.15,0,0,1-2.37-1.35A5,5,0,0,1,68.85,38a3.83,3.83,0,0,1,.81-2.35A4.29,4.29,0,0,1,76,35.1a7.7,7.7,0,0,1,.67.72h.13a21.38,21.38,0,0,0,2.73-.13,56.4,56.4,0,0,1,4-14.37A61.81,61.81,0,0,1,87.9,12.6a23.73,23.73,0,0,1-4.56.31,11.55,11.55,0,0,1-5.49-1.54,8.48,8.48,0,0,1-1.52-1.2A4.61,4.61,0,0,1,75,7.84a4.24,4.24,0,0,1,1-4A4.2,4.2,0,0,1,80,2.66a4.3,4.3,0,0,1,2.4,1.48c.54.65.85.77,1,.8a5.22,5.22,0,0,0,.79,0c.65,0,1.31-.08,2-.16a25.3,25.3,0,0,0,4.74-1.07l2.93-.92,2.91-.92a24.35,24.35,0,0,1,5.4-1.08,12.36,12.36,0,0,1,5,.44,6.21,6.21,0,0,1,3.63,2.79,5.6,5.6,0,0,1,.13,5.52,4.34,4.34,0,0,1-2.75,2.25,4,4,0,0,1-3.33-.56,4,4,0,0,1-1.67-2.84,5,5,0,0,0-1.65.2l-.41.13A6.78,6.78,0,0,1,99.26,11a22,22,0,0,0-4.43,5.76,64.83,64.83,0,0,0-5.64,12.65A34.79,34.79,0,0,0,88,34c.69-.09,1.35-.15,2-.18a13.15,13.15,0,0,1,5.08.61,7.43,7.43,0,0,1,2.49,1.45,5,5,0,0,1,1.38,5.44A4.22,4.22,0,0,1,95,44.18Z" style="fill:#231f20"/><path d="M112.92,35.45l-.53.42a22.72,22.72,0,0,1-5.45,3.35,10.64,10.64,0,0,1-4.26.93,3.84,3.84,0,0,1-3.75-3.63,7.21,7.21,0,0,1,.62-3.31,17.29,17.29,0,0,1,3.23-5,15.08,15.08,0,0,1,3.88-3.15A7.69,7.69,0,0,1,110,24a3.37,3.37,0,0,1,3,2.17,2.16,2.16,0,0,1,0,1.33,4.27,4.27,0,0,1-2.23,2.66,1.86,1.86,0,0,1-1,.21.71.71,0,0,1-.69-.56,1.13,1.13,0,0,1,.42-1.39c.23-.19.48-.37.7-.59a1.14,1.14,0,0,0,.28-.46.53.53,0,0,0-.52-.73,3.55,3.55,0,0,0-1,.14A6.53,6.53,0,0,0,106.78,28a13.88,13.88,0,0,0-4.33,5.38,5.56,5.56,0,0,0-.54,2.26,3.57,3.57,0,0,0,.2,1.12,1.4,1.4,0,0,0,1.44,1,8,8,0,0,0,2.85-.64,18,18,0,0,0,4.48-2.71,26.9,26.9,0,0,0,4.25-4.15c.32-.39.6-.82.89-1.23a13.14,13.14,0,0,1,4.35-4A8.38,8.38,0,0,1,124.05,24a2.9,2.9,0,0,1,2.44,1.12,2.1,2.1,0,0,1,.39,1.92,5.16,5.16,0,0,1-.94,2A12.65,12.65,0,0,1,122.85,32a16.75,16.75,0,0,1-5.78,2.67l-.07,0c-.89.25-1.12.62-1,1.55a1.86,1.86,0,0,0,1.87,1.74,10.09,10.09,0,0,0,4.74-1.15,18.41,18.41,0,0,0,4.81-3.57,37.44,37.44,0,0,0,3.22-3.77A16.71,16.71,0,0,1,131.88,28a1.14,1.14,0,0,1,1-.34.78.78,0,0,1,.76.75,1.59,1.59,0,0,1-.22,1,11,11,0,0,1-.66,1,38.62,38.62,0,0,1-5.64,5.86,18.92,18.92,0,0,1-5.9,3.36,14.53,14.53,0,0,1-4,.72,4.15,4.15,0,0,1-3.84-2.61A4.68,4.68,0,0,1,113,36c0-.16,0-.31,0-.58m4-3a3.21,3.21,0,0,0,1.32-.3,15.09,15.09,0,0,0,4.31-2.65,13.44,13.44,0,0,0,1.35-1.37,2,2,0,0,0,.39-.69.6.6,0,0,0-.55-.87,1.89,1.89,0,0,0-.58,0,4.54,4.54,0,0,0-1.75.92A21,21,0,0,0,117,32.17c-.05.08-.09.17-.17.31" style="fill:#231f20"/><path d="M117,43a6.57,6.57,0,0,1-5.53-3.23,21.61,21.61,0,0,1-3.54,1.87,13.31,13.31,0,0,1-5.29,1.13,6.42,6.42,0,0,1-6.3-6,9.72,9.72,0,0,1,.81-4.48,19.42,19.42,0,0,1,3.71-5.76,17.51,17.51,0,0,1,4.55-3.69,10.22,10.22,0,0,1,4.46-1.33,5.92,5.92,0,0,1,5.58,3.92.76.76,0,0,1,.06.2,14.6,14.6,0,0,1,3.62-2.81,11.07,11.07,0,0,1,4.8-1.38,5.52,5.52,0,0,1,4.54,2,4.53,4.53,0,0,1,1.06,3.33l.48-.5a3.75,3.75,0,0,1,3.1-1.13,3.35,3.35,0,0,1,3.09,3.07,4.19,4.19,0,0,1-.6,2.65,13.28,13.28,0,0,1-.84,1.22,39.86,39.86,0,0,1-6,6.25A21.23,21.23,0,0,1,122,42.11a17.4,17.4,0,0,1-4.72.85Zm-10.1-11.6a10.23,10.23,0,0,0-2.08,3.07,4.32,4.32,0,0,0-.21.55,7.38,7.38,0,0,0,.83-.28,14.67,14.67,0,0,0,3.24-1.89A3.2,3.2,0,0,1,106.9,31.37Z" style="fill:#231f20"/><path d="M53.57,40.38A4.48,4.48,0,0,1,50,38.83a2.88,2.88,0,0,1-.66-1.45,1.91,1.91,0,0,1,.26-1.3,1.37,1.37,0,0,1,1.66-.6,1,1,0,0,1,.68.93A3.8,3.8,0,0,0,52,37a1.41,1.41,0,0,0,1.1,1.15A2.36,2.36,0,0,0,56,35.32a1.79,1.79,0,0,0-.69-1.13,12.69,12.69,0,0,0-1.13-.79c-.37-.24-.76-.45-1.14-.69a5.3,5.3,0,0,1-.54-.39,2.67,2.67,0,0,1-1-2.93A5.83,5.83,0,0,1,53,26.76,10.26,10.26,0,0,1,58,23.68a4.9,4.9,0,0,1,1.14-.16,2.7,2.7,0,0,1,2.29,1.15,2.11,2.11,0,0,1,.42,1.56,5.54,5.54,0,0,1-.65,2.22,3.66,3.66,0,0,1-.59.81,1.4,1.4,0,0,1-1.79.18,1.2,1.2,0,0,1-.29-1.66,2.92,2.92,0,0,1,.54-.57c.28-.26.31-.37.1-.68A1,1,0,0,0,58,26.11a5.25,5.25,0,0,0-.92.38A6.54,6.54,0,0,0,55,28.26a3,3,0,0,0-.57,1.21,1.13,1.13,0,0,0,.32,1.12,3.45,3.45,0,0,0,.56.45c.32.2.67.38,1,.58s.66.39,1,.61a4.24,4.24,0,0,1,.33,6.69,5.61,5.61,0,0,1-3.07,1.36c-.34,0-.68.07-1,.1" style="fill:#231f20"/><path d="M53.57,43h0A7,7,0,0,1,48,40.5a5.38,5.38,0,0,1-1.24-2.72,4.42,4.42,0,0,1,.61-3.05A4,4,0,0,1,49.64,33,5.34,5.34,0,0,1,49,28.82,8.28,8.28,0,0,1,51.06,25a12.91,12.91,0,0,1,6.31-3.83,8.11,8.11,0,0,1,1.72-.24,5.29,5.29,0,0,1,4.4,2.15,4.66,4.66,0,0,1,1,3.42,8.22,8.22,0,0,1-1,3.22,6.53,6.53,0,0,1-1,1.35,4,4,0,0,1-1.8,1.06,6.76,6.76,0,0,1,1,3,7,7,0,0,1-2.33,5.69,8.29,8.29,0,0,1-4.42,2l-.85.09-.23,0Z" style="fill:#231f20"/><path d="M50.32,7.75a3.65,3.65,0,0,1-.41,1.6,9.66,9.66,0,0,1-2.64,3.27,1.5,1.5,0,0,1-.47.28.53.53,0,0,1-.79-.57,2.08,2.08,0,0,1,.14-.7c.14-.4.31-.79.46-1.18a4.1,4.1,0,0,0,.27-2.08,2.35,2.35,0,0,1,.33-1.75A1.76,1.76,0,0,1,49.45,6a1.36,1.36,0,0,1,.75,1c.06.26.08.53.12.79" style="fill:#231f20"/><path d="M46.51,15.55A3,3,0,0,1,44.72,15a3.13,3.13,0,0,1-1.3-2.73,4.7,4.7,0,0,1,.28-1.47c.12-.34.25-.66.37-.94,0-.12.09-.23.14-.35a1.58,1.58,0,0,0,.1-.77,4.89,4.89,0,0,1,.77-3.57,4.34,4.34,0,0,1,5.47-1.5,4,4,0,0,1,2.16,2.67,7.73,7.73,0,0,1,.15.85c0,.06,0,.13,0,.19a1.42,1.42,0,0,1,0,.41,6,6,0,0,1-.68,2.72,12.32,12.32,0,0,1-3.34,4.16,4.63,4.63,0,0,1-1.17.67A3.25,3.25,0,0,1,46.51,15.55Z" style="fill:#231f20"/><path d="M1.84,23.72A2.61,2.61,0,0,0,2,23.17a12.08,12.08,0,0,1,1.68-4.89,24.45,24.45,0,0,1,4.65-5.67,42.52,42.52,0,0,1,8.78-6.2,45.52,45.52,0,0,1,10.6-4.15,35.56,35.56,0,0,1,6.15-1,21.06,21.06,0,0,1,4,0,7.76,7.76,0,0,1,3.36,1.1,4.79,4.79,0,0,1,2.26,3.72,8.4,8.4,0,0,1-.56,3.78,16.74,16.74,0,0,1-3.22,5.32,24.67,24.67,0,0,1-6.15,5.1l-.5.3a9.79,9.79,0,0,1,4.19,3.54l2.07-.36A59.56,59.56,0,0,1,45.49,23a3.81,3.81,0,0,1,1.71.25A1.07,1.07,0,0,1,48,24.32a1,1,0,0,1-.67,1,4.75,4.75,0,0,1-1.24.28c-1,.08-2,.08-3,.18-1.55.17-3.1.4-4.64.61a1.52,1.52,0,0,0-.22.08c0,.14,0,.28.08.41a12.75,12.75,0,0,1-.45,6.37,23,23,0,0,1-3.68,6.91,38.87,38.87,0,0,1-10.67,9.63,32.63,32.63,0,0,1-8.34,3.77,19.22,19.22,0,0,1-6.21.8A7.58,7.58,0,0,1,4.4,52.71a6,6,0,0,1-2.25-5.79,11.3,11.3,0,0,1,2.33-5.29,26.83,26.83,0,0,1,4.83-4.87,51.38,51.38,0,0,1,5.14-3.65,1.05,1.05,0,0,0,.5-.71,51.42,51.42,0,0,1,3.27-8.94A76.63,76.63,0,0,1,23.9,13.34a31.39,31.39,0,0,1,3.25-4.18c.51-.54,1.09-1,1.64-1.5a1.92,1.92,0,0,1,.38-.25,1.67,1.67,0,0,1,2.42.89,1.13,1.13,0,0,1-.08,1.1,7.11,7.11,0,0,1-.69.85c-1,1-1.95,2-2.9,3a35.47,35.47,0,0,0-5,7,62.13,62.13,0,0,0-3.69,7.56c-.36.93-.67,1.89-1,2.83a1.67,1.67,0,0,0-.06.26c1.73-.84,3.43-1.7,5.16-2.49a42,42,0,0,1,5.32-2c1.82-.56,3.65-1.08,5.51-1.62a4.15,4.15,0,0,0-.27-.32A5.39,5.39,0,0,0,31.1,23,11.64,11.64,0,0,0,26.62,23a9.34,9.34,0,0,1-1.4.13c-.72,0-1-.39-1-1.12a1.56,1.56,0,0,1,1-1.46A14.78,14.78,0,0,1,27,19.9a20.31,20.31,0,0,0,5.59-2.28,19.15,19.15,0,0,0,5.11-4.34A10.91,10.91,0,0,0,39.91,9a7.26,7.26,0,0,0,.22-2.23,2.82,2.82,0,0,0-1.5-2.39,6.22,6.22,0,0,0-2.45-.7,21.12,21.12,0,0,0-7.38.73A44.36,44.36,0,0,0,16.73,9.69a41.87,41.87,0,0,0-7.29,5.5,21.44,21.44,0,0,0-2.86,3.3,8.87,8.87,0,0,0-1.47,3.12,2.53,2.53,0,0,0,.17,1.81,1.81,1.81,0,0,1,.24,1.14,1.86,1.86,0,0,1-1.76,1.52A1.54,1.54,0,0,1,2,24.66c0-.2-.11-.4-.17-.6ZM14,36.26l-.37.22c-1.18.91-2.39,1.78-3.54,2.73a21,21,0,0,0-3.85,4A8.5,8.5,0,0,0,4.61,47a3.76,3.76,0,0,0,.79,3.15,4.36,4.36,0,0,0,2,1.25,9.58,9.58,0,0,0,4.42.23,19.64,19.64,0,0,0,4.81-1.39,33.61,33.61,0,0,0,7.59-4.48,38.2,38.2,0,0,0,7.73-7.82,22.09,22.09,0,0,0,2.83-5.07,10,10,0,0,0,.63-5.09c0-.24-.11-.48-.17-.74l-1.54.35a55.28,55.28,0,0,0-9.52,3.14,72.09,72.09,0,0,0-6.72,3.58.41.41,0,0,0-.24.36c0,.12,0,.25-.05.38A29,29,0,0,0,17,38.56a4.14,4.14,0,0,1-.1.93.68.68,0,0,1-.73.56,2.71,2.71,0,0,1-.57-.09,2.37,2.37,0,0,1-1.16-.7,1.68,1.68,0,0,1-.49-1.35c0-.52.07-1,.11-1.65" style="fill:#941b1f"/><path d="M9.73,55.52c-.29,0-.58,0-.86,0a8.72,8.72,0,0,1-5.2-1.89A7.22,7.22,0,0,1,1,46.77,12.42,12.42,0,0,1,3.55,41a28.18,28.18,0,0,1,5-5.09,54.17,54.17,0,0,1,5.25-3.72v0A52.81,52.81,0,0,1,17.17,23,78.3,78.3,0,0,1,22.94,12.7a32.64,32.64,0,0,1,3.38-4.34c.41-.43.85-.81,1.27-1.18L28,6.8a3.46,3.46,0,0,1,.58-.39,2.79,2.79,0,0,1,2.34-.23,2.94,2.94,0,0,1,1.72,1.7,2.27,2.27,0,0,1-.21,2.18,7.29,7.29,0,0,1-.8,1c-.39.41-.8.82-1.2,1.22-.56.57-1.14,1.15-1.69,1.74a32.77,32.77,0,0,0-4.14,5.54l.16-.08a13.92,13.92,0,0,1,2-.68A19,19,0,0,0,32,16.63a18,18,0,0,0,4.81-4.07,9.64,9.64,0,0,0,2-3.8A6,6,0,0,0,39,6.88a1.68,1.68,0,0,0-.91-1.47,5.08,5.08,0,0,0-2-.55,19.89,19.89,0,0,0-7,.69,43.3,43.3,0,0,0-11.75,5.12A40.24,40.24,0,0,0,10.24,16a19.46,19.46,0,0,0-2.71,3.11,7.58,7.58,0,0,0-1.29,2.71,1.47,1.47,0,0,0,.06,1,2.89,2.89,0,0,1,.35,1.87,3,3,0,0,1-2.83,2.47A2.67,2.67,0,0,1,.87,24.87a2.27,2.27,0,0,0-.07-.28c0-.07-.05-.14-.07-.21l0-.16v-.65l0-.14.06-.23,0-.15A13,13,0,0,1,2.66,17.7a25.54,25.54,0,0,1,4.87-5.93,42.91,42.91,0,0,1,9-6.37A47.35,47.35,0,0,1,27.4,1.14a37,37,0,0,1,6.36-1A22.68,22.68,0,0,1,38,.12,8.9,8.9,0,0,1,41.79,1.4,5.92,5.92,0,0,1,44.58,6a9.47,9.47,0,0,1-.62,4.3,18,18,0,0,1-3.43,5.68,25.51,25.51,0,0,1-5.28,4.62,9.85,9.85,0,0,1,2.48,2.31l1.34-.23a59.6,59.6,0,0,1,6.36-.8,4.91,4.91,0,0,1,2.21.33,2.25,2.25,0,0,1,1.49,2.18,2.14,2.14,0,0,1-1.43,2,6.26,6.26,0,0,1-1.53.34l-1.38.07c-.56,0-1.09.05-1.61.11-1.11.12-2.23.27-3.32.43l-.33,0a13.83,13.83,0,0,1-.61,6.2,23.88,23.88,0,0,1-3.85,7.25,40.38,40.38,0,0,1-11,9.92,33.65,33.65,0,0,1-8.63,3.9A21.18,21.18,0,0,1,9.73,55.52ZM30,8.33a.6.6,0,0,0-.28.08l-.19.11-.44.39c-.4.35-.79.69-1.13,1a30.32,30.32,0,0,0-3.12,4,76,76,0,0,0-5.6,10,49.82,49.82,0,0,0-3.19,8.73,2.2,2.2,0,0,1-1,1.41,51.36,51.36,0,0,0-5,3.56A25.62,25.62,0,0,0,5.4,42.32a10.22,10.22,0,0,0-2.11,4.75,4.88,4.88,0,0,0,1.84,4.75A6.39,6.39,0,0,0,9,53.19a17.68,17.68,0,0,0,5.84-.76,31.29,31.29,0,0,0,8-3.64,38,38,0,0,0,10.36-9.35,22,22,0,0,0,3.5-6.55,11.44,11.44,0,0,0,.42-5.8l-.06-.31L36.9,25.7l.94-.35a1.54,1.54,0,0,1,.43-.12l1.27-.18c1.11-.15,2.25-.31,3.39-.43.6-.07,1.19-.09,1.76-.12L46,24.43a4,4,0,0,0,.75-.14,2.75,2.75,0,0,0-1.16-.15,56.55,56.55,0,0,0-6.11.77l-1.36.23-1.47.25-.4-.66a8.75,8.75,0,0,0-3.74-3.11l-1.87-.95,2.3-1.37a23.46,23.46,0,0,0,5.87-4.87,15.6,15.6,0,0,0,3-4.94,7.33,7.33,0,0,0,.5-3.28,3.7,3.7,0,0,0-1.74-2.87,6.53,6.53,0,0,0-2.87-.93,19.74,19.74,0,0,0-3.76,0,34.78,34.78,0,0,0-6,1A44.6,44.6,0,0,0,17.64,7.43a40.41,40.41,0,0,0-8.54,6,23.08,23.08,0,0,0-4.44,5.39,10.69,10.69,0,0,0-1.53,4.42,2.73,2.73,0,0,1-.14.62H3v0a4.86,4.86,0,0,1,.14.55c.08.45.2.49.55.47a.69.69,0,0,0,.69-.57c0-.05,0-.15-.12-.41A3.65,3.65,0,0,1,4,21.36a10.2,10.2,0,0,1,1.64-3.53,22.42,22.42,0,0,1,3-3.47A43.06,43.06,0,0,1,16.13,8.7,45.43,45.43,0,0,1,28.51,3.32a22,22,0,0,1,7.78-.75,7.28,7.28,0,0,1,2.91.83,4,4,0,0,1,2.08,3.32A8.69,8.69,0,0,1,41,9.31,12,12,0,0,1,38.62,14a20,20,0,0,1-5.42,4.6A21.47,21.47,0,0,1,27.3,21a10.77,10.77,0,0,0-1.63.58.36.36,0,0,0-.26.35,8,8,0,0,0,1-.1,12.75,12.75,0,0,1,4.93.06,6.39,6.39,0,0,1,3.35,1.74,3.47,3.47,0,0,1,.25.29L35,24l1.15,1.35-1.7.5-1.71.5-1.61.47c.74-.21,1.49-.4,2.27-.59l1-.24,1.66-.38.25,1.14c0,.07,0,.15,0,.22s.09.38.13.6a11,11,0,0,1-.69,5.66,22.54,22.54,0,0,1-3,5.35,39.38,39.38,0,0,1-8,8.06,34.48,34.48,0,0,1-7.85,4.62A21,21,0,0,1,12,52.75,10.7,10.7,0,0,1,7,52.47a5.43,5.43,0,0,1-2.5-1.59,4.89,4.89,0,0,1-1.06-4.06,9.87,9.87,0,0,1,1.87-4.26A22.32,22.32,0,0,1,9.4,38.32c.83-.69,1.7-1.34,2.54-2l1-.78a2.77,2.77,0,0,1,.34-.22l.14-.08,1.88-1.11-.18,2.74c0,.38-.05.74-.07,1.1a.54.54,0,0,0,.18.48,1.27,1.27,0,0,0,.56.35,2.44,2.44,0,0,0,0-.27A32.23,32.23,0,0,1,16,34.68l0-.19a.36.36,0,0,0,0-.1,1.57,1.57,0,0,1,.82-1.3l.2-.11c1.54-.89,3.11-1.8,4.74-2.63l-1.59.78-1.58.78L16.47,33,17,30.54c0-.08,0-.19.08-.31l.29-.84c.23-.66.46-1.35.73-2a63.74,63.74,0,0,1,3.75-7.7,36.05,36.05,0,0,1,5.19-7.23c.57-.61,1.16-1.2,1.73-1.78L30,9.45a5.21,5.21,0,0,0,.54-.67s0,0,0-.06a.67.67,0,0,0-.35-.37ZM12.82,38.57c-.66.5-1.33,1-2,1.53a19.84,19.84,0,0,0-3.64,3.8,7.28,7.28,0,0,0-1.47,3.25,2.57,2.57,0,0,0,.53,2.22,3.08,3.08,0,0,0,1.47.92,8.32,8.32,0,0,0,3.9.17,18.82,18.82,0,0,0,4.53-1.3,32.6,32.6,0,0,0,7.32-4.33A36.91,36.91,0,0,0,31,37.24a20.29,20.29,0,0,0,2.68-4.8,9,9,0,0,0,.63-4l-.37.08a54.05,54.05,0,0,0-9.31,3.08,62.77,62.77,0,0,0-6.33,3.36v0a28.63,28.63,0,0,0-.17,3.59A5.29,5.29,0,0,1,18,39.75a1.83,1.83,0,0,1-1.87,1.45,4.15,4.15,0,0,1-.85-.12,3.67,3.67,0,0,1-1.71-1A2.91,2.91,0,0,1,12.82,38.57Zm5.54-4.07ZM28,27.81a39.06,39.06,0,0,0-4.18,1.61l0,0C25.11,28.84,26.51,28.3,28,27.81ZM23.1,22.25a58,58,0,0,0-2.82,5.95l-.15.42c.89-.44,1.79-.88,2.7-1.29a44.18,44.18,0,0,1,5.46-2c1.06-.33,2.15-.65,3.21-1-.2-.06-.41-.12-.64-.17a10.15,10.15,0,0,0-4,0,11.46,11.46,0,0,1-1.58.14,2.07,2.07,0,0,1-1.58-.59A2.17,2.17,0,0,1,23.1,22.25Zm15.48,5.26h0Zm8.24-3.18Z" style="fill:#fff5dc"/><path d="M252.67,26.79a4.63,4.63,0,0,1-.88,1.42c-1.11,1.35-2.19,2.74-3.33,4.07a27.08,27.08,0,0,1-4.18,4A9.16,9.16,0,0,1,242,37.64a3.52,3.52,0,0,1-1.79.23,2.54,2.54,0,0,1-2.09-1.77,5.62,5.62,0,0,1-.25-2.51,40.63,40.63,0,0,1,1.16-6.09c.06-.24.12-.49.17-.74a1.83,1.83,0,0,0,.07-.46c0-.67-.39-1-1-.76a3.77,3.77,0,0,0-.85.43,11.25,11.25,0,0,0-2.14,1.94,32.93,32.93,0,0,0-4.41,6c-.33.57-.57,1.19-.86,1.79s-.48,1-.78,1.5c-.47.77-.93.85-1.65.31a3,3,0,0,1-.47-.47,1.25,1.25,0,0,1-.25-1.23c.39-1.21.79-2.42,1.16-3.64.5-1.66,1-3.32,1.48-5a8.07,8.07,0,0,0,.21-1.38,1,1,0,0,0-1.46-1,11.75,11.75,0,0,0-1.26.81A22.29,22.29,0,0,0,220.79,33a35,35,0,0,0-2.11,4.57,3.22,3.22,0,0,1-.25.53.94.94,0,0,1-1.25.44,1.46,1.46,0,0,1-.91-1.74c.16-.67.37-1.33.57-2s.45-1.37.67-2.06a.5.5,0,0,0,0-.3L217,33a23.7,23.7,0,0,1-4.38,3.42,7,7,0,0,1-2.14.86,3.65,3.65,0,0,1-1.77-.07,2.8,2.8,0,0,1-2-2.52,17.34,17.34,0,0,1,0-1.91c0-.36,0-.71,0-1.06a2.23,2.23,0,0,0,0-.36.53.53,0,0,0-.51.19c-.31.27-.6.55-.88.84a35.35,35.35,0,0,1-4.86,4.22,8.73,8.73,0,0,1-2.11,1.17,5.86,5.86,0,0,1-.92.22,1.42,1.42,0,0,1-1.22-.4,3,3,0,0,1-1-2.65c0-.27,0-.53.07-.9l-.45.34a19.06,19.06,0,0,1-5,2.86,13.82,13.82,0,0,1-4.57.91,4,4,0,0,1-3.79-2.48,4,4,0,0,1-.43-1.76,7.32,7.32,0,0,0-.16-1.13,1.82,1.82,0,0,1,.8-1.91,1.43,1.43,0,0,0,.45-.58,17.75,17.75,0,0,1,3.27-5.08A10.66,10.66,0,0,1,190.7,22a4.73,4.73,0,0,1,2.21-.15,2.93,2.93,0,0,1,1.51.83A2.22,2.22,0,0,1,195,25a6,6,0,0,1-1,2,13.89,13.89,0,0,1-3.57,3.14,16.31,16.31,0,0,1-5.11,2.24,1.52,1.52,0,0,0-.2.06c-.67.21-1.05.47-.93,1.49a1.89,1.89,0,0,0,2,1.79,10.8,10.8,0,0,0,5-1.37,18.62,18.62,0,0,0,4.1-3.07l.75-.74a9.88,9.88,0,0,0,1.18-1.53,15.92,15.92,0,0,1,7.5-6.55,8.6,8.6,0,0,1,2.78-.64,2.17,2.17,0,0,1,1.48.42c.39.27.75.58,1.12.88s.46.3.78-.06.41-.5.63-.74a1.7,1.7,0,0,1,2.34.24,1.25,1.25,0,0,1,.15,1.25,13.08,13.08,0,0,1-.61,1.25c-.73,1.3-1.49,2.58-2.22,3.88A11.41,11.41,0,0,0,210,31.55a4.73,4.73,0,0,0-.19,2,2.49,2.49,0,0,0,.16.61.74.74,0,0,0,.9.5,4.28,4.28,0,0,0,1.58-.6A14.5,14.5,0,0,0,215.13,32a38.61,38.61,0,0,0,4.17-4.77,1.84,1.84,0,0,0,.27-.52l1.64-5a4.2,4.2,0,0,1,.94-1.72,1.44,1.44,0,0,1,2,0,1.1,1.1,0,0,1,.26.95,7.88,7.88,0,0,1-.31,1.36c-.5,1.44-1,2.87-1.54,4.3-.06.16-.11.32-.16.47l.08.05.3-.38a17.73,17.73,0,0,1,4.27-3.93,5.51,5.51,0,0,1,2-.9,3.45,3.45,0,0,1,3,.84,2,2,0,0,1,.67,1.67,21,21,0,0,1-.37,2.95,2.53,2.53,0,0,0-.06.74l.28-.33a17.26,17.26,0,0,1,4.05-3.86,7.8,7.8,0,0,1,2.69-1.26,2.37,2.37,0,0,1,2.39.72,2.11,2.11,0,0,1,.59,1.95c-.25,1.16-.54,2.31-.83,3.46a31.26,31.26,0,0,0-.81,3.82,10.31,10.31,0,0,0-.06,1.57,1,1,0,0,0,1.33,1,4.1,4.1,0,0,0,1.4-.7,16.35,16.35,0,0,0,2.51-2.34c1.34-1.48,2.54-3.06,3.73-4.67.32-.44.67-.86,1-1.28a3.43,3.43,0,0,1,.53-.48,1,1,0,0,1,1.59.39Zm-54.45,7.09a.77.77,0,0,0,1.21.78c.4-.26.81-.5,1.19-.78a56.7,56.7,0,0,0,6.78-6.09,11.27,11.27,0,0,0,1-1.21c.44-.61.2-.67-.25-.77a.69.69,0,0,1-.63-.71.71.71,0,0,0-.86-.7l-.28.05a5.39,5.39,0,0,0-1.92.87,16.56,16.56,0,0,0-3.7,3.49,13.52,13.52,0,0,0-2.12,3.44,4.82,4.82,0,0,0-.4,1.63M185,30.29a3.4,3.4,0,0,0,1.36-.31,15.71,15.71,0,0,0,5-3.34,5.75,5.75,0,0,0,.79-1,1.5,1.5,0,0,0,.2-.67.48.48,0,0,0-.45-.56,2.28,2.28,0,0,0-.69,0,4.4,4.4,0,0,0-1.73.89A21.08,21.08,0,0,0,185.16,30c0,.07-.09.16-.18.31" style="fill:#941b1f"/><path d="M217.6,39.8a2.49,2.49,0,0,1-.83-.16,2.61,2.61,0,0,1-1.62-3.09c0-.19.09-.38.14-.56a20.2,20.2,0,0,1-2.12,1.44,8.06,8.06,0,0,1-2.5,1,4.77,4.77,0,0,1-2.32-.1,3.93,3.93,0,0,1-2.79-3.54,7.41,7.41,0,0,1,0-.94,35.59,35.59,0,0,1-4.4,3.72,9.48,9.48,0,0,1-2.39,1.32,8,8,0,0,1-1.1.27,2.6,2.6,0,0,1-2.17-.66,3.92,3.92,0,0,1-1.32-2.18,18.81,18.81,0,0,1-3.89,2,15.14,15.14,0,0,1-4.94,1,5.1,5.1,0,0,1-4.84-3.1,5.17,5.17,0,0,1-.56-2.26,6.47,6.47,0,0,0-.13-.88V33A3,3,0,0,1,181,30a.33.33,0,0,0,.09-.12,18.74,18.74,0,0,1,3.48-5.41,11.68,11.68,0,0,1,5.82-3.56,6,6,0,0,1,2.73-.16,4.2,4.2,0,0,1,2.08,1.14,3.37,3.37,0,0,1,.82,3.48,7,7,0,0,1-1.24,2.4A14.47,14.47,0,0,1,191,31.15a17.32,17.32,0,0,1-5.47,2.39l-.06,0-.05,0-.15.05s0,.11,0,.2c.08.69.49.78.84.77a9.51,9.51,0,0,0,4.5-1.23,17.33,17.33,0,0,0,3.84-2.88l.72-.71a8.43,8.43,0,0,0,1-1.33,17.08,17.08,0,0,1,8-7,9.79,9.79,0,0,1,3.14-.73,3.31,3.31,0,0,1,2.23.63c.26.18.5.37.73.56l.28-.32a2.5,2.5,0,0,1,2-.73,2.79,2.79,0,0,1,2.1,1.1,2.37,2.37,0,0,1,.26,2.36,14.16,14.16,0,0,1-.67,1.35c-.36.65-.73,1.28-1.09,1.92s-.76,1.31-1.13,2a10,10,0,0,0-1,2.3,3.75,3.75,0,0,0-.17,1.53s0,.07,0,.1a3.89,3.89,0,0,0,.91-.4,13.76,13.76,0,0,0,2.44-1.93,37.15,37.15,0,0,0,4-4.64.47.47,0,0,0,.09-.19l1-3c.21-.66.43-1.33.65-2a5.52,5.52,0,0,1,1.21-2.17,2.62,2.62,0,0,1,3.69.06,2.24,2.24,0,0,1,.55,1.91,9.1,9.1,0,0,1-.37,1.55l0,.07a15.15,15.15,0,0,1,1.26-.89,6.48,6.48,0,0,1,2.42-1.07,4.57,4.57,0,0,1,3.92,1.1,3.1,3.1,0,0,1,1.07,2.58c0,.06,0,.12,0,.18A18.5,18.5,0,0,1,235.94,23,9,9,0,0,1,239,21.54a3.52,3.52,0,0,1,3.47,1.06,3.25,3.25,0,0,1,.88,3c-.25,1.18-.54,2.35-.82,3.49l-.15.57a24.22,24.22,0,0,0-.64,3.11,9.36,9.36,0,0,0-.06,1.28,3.05,3.05,0,0,0,.91-.49A15.34,15.34,0,0,0,245,31.37c1.32-1.47,2.54-3.07,3.65-4.58.3-.41.64-.84,1.08-1.35a3.71,3.71,0,0,1,.75-.67,2.24,2.24,0,0,1,1.81-.39,2.29,2.29,0,0,1,1.44,1.18l.14.26V27l0,.17a5.29,5.29,0,0,1-1.09,1.8l-1.06,1.32c-.74.91-1.5,1.86-2.28,2.78A28.94,28.94,0,0,1,245,37.24a10.59,10.59,0,0,1-2.55,1.48,4.54,4.54,0,0,1-2.38.28,3.67,3.67,0,0,1-3-2.5,7,7,0,0,1-.32-3,40.8,40.8,0,0,1,1.14-6l.09-.39,0-.07a10.83,10.83,0,0,0-1.84,1.69,31.86,31.86,0,0,0-4.26,5.79c-.18.32-.34.67-.51,1s-.21.46-.32.68l-.15.32a14.34,14.34,0,0,1-.67,1.28,2.08,2.08,0,0,1-3.33.63,3.78,3.78,0,0,1-.67-.66,2.35,2.35,0,0,1-.45-2.31l.25-.79c.3-.93.61-1.89.9-2.83.44-1.47,1-3.21,1.47-5a4.48,4.48,0,0,0,.15-.88,8.33,8.33,0,0,0-.85.55,21.25,21.25,0,0,0-5.9,7A35.41,35.41,0,0,0,219.76,38a3.82,3.82,0,0,1-.34.74A2.09,2.09,0,0,1,217.6,39.8Zm.6-9.39.45,1.78a1.68,1.68,0,0,1,0,.94l-.24.71c-.14.44-.29.88-.43,1.33l0,.09c-.19.63-.38,1.23-.53,1.83a.31.31,0,0,0,.11.34,1.6,1.6,0,0,0,.1-.23,36.34,36.34,0,0,1,2.18-4.71,23.77,23.77,0,0,1,2.68-4.06L221,27.61l.35-1,.12-.36.45-1.25c.36-1,.74-2,1.09-3a9,9,0,0,0,.27-1.17.43.43,0,0,0-.15,0h0a.28.28,0,0,0-.16,0,3.27,3.27,0,0,0-.67,1.28c-.22.67-.44,1.34-.65,2l-1,3a3,3,0,0,1-.44.85C219.54,28.81,218.87,29.64,218.2,30.41Zm-26-7.48a5.41,5.41,0,0,0-1.24.19,9.42,9.42,0,0,0-4.68,2.9,16.4,16.4,0,0,0-3.06,4.76,2.5,2.5,0,0,1-.81,1c-.41.31-.4.54-.36.78l0,.08a7.36,7.36,0,0,1,.16,1.22,3,3,0,0,0,.3,1.26A2.87,2.87,0,0,0,185.28,37a12.5,12.5,0,0,0,1.61-.14l-.78,0h0a3,3,0,0,1-3.12-2.8,2.21,2.21,0,0,1,1.54-2.67H183l1.07-1.84a1.85,1.85,0,0,1,.17-.29,22.15,22.15,0,0,1,4.59-4.89,5.41,5.41,0,0,1,2.2-1.09,3.09,3.09,0,0,1,1.09,0,1.62,1.62,0,0,1,1.43,1.78,3,3,0,0,1-.12.65,3.78,3.78,0,0,0,.43-1,1.08,1.08,0,0,0-.23-1.22,1.86,1.86,0,0,0-.94-.53A2.32,2.32,0,0,0,192.21,22.93Zm4.43,8.71-.27,3.41a1.83,1.83,0,0,0,.62,1.69c.12.1.21.15.27.14a4,4,0,0,0,.74-.18,6.63,6.63,0,0,0,1.56-.83,1.9,1.9,0,0,1-1.59-.19,1.94,1.94,0,0,1-.9-1.89,6.23,6.23,0,0,1,.48-2,14.71,14.71,0,0,1,2.29-3.72,17.82,17.82,0,0,1,4-3.73,6.63,6.63,0,0,1,2.33-1,2.76,2.76,0,0,1,.43-.07,1.85,1.85,0,0,1,2.05,1.5,1.46,1.46,0,0,1,1.07.87,1.75,1.75,0,0,1-.36,1.63,12.14,12.14,0,0,1-1.08,1.33c-.53.55-1.06,1.09-1.6,1.62a1.5,1.5,0,0,1,.35,0l.79.17.11.87a2.49,2.49,0,0,1,.05.47c0,.21,0,.42,0,.63s0,.3,0,.44l0,.59a9.84,9.84,0,0,0,0,1.21,1.66,1.66,0,0,0,1.15,1.5,2.58,2.58,0,0,0,1.21,0,4.73,4.73,0,0,0,1.21-.42l-.37.07a1.88,1.88,0,0,1-2.13-1.19,3.64,3.64,0,0,1-.24-.88,5.93,5.93,0,0,1,.22-2.49,13,13,0,0,1,1.19-2.83l1.14-2c.36-.63.73-1.26,1.09-1.9.18-.33.36-.7.56-1.14,0,0,0-.06,0-.14a.82.82,0,0,0-.56-.09c-.12.13-.23.27-.34.4l-.25.29a1.52,1.52,0,0,1-2.38.2l-.17-.14c-.3-.25-.59-.48-.89-.69a1,1,0,0,0-.73-.21,7.45,7.45,0,0,0-2.41.56,14.56,14.56,0,0,0-7,6.09,10.72,10.72,0,0,1-1.34,1.72l-.53.54Zm42-7.32a1.77,1.77,0,0,1,1,.32,1.93,1.93,0,0,1,.76,1.66,3.85,3.85,0,0,1-.08.68c-.05.22-.1.42-.15.62l-.09.4A36.26,36.26,0,0,0,239,33.69a4.44,4.44,0,0,0,.18,2,1.42,1.42,0,0,0,1.2,1,2.27,2.27,0,0,0,1.19-.17,4.63,4.63,0,0,0,.65-.29l-.1,0a2.22,2.22,0,0,1-1.92-.32,2.17,2.17,0,0,1-.83-1.74,11.49,11.49,0,0,1,.07-1.75,24.5,24.5,0,0,1,.7-3.41l.14-.55c.28-1.14.57-2.29.81-3.43a.94.94,0,0,0-.3-.92,1.24,1.24,0,0,0-1.3-.39,5.45,5.45,0,0,0-1.59.65A2.25,2.25,0,0,1,238.65,24.32Zm-9.9-.81a2.09,2.09,0,0,1,1.13.33,2.17,2.17,0,0,1,1,2.06,9.39,9.39,0,0,1-.25,1.58c-.51,1.79-1,3.54-1.49,5-.29,1-.61,1.93-.91,2.87l-.25.78a.42.42,0,0,0,0,.07s0,0,.05.08a2.27,2.27,0,0,0,.26.27,10.47,10.47,0,0,0,.55-1.06l.16-.33.29-.62a11.7,11.7,0,0,1,.61-1.23c.45-.8,1-1.59,1.49-2.37l-.26-2.72a3.65,3.65,0,0,1,.07-1.08,18.64,18.64,0,0,0,.35-2.77.89.89,0,0,0-.27-.76,2.34,2.34,0,0,0-2-.58,4.8,4.8,0,0,0-1.57.74l-.29.19.12-.07.17-.1A2.06,2.06,0,0,1,228.75,23.51Zm-22.33,2.1a4.88,4.88,0,0,0-1.34.67,15.51,15.51,0,0,0-3.45,3.25,12.46,12.46,0,0,0-1.94,3.15,4.47,4.47,0,0,0-.2.58l.43-.3a55.25,55.25,0,0,0,6.65-6,5.15,5.15,0,0,0,.42-.48A1.71,1.71,0,0,1,206.42,25.61Zm1.1.19Zm21.34,0Z" style="fill:#fff5dc"/><path d="M173.45,25.82a.42.42,0,0,0,.49-.1c.17-.14.32-.3.48-.46a24.59,24.59,0,0,1,3-2.83,6,6,0,0,1,2.25-1.12,2.67,2.67,0,0,1,1.43.07,2.09,2.09,0,0,1,1.51,2,6.36,6.36,0,0,1-.48,2.95,2,2,0,0,1-1.4,1.27A1.29,1.29,0,0,1,179.17,26c.08-.36.21-.71.32-1.06s.17-.49-.05-.71a.62.62,0,0,0-.8,0,7.7,7.7,0,0,0-1.09.78,31.87,31.87,0,0,0-5.79,6.62,20.46,20.46,0,0,0-1.62,3.16c-.34.77-.68,1.54-1,2.31a5.25,5.25,0,0,1-.39.7.45.45,0,0,1-.64.22,1.68,1.68,0,0,1-1.1-2c.22-.82.5-1.62.75-2.43a2.59,2.59,0,0,0,.14-.58,2.29,2.29,0,0,0-.23.21,71.32,71.32,0,0,1-7,6.72,37.93,37.93,0,0,1-7,4.72,19.32,19.32,0,0,1-5.35,1.86,11.67,11.67,0,0,1-5.45-.16,8,8,0,0,1-5.81-6.44,14.59,14.59,0,0,1-.13-4.57,32.27,32.27,0,0,1,3.71-11.73,50.49,50.49,0,0,1,8-11.19A47.79,47.79,0,0,1,155.82,6,29.33,29.33,0,0,1,163,2.09a13.94,13.94,0,0,1,5.23-.92,5.89,5.89,0,0,1,3.72,1.32,4.15,4.15,0,0,1,1.47,2.86,9.07,9.07,0,0,1-.8,4.42,19.42,19.42,0,0,1-3.25,5.15,19.92,19.92,0,0,1-4,3.63,6.24,6.24,0,0,1-2.16,1,2.27,2.27,0,0,1-1.34-.11,1.06,1.06,0,0,1-.7-1,1.81,1.81,0,0,1,1.1-1.91,4,4,0,0,1,.81-.31,5.58,5.58,0,0,0,2.12-1A13.24,13.24,0,0,0,170,7.86a5.37,5.37,0,0,0,.14-2.36,1.87,1.87,0,0,0-1.68-1.62,6.62,6.62,0,0,0-2.26.14,18.54,18.54,0,0,0-5.77,2.38,39.45,39.45,0,0,0-6.92,5.3,50.78,50.78,0,0,0-9.53,12.08,32.16,32.16,0,0,0-3.39,8.46,18.52,18.52,0,0,0-.53,5,7.69,7.69,0,0,0,1.23,4.09,5.38,5.38,0,0,0,4.59,2.51,16,16,0,0,0,6.7-1.48A31.61,31.61,0,0,0,160,37.66,59.88,59.88,0,0,0,170,27a4.86,4.86,0,0,0,.77-1.48c.19-.67.38-1.33.61-2a7,7,0,0,1,.64-1.42,1.26,1.26,0,0,1,1.85-.33.85.85,0,0,1,.42.86,5.5,5.5,0,0,1-.24,1c-.17.54-.37,1.06-.56,1.6a1,1,0,0,0-.07.6" style="fill:#941b1f"/><path d="M145.78,47.87a11.15,11.15,0,0,1-3.25-.46,9,9,0,0,1-6.61-7.29,16,16,0,0,1-.15-4.93A33.32,33.32,0,0,1,139.61,23a51.91,51.91,0,0,1,8.14-11.44A48.73,48.73,0,0,1,155.15,5a30.7,30.7,0,0,1,7.43-4,14.84,14.84,0,0,1,5.66-1,7,7,0,0,1,4.43,1.59,5.22,5.22,0,0,1,1.86,3.62,10.05,10.05,0,0,1-.87,5,20.26,20.26,0,0,1-3.45,5.46A20.74,20.74,0,0,1,166,19.51a7.45,7.45,0,0,1-2.57,1.19,3.29,3.29,0,0,1-2-.17,2.22,2.22,0,0,1-1.42-2,3,3,0,0,1,1.75-3,5.78,5.78,0,0,1,1-.39,4.32,4.32,0,0,0,1.68-.82,12,12,0,0,0,4.38-6.72A4.26,4.26,0,0,0,169,5.72a.74.74,0,0,0-.71-.7,5.67,5.67,0,0,0-1.88.13A16.93,16.93,0,0,0,161,7.39a38.52,38.52,0,0,0-6.72,5.15A49.71,49.71,0,0,0,145,24.35a30.86,30.86,0,0,0-3.28,8.15,17.76,17.76,0,0,0-.5,4.67,6.53,6.53,0,0,0,1,3.49,4.23,4.23,0,0,0,3.66,2,14.91,14.91,0,0,0,6.23-1.39,30.32,30.32,0,0,0,7.15-4.51A58.23,58.23,0,0,0,169.1,26.3a3.38,3.38,0,0,0,.59-1.12l.14-.46c.15-.51.3-1,.49-1.58a8.09,8.09,0,0,1,.75-1.65,2.39,2.39,0,0,1,1.56-1.09,2.49,2.49,0,0,1,1.93.42,2,2,0,0,1,.92,1.75,14.84,14.84,0,0,1,1.29-1.06,6.83,6.83,0,0,1,2.7-1.33,3.89,3.89,0,0,1,2,.11,3.24,3.24,0,0,1,2.27,3,7.31,7.31,0,0,1-.57,3.49A3.11,3.11,0,0,1,181,28.71a2.44,2.44,0,0,1-3-2.6,31.2,31.2,0,0,0-5.27,6.11,20,20,0,0,0-1.52,3l-.17.38c-.29.65-.58,1.3-.88,1.95a6.59,6.59,0,0,1-.47.86,1.58,1.58,0,0,1-2,.67,2.8,2.8,0,0,1-1.92-2.31c-1.51,1.5-3,2.83-4.39,4a38.39,38.39,0,0,1-7.23,4.87,20.92,20.92,0,0,1-5.66,2A15.73,15.73,0,0,1,145.78,47.87Zm22-45.55a12.75,12.75,0,0,0-4.39.86,28.25,28.25,0,0,0-6.87,3.73,46.17,46.17,0,0,0-7.05,6.26,49.72,49.72,0,0,0-7.79,10.93,31.25,31.25,0,0,0-3.59,11.32,14.05,14.05,0,0,0,.11,4.21,6.8,6.8,0,0,0,5,5.57,10.48,10.48,0,0,0,4.93.14,18.27,18.27,0,0,0,5-1.76,32,32,0,0,0,4-2.42A27.77,27.77,0,0,1,153,43.38,17.25,17.25,0,0,1,145.82,45a6.58,6.58,0,0,1-5.53-3,8.86,8.86,0,0,1-1.43-4.68,19.88,19.88,0,0,1,.57-5.28,32.75,32.75,0,0,1,3.51-8.76,51.93,51.93,0,0,1,9.74-12.35,40.12,40.12,0,0,1,7.13-5.46,19.05,19.05,0,0,1,6.13-2.52,7.86,7.86,0,0,1,2.65-.15,3,3,0,0,1,2.65,2.54,6.59,6.59,0,0,1-.17,2.86,14.31,14.31,0,0,1-5.18,8,6.91,6.91,0,0,1-2.55,1.25,2.83,2.83,0,0,0-.59.23.68.68,0,0,0-.45.8h0a1,1,0,0,0,.64.05,5.36,5.36,0,0,0,1.77-.85,18.77,18.77,0,0,0,3.75-3.43,18.08,18.08,0,0,0,3.07-4.84,7.89,7.89,0,0,0,.71-3.87,3,3,0,0,0-1.06-2.1,4.84,4.84,0,0,0-3-1Zm1.43,27.8L169,33a3.43,3.43,0,0,1-.17.82l0,0c-.07.24-.15.48-.23.72-.19.57-.36,1.11-.51,1.65a.53.53,0,0,0,0,.25c.28-.61.56-1.23.83-1.85l.17-.38a22.81,22.81,0,0,1,1.7-3.33A35.23,35.23,0,0,1,173.84,27a1.5,1.5,0,0,1-.91-.16l-.47-.24-.12-.5a2.19,2.19,0,0,1,.09-1.26l.23-.63.33-.94a6,6,0,0,0,.15-.61h-.06s0,0-.06.06a6.35,6.35,0,0,0-.53,1.19c-.16.47-.3.95-.45,1.46l-.14.47a5.88,5.88,0,0,1-1,1.84c-.77,1-1.56,2-2.36,3Zm9.89-7.21a1.63,1.63,0,0,1,1.19.5,1.71,1.71,0,0,1,.35,1.8l0,.05-.12.39a6,6,0,0,0-.17.58.27.27,0,0,0,0,.21.2.2,0,0,0,.18,0c.19,0,.4-.15.6-.62a5.07,5.07,0,0,0,.39-2.41,1,1,0,0,0-.73-1,1.53,1.53,0,0,0-.83,0,4,4,0,0,0-1.17.49Z" style="fill:#fff5dc"/><path d="M81.14,35.83a52.24,52.24,0,0,1,4-15.7A51.64,51.64,0,0,1,93.37,6.19a2.7,2.7,0,0,0-.38.09,37.32,37.32,0,0,1-5.68,1.47,22.4,22.4,0,0,1-4.62.38A9.07,9.07,0,0,1,78.42,7a6.3,6.3,0,0,1-1.07-.86A2.12,2.12,0,0,1,76.77,5a1.61,1.61,0,0,1,1.91-2,1.72,1.72,0,0,1,1,.61A4.42,4.42,0,0,0,82.2,5.3a6.08,6.08,0,0,0,1.35.06c.72,0,1.44-.08,2.15-.16A29,29,0,0,0,90.9,4l5.85-1.85a22.16,22.16,0,0,1,4.82-1,9.91,9.91,0,0,1,3.94.32,3.74,3.74,0,0,1,2.2,1.62,3,3,0,0,1,.08,3,1.75,1.75,0,0,1-1.12.94,1.38,1.38,0,0,1-1.77-1.27c0-.12,0-.23,0-.34A1.84,1.84,0,0,0,103.83,4a3.36,3.36,0,0,0-1.32-.31A7.52,7.52,0,0,0,99.93,4l-1.76.55a3.42,3.42,0,0,1-1.35,2.36,24.23,24.23,0,0,0-5,6.43A68.18,68.18,0,0,0,86,26.43a36.86,36.86,0,0,0-1.42,5.68c-.12.81-.18,1.63-.26,2.45a2,2,0,0,0,0,.41,3.7,3.7,0,0,0,.37,0,25.47,25.47,0,0,1,4.66-.7,10.32,10.32,0,0,1,4.09.47,4.76,4.76,0,0,1,1.62.92,2.45,2.45,0,0,1,.67,2.67,1.61,1.61,0,0,1-1.9,1.05,1.44,1.44,0,0,1-1-1.28,1,1,0,0,0-.75-1,5.64,5.64,0,0,0-1.62-.34,13,13,0,0,0-4.38.47L85,37.49a2.31,2.31,0,0,0-1.15.59,1.8,1.8,0,0,1-2,.29,1.09,1.09,0,0,0-.64,0,29.81,29.81,0,0,1-5,.58,10.23,10.23,0,0,1-3.35-.39,3.72,3.72,0,0,1-1.41-.79,2.45,2.45,0,0,1-.8-1.89,1.27,1.27,0,0,1,.27-.78,1.71,1.71,0,0,1,2.54-.23,4,4,0,0,1,.39.43,2.59,2.59,0,0,0,2.12,1A25.57,25.57,0,0,0,79.72,36l1.42-.18" style="fill:#941b1f"/><path d="M94.21,40.55a2.72,2.72,0,0,1-.69-.09,2.6,2.6,0,0,1-1.85-2.3l0,0a4.55,4.55,0,0,0-1.28-.26,11.53,11.53,0,0,0-4,.44l-.43.11c-.22.07-.44.13-.67.18a1.17,1.17,0,0,0-.61.3,2.89,2.89,0,0,1-3.17.54h0a29.55,29.55,0,0,1-5.17.61,11.32,11.32,0,0,1-3.73-.45,4.76,4.76,0,0,1-1.83-1,3.59,3.59,0,0,1-1.17-2.73,2.37,2.37,0,0,1,.51-1.48A2.86,2.86,0,0,1,74.28,34a5.78,5.78,0,0,1,.52.57,1.43,1.43,0,0,0,1.22.54,24.2,24.2,0,0,0,3.55-.21l.51-.07a54.37,54.37,0,0,1,4-15.11,57.25,57.25,0,0,1,6.18-11.4c-1,.25-1.87.45-2.77.6a22.59,22.59,0,0,1-4.85.39,10.18,10.18,0,0,1-4.81-1.34,7.32,7.32,0,0,1-1.28-1,3.26,3.26,0,0,1-.9-1.63,2.81,2.81,0,0,1,.68-2.67,2.75,2.75,0,0,1,2.58-.75,2.83,2.83,0,0,1,1.6,1,3.26,3.26,0,0,0,1.88,1.3,5.18,5.18,0,0,0,1.11,0c.68,0,1.38-.08,2.06-.16a27.3,27.3,0,0,0,5-1.12l3-.93,2.9-.92a23.12,23.12,0,0,1,5.07-1,11.11,11.11,0,0,1,4.39.37,4.9,4.9,0,0,1,2.84,2.15,4.14,4.14,0,0,1,.1,4.14A2.86,2.86,0,0,1,107,8.24a2.53,2.53,0,0,1-2.13-.35A2.61,2.61,0,0,1,103.76,6a1.62,1.62,0,0,1,0-.22.41.41,0,0,1,0-.11.66.66,0,0,0-.41-.63,2.24,2.24,0,0,0-.88-.2,6.28,6.28,0,0,0-2.18.26l-1.09.34a4.94,4.94,0,0,1-1.61,2.35,23.07,23.07,0,0,0-4.73,6.13,66.77,66.77,0,0,0-5.77,12.92,34.09,34.09,0,0,0-1.38,5.49c-.06.43-.11.85-.15,1.29a26.5,26.5,0,0,1,3.75-.49,12,12,0,0,1,4.53.54,5.92,5.92,0,0,1,2,1.16,3.59,3.59,0,0,1,1,3.9A2.78,2.78,0,0,1,94.21,40.55Zm-4.64-5c.34,0,.66,0,1,.05A6.16,6.16,0,0,1,92.5,36,2.15,2.15,0,0,1,94,38a.31.31,0,0,0,.15.22.47.47,0,0,0,.51-.32,1.26,1.26,0,0,0-.36-1.43,3.61,3.61,0,0,0-1.23-.7,9.53,9.53,0,0,0-3.64-.4,24.41,24.41,0,0,0-4.46.67,2,2,0,0,1-.44,0h-.09l-1.19.1L83.16,35a.45.45,0,0,1,0-.11,2.44,2.44,0,0,1,0-.48l.06-.63c.06-.61.12-1.24.21-1.88a37.28,37.28,0,0,1,1.47-5.85,69,69,0,0,1,6-13.37A25,25,0,0,1,96.07,6a2.37,2.37,0,0,0,1-1.58l.06-.78,1.3-.4,1.21-.38a8.6,8.6,0,0,1,3-.36,4.31,4.31,0,0,1,1.77.43A2.93,2.93,0,0,1,106,5.41a1.94,1.94,0,0,1,0,.24v.11a.32.32,0,0,0,.11.24.21.21,0,0,0,.2,0,.57.57,0,0,0,.4-.36,1.84,1.84,0,0,0-.05-1.93,2.58,2.58,0,0,0-1.57-1.11,8.72,8.72,0,0,0-3.48-.26,21,21,0,0,0-4.57.92l-2.88.91-3,.94a29.19,29.19,0,0,1-5.41,1.21c-.74.09-1.49.14-2.23.17A7,7,0,0,1,82,6.43a5.55,5.55,0,0,1-3.24-2.08.52.52,0,0,0-.32-.22.41.41,0,0,0-.43.11.52.52,0,0,0-.11.51,1,1,0,0,0,.25.5A4.86,4.86,0,0,0,79,6a7.75,7.75,0,0,0,3.73,1,20.85,20.85,0,0,0,4.38-.36,35.88,35.88,0,0,0,5.51-1.44A2.37,2.37,0,0,1,93,5.1l.14,0,3.39-.79L94.25,6.93a50.81,50.81,0,0,0-8,13.64,51.17,51.17,0,0,0-3.93,15.36l-.08.92-2.34.3a25.94,25.94,0,0,1-3.88.23A3.69,3.69,0,0,1,73,36q-.13-.16-.27-.3a.56.56,0,0,0-.44-.16.59.59,0,0,0-.4.24.1.1,0,0,0,0,.09,1.28,1.28,0,0,0,.43,1,2.55,2.55,0,0,0,1,.54,9.19,9.19,0,0,0,3,.34A27.93,27.93,0,0,0,81,37.18a2.29,2.29,0,0,1,1.24.1c.56.2.71.06.8,0a3.39,3.39,0,0,1,1.69-.88l.57-.15.49-.14A15.53,15.53,0,0,1,89.57,35.54Z" style="fill:#fff5dc"/><path d="M112.17,33.26l-.53.42A22.72,22.72,0,0,1,106.19,37a10.64,10.64,0,0,1-4.26.93,3.84,3.84,0,0,1-3.75-3.63A7.21,7.21,0,0,1,98.8,31,17.29,17.29,0,0,1,102,26a15.08,15.08,0,0,1,3.88-3.15,7.69,7.69,0,0,1,3.34-1,3.38,3.38,0,0,1,3,2.16,2.19,2.19,0,0,1,0,1.34A4.27,4.27,0,0,1,110,28a1.86,1.86,0,0,1-1,.21.71.71,0,0,1-.69-.56,1.13,1.13,0,0,1,.42-1.39c.23-.19.48-.37.7-.59a1.14,1.14,0,0,0,.28-.46.53.53,0,0,0-.52-.73,3.55,3.55,0,0,0-1,.14A6.63,6.63,0,0,0,106,25.82a13.88,13.88,0,0,0-4.33,5.38,5.56,5.56,0,0,0-.54,2.26,3.57,3.57,0,0,0,.2,1.12,1.4,1.4,0,0,0,1.44,1,8,8,0,0,0,2.85-.64,18.28,18.28,0,0,0,4.48-2.71,27.35,27.35,0,0,0,4.25-4.15c.32-.39.6-.82.89-1.23a13.14,13.14,0,0,1,4.35-4,8.38,8.38,0,0,1,3.68-1.07,2.92,2.92,0,0,1,2.44,1.11,2.13,2.13,0,0,1,.39,1.93,5.16,5.16,0,0,1-.94,2,12.65,12.65,0,0,1-3.09,2.93,16.75,16.75,0,0,1-5.78,2.67l-.07,0c-.89.26-1.12.62-1,1.56a1.86,1.86,0,0,0,1.87,1.74,10.09,10.09,0,0,0,4.74-1.15A18.63,18.63,0,0,0,126.66,31a37.44,37.44,0,0,0,3.22-3.77,16.71,16.71,0,0,1,1.25-1.42,1.14,1.14,0,0,1,1-.34.78.78,0,0,1,.76.75,1.59,1.59,0,0,1-.22,1,11,11,0,0,1-.66,1,38.09,38.09,0,0,1-5.64,5.85,18.76,18.76,0,0,1-5.9,3.37,14.53,14.53,0,0,1-4,.72,4.15,4.15,0,0,1-3.84-2.61,4.68,4.68,0,0,1-.38-1.73c0-.16,0-.31,0-.58m4-3a3.21,3.21,0,0,0,1.32-.3,15.09,15.09,0,0,0,4.31-2.65A13.44,13.44,0,0,0,123.1,26a2.05,2.05,0,0,0,.39-.69.6.6,0,0,0-.55-.87,1.89,1.89,0,0,0-.58,0,4.54,4.54,0,0,0-1.75.92A20.8,20.8,0,0,0,116.29,30c-.05.08-.09.17-.17.31" style="fill:#941b1f"/><path d="M116.25,39.34A5.31,5.31,0,0,1,111.54,36a6.05,6.05,0,0,1-.24-.64,21.78,21.78,0,0,1-4.67,2.7,11.54,11.54,0,0,1-4.72,1A5,5,0,0,1,97,34.41a8.24,8.24,0,0,1,.7-3.82,18.06,18.06,0,0,1,3.45-5.35,15.79,15.79,0,0,1,4.17-3.39,8.75,8.75,0,0,1,3.84-1.15,4.48,4.48,0,0,1,4.15,2.94,3.31,3.31,0,0,1,0,2A5.4,5.4,0,0,1,110.52,29a3,3,0,0,1-1.62.33A1.86,1.86,0,0,1,107.2,28a2.36,2.36,0,0,1,0-1.6l-.48.34a12.61,12.61,0,0,0-4,4.94,4.18,4.18,0,0,0-.43,1.78,2.11,2.11,0,0,0,.12.73c.07.19.12.24.34.23a6.7,6.7,0,0,0,2.45-.56,16.92,16.92,0,0,0,4.19-2.54,27,27,0,0,0,4.07-4c.19-.23.37-.49.56-.77l.29-.4a14.06,14.06,0,0,1,4.73-4.32,9.6,9.6,0,0,1,4.17-1.21,4.07,4.07,0,0,1,3.38,1.52,3.25,3.25,0,0,1,.64,2.9,6.3,6.3,0,0,1-1.14,2.45,13.43,13.43,0,0,1-3.36,3.2,17.79,17.79,0,0,1-6.12,2.84l-.07,0-.21.07s0,.13,0,.24a.73.73,0,0,0,.75.73,9,9,0,0,0,4.21-1,17.52,17.52,0,0,0,4.51-3.36A35.19,35.19,0,0,0,129,26.56a16.06,16.06,0,0,1,1.34-1.51,2.28,2.28,0,0,1,1.92-.7A1.92,1.92,0,0,1,134,26.13a2.69,2.69,0,0,1-.38,1.75,10.79,10.79,0,0,1-.74,1.08,39.28,39.28,0,0,1-5.81,6,19.86,19.86,0,0,1-6.27,3.56,15.33,15.33,0,0,1-4.33.78Zm-3-8.29.14,2.38c0,.14,0,.25,0,.36a3.6,3.6,0,0,0,.28,1.31A3,3,0,0,0,116.37,37a14.73,14.73,0,0,0,1.53-.14c-.28,0-.55,0-.82,0a3,3,0,0,1-3-2.76,2.25,2.25,0,0,1,1.58-2.71l-1.47,0,1-1.77a1.79,1.79,0,0,1,.18-.32,22.19,22.19,0,0,1,4.55-4.85,5.54,5.54,0,0,1,2.22-1.13,2.89,2.89,0,0,1,.92-.07,1.74,1.74,0,0,1,1.54,2.38v0a3.9,3.9,0,0,0,.44-1.09c.11-.56,0-.79-.15-.95a1.76,1.76,0,0,0-1.51-.71,7.18,7.18,0,0,0-3.17.93,11.72,11.72,0,0,0-4,3.64l-.26.37c-.21.3-.43.61-.67.92A29.29,29.29,0,0,1,113.2,31.05Zm-3.84-8h0a6.59,6.59,0,0,0-2.85.87,13.7,13.7,0,0,0-3.57,2.92,15.57,15.57,0,0,0-3,4.67,6.11,6.11,0,0,0-.54,2.78,2.69,2.69,0,0,0,2.61,2.57,8.61,8.61,0,0,0,1.5-.13c-.21,0-.41,0-.62,0A2.58,2.58,0,0,1,100.27,35a4.92,4.92,0,0,1-.26-1.5,6.61,6.61,0,0,1,.63-2.74,14.87,14.87,0,0,1,4.69-5.82,7.71,7.71,0,0,1,2.56-1.39,4.85,4.85,0,0,1,1.3-.18,1.65,1.65,0,0,1,1.35.66,1.71,1.71,0,0,1,.26,1.53,2.19,2.19,0,0,1-.35.72,3.06,3.06,0,0,0,.67-1.23,1,1,0,0,0,0-.64A2.28,2.28,0,0,0,109.36,23Zm7.23,10.55Z" style="fill:#fff5dc"/><path d="M52.82,38.19a4.48,4.48,0,0,1-3.56-1.55,2.88,2.88,0,0,1-.66-1.45,1.91,1.91,0,0,1,.26-1.3,1.37,1.37,0,0,1,1.66-.6,1,1,0,0,1,.68.92,3.8,3.8,0,0,0,.06.59A1.42,1.42,0,0,0,52.36,36a2.36,2.36,0,0,0,2.91-2.82A1.79,1.79,0,0,0,54.58,32a12.69,12.69,0,0,0-1.13-.79c-.37-.24-.76-.46-1.14-.69a5.3,5.3,0,0,1-.54-.39,2.68,2.68,0,0,1-1-2.93,5.83,5.83,0,0,1,1.45-2.63,10.26,10.26,0,0,1,5.06-3.08,4.9,4.9,0,0,1,1.14-.16,2.7,2.7,0,0,1,2.29,1.15A2.11,2.11,0,0,1,61.12,24a5.54,5.54,0,0,1-.65,2.22,3.91,3.91,0,0,1-.59.81,1.4,1.4,0,0,1-1.79.18,1.2,1.2,0,0,1-.29-1.66,2.92,2.92,0,0,1,.54-.57c.28-.26.31-.37.1-.68a1,1,0,0,0-1.16-.42,5.25,5.25,0,0,0-.92.38,6.41,6.41,0,0,0-2.14,1.77,2.89,2.89,0,0,0-.58,1.21A1.13,1.13,0,0,0,54,28.4a2.93,2.93,0,0,0,.56.44c.32.21.67.39,1,.59s.66.39,1,.61a4.24,4.24,0,0,1,.33,6.69,5.61,5.61,0,0,1-3.07,1.36c-.34,0-.68.07-1,.1" style="fill:#941b1f"/><path d="M52.87,39.34H52.8a5.54,5.54,0,0,1-4.42-2,4.08,4.08,0,0,1-.92-2,3,3,0,0,1,.42-2.08,2.51,2.51,0,0,1,3-1.08,2.12,2.12,0,0,1,1.43,1.94,2.29,2.29,0,0,0,0,.41c0,.19.1.23.26.27a1.14,1.14,0,0,0,1.1-.23,1.41,1.41,0,0,0,.39-1.29.64.64,0,0,0-.28-.42c-.32-.26-.68-.49-1-.72l-.6-.36c-.18-.1-.36-.2-.53-.31a5.91,5.91,0,0,1-.64-.46A3.79,3.79,0,0,1,49.64,27a6.75,6.75,0,0,1,1.73-3.16A11.45,11.45,0,0,1,57,20.37a6.39,6.39,0,0,1,1.4-.19,3.84,3.84,0,0,1,3.23,1.59,3.29,3.29,0,0,1,.66,2.39,6.81,6.81,0,0,1-.79,2.66,5.09,5.09,0,0,1-.77,1.05,2.54,2.54,0,0,1-3.25.34,2.3,2.3,0,0,1-.88-2.71,5,5,0,0,0-1.45,1.27,1.81,1.81,0,0,0-.36.74.18.18,0,0,0,0,.06,2.11,2.11,0,0,0,.37.3l.54.32c.15.08.3.16.44.25h0c.34.2.68.4,1,.63a5.18,5.18,0,0,1,2.3,4,5.54,5.54,0,0,1-1.84,4.52A6.92,6.92,0,0,1,54,39.23c-.28,0-.54.06-.77.08l-.25,0Zm-2.84-5c-.05,0-.12,0-.19.13a.75.75,0,0,0-.1.53,1.7,1.7,0,0,0,.4.87,3,3,0,0,0,1.24.9,2.6,2.6,0,0,1-1.25-1.74,4.72,4.72,0,0,1-.08-.69ZM58.5,22.48h0a4.16,4.16,0,0,0-.89.12,9.21,9.21,0,0,0-4.5,2.75,4.58,4.58,0,0,0-1.17,2.1,1.54,1.54,0,0,0,.58,1.77,4.6,4.6,0,0,0,.45.32c.15.1.31.19.47.28s.46.27.69.42a14.69,14.69,0,0,1,1.22.86A3,3,0,0,1,56.41,33,3.71,3.71,0,0,1,55.3,36.3a3.57,3.57,0,0,1-.38.3,4,4,0,0,0,1.17-.73,3.24,3.24,0,0,0,1.07-2.64A2.85,2.85,0,0,0,55.88,31c-.29-.2-.59-.37-.91-.56l0,0-.39-.22c-.21-.12-.43-.24-.65-.38a5,5,0,0,1-.73-.58,2.28,2.28,0,0,1-.66-2.19,4.11,4.11,0,0,1,.79-1.68,7.55,7.55,0,0,1,2.53-2.09,6.08,6.08,0,0,1,1.11-.46,2.17,2.17,0,0,1,2.47.88,1.55,1.55,0,0,1-.29,2.17l-.06.05a2.43,2.43,0,0,0-.28.28.16.16,0,0,0,0,.1.25.25,0,0,0,.3,0,2.9,2.9,0,0,0,.42-.57A4.8,4.8,0,0,0,60,23.92a.94.94,0,0,0-.19-.73A1.55,1.55,0,0,0,58.5,22.48Z" style="fill:#fff5dc"/><path d="M49.57,5.56a3.69,3.69,0,0,1-.41,1.6,9.66,9.66,0,0,1-2.64,3.27,1.72,1.72,0,0,1-.47.28.53.53,0,0,1-.79-.57,2.08,2.08,0,0,1,.14-.7c.14-.4.31-.79.46-1.18a4.1,4.1,0,0,0,.27-2.08,2.35,2.35,0,0,1,.33-1.75,1.76,1.76,0,0,1,2.24-.62,1.36,1.36,0,0,1,.75,1c.06.26.08.53.12.79" style="fill:#941b1f"/><path d="M45.76,11.92a1.62,1.62,0,0,1-.95-.3,1.76,1.76,0,0,1-.71-1.51,3.49,3.49,0,0,1,.21-1c.11-.3.22-.59.34-.87.05-.12.1-.24.14-.36A2.88,2.88,0,0,0,45,6.33a3.51,3.51,0,0,1,.53-2.55,2.91,2.91,0,0,1,3.68-1,2.49,2.49,0,0,1,1.37,1.72,6.53,6.53,0,0,1,.12.68l0,.22,0,.09v.09a4.56,4.56,0,0,1-.53,2.09,10.69,10.69,0,0,1-2.95,3.67,3.18,3.18,0,0,1-.78.46A2.16,2.16,0,0,1,45.76,11.92Zm2.16-7.14a.64.64,0,0,0-.51.31,1.18,1.18,0,0,0-.14.93,5.15,5.15,0,0,1-.19,2.24,7.78,7.78,0,0,0,1-1.61,2.59,2.59,0,0,0,.3-1,.88.88,0,0,1,0-.17,3.46,3.46,0,0,0-.07-.41c0-.16-.09-.18-.12-.2A.77.77,0,0,0,47.92,4.78Z" style="fill:#fff5dc"/><path d="M1.84,23.72A2.61,2.61,0,0,0,2,23.17a12.13,12.13,0,0,1,1.68-4.89,24.45,24.45,0,0,1,4.65-5.67,42.52,42.52,0,0,1,8.78-6.2,46,46,0,0,1,10.6-4.15,34.61,34.61,0,0,1,6.15-1,20.25,20.25,0,0,1,4,0,7.76,7.76,0,0,1,3.36,1.1,4.81,4.81,0,0,1,2.26,3.72,8.45,8.45,0,0,1-.56,3.79,16.8,16.8,0,0,1-3.22,5.31,24.25,24.25,0,0,1-6.15,5.1l-.5.3a9.86,9.86,0,0,1,4.19,3.54l2.07-.35A57,57,0,0,1,45.49,23a3.81,3.81,0,0,1,1.71.25A1.08,1.08,0,0,1,48,24.32a1,1,0,0,1-.67,1,5.18,5.18,0,0,1-1.24.27c-1,.08-2,.08-3,.19-1.55.16-3.1.4-4.64.6a1.52,1.52,0,0,0-.22.08c0,.15,0,.28.08.42a12.76,12.76,0,0,1-.45,6.37,22.94,22.94,0,0,1-3.68,6.9,38.87,38.87,0,0,1-10.67,9.63,32.63,32.63,0,0,1-8.34,3.77,18.94,18.94,0,0,1-6.21.8A7.51,7.51,0,0,1,4.4,52.71a6,6,0,0,1-2.25-5.79,11.27,11.27,0,0,1,2.33-5.28,26.89,26.89,0,0,1,4.83-4.88,49.72,49.72,0,0,1,5.14-3.64,1.07,1.07,0,0,0,.5-.72,51.42,51.42,0,0,1,3.27-8.94A75.88,75.88,0,0,1,23.9,13.35a30.86,30.86,0,0,1,3.25-4.19c.51-.53,1.09-1,1.64-1.5a2.49,2.49,0,0,1,.38-.25,1.67,1.67,0,0,1,2.42.9,1.12,1.12,0,0,1-.08,1.09,7.11,7.11,0,0,1-.69.85c-1,1-1.95,2-2.9,3a35.47,35.47,0,0,0-5,7,62.13,62.13,0,0,0-3.69,7.56c-.36.93-.67,1.89-1,2.84a1.31,1.31,0,0,0-.06.25c1.73-.84,3.43-1.7,5.16-2.49a43.59,43.59,0,0,1,5.32-2c1.82-.56,3.65-1.08,5.51-1.62a2.73,2.73,0,0,0-.27-.31A5.33,5.33,0,0,0,31.1,23,11.64,11.64,0,0,0,26.62,23a9.34,9.34,0,0,1-1.4.13c-.72,0-1-.39-1-1.12a1.54,1.54,0,0,1,1-1.45,12,12,0,0,1,1.8-.63,20.65,20.65,0,0,0,5.59-2.29,19.15,19.15,0,0,0,5.11-4.34A10.87,10.87,0,0,0,39.91,9a7.36,7.36,0,0,0,.22-2.24,2.83,2.83,0,0,0-1.5-2.39,6.21,6.21,0,0,0-2.45-.69,20.88,20.88,0,0,0-7.38.72A44.36,44.36,0,0,0,16.73,9.69,41.43,41.43,0,0,0,9.44,15.2a20.91,20.91,0,0,0-2.86,3.29,8.87,8.87,0,0,0-1.47,3.12,2.52,2.52,0,0,0,.17,1.81,1.82,1.82,0,0,1,.24,1.15,1.85,1.85,0,0,1-1.76,1.51A1.53,1.53,0,0,1,2,24.66c0-.2-.11-.4-.17-.6ZM14,36.27l-.37.21c-1.18.91-2.39,1.78-3.54,2.73a21,21,0,0,0-3.85,4A8.48,8.48,0,0,0,4.61,47a3.75,3.75,0,0,0,.79,3.14,4.36,4.36,0,0,0,2,1.25,9.58,9.58,0,0,0,4.42.23,19.64,19.64,0,0,0,4.81-1.39,33.61,33.61,0,0,0,7.59-4.48,38.2,38.2,0,0,0,7.73-7.82,21.88,21.88,0,0,0,2.83-5.07,9.91,9.91,0,0,0,.63-5.08c0-.25-.11-.49-.17-.75l-1.54.36a55.24,55.24,0,0,0-9.52,3.13,72.09,72.09,0,0,0-6.72,3.58.42.42,0,0,0-.24.36c0,.13,0,.25-.05.38A29.12,29.12,0,0,0,17,38.56a4.14,4.14,0,0,1-.1.93.68.68,0,0,1-.73.56,2.18,2.18,0,0,1-.57-.08,2.52,2.52,0,0,1-1.16-.7,1.71,1.71,0,0,1-.49-1.36c0-.52.07-1,.11-1.64" style="fill:#941b1f"/><path d="M252.67,26.79a4.63,4.63,0,0,1-.88,1.42c-1.11,1.36-2.19,2.74-3.33,4.07a26.62,26.62,0,0,1-4.18,4A8.86,8.86,0,0,1,242,37.64a3.41,3.41,0,0,1-1.79.23,2.54,2.54,0,0,1-2.09-1.77,5.62,5.62,0,0,1-.25-2.51,40.27,40.27,0,0,1,1.16-6.08c.06-.25.12-.5.17-.75a1.77,1.77,0,0,0,.07-.46c0-.66-.39-1-1-.76a3.43,3.43,0,0,0-.85.44,10.87,10.87,0,0,0-2.14,1.93,33.28,33.28,0,0,0-4.41,6c-.33.57-.57,1.19-.86,1.79s-.48,1-.78,1.5c-.47.77-.93.85-1.65.31a2.61,2.61,0,0,1-.47-.47,1.25,1.25,0,0,1-.25-1.23c.39-1.21.79-2.42,1.16-3.63.5-1.67,1-3.33,1.48-5a8.07,8.07,0,0,0,.21-1.38,1,1,0,0,0-1.46-1,13.54,13.54,0,0,0-1.26.81A22.23,22.23,0,0,0,220.79,33a34.27,34.27,0,0,0-2.11,4.56,3.32,3.32,0,0,1-.25.54,1,1,0,0,1-1.25.43,1.45,1.45,0,0,1-.91-1.74c.16-.67.37-1.33.57-2s.45-1.37.67-2.06a.5.5,0,0,0,0-.3L217,33a23.7,23.7,0,0,1-4.38,3.42,7,7,0,0,1-2.14.86,3.54,3.54,0,0,1-1.77-.07,2.8,2.8,0,0,1-2-2.52,17.45,17.45,0,0,1,0-1.91c0-.35,0-.71,0-1.06a2.23,2.23,0,0,0,0-.36.55.55,0,0,0-.51.19c-.31.27-.6.55-.88.84a36.12,36.12,0,0,1-4.86,4.23,8.37,8.37,0,0,1-2.11,1.16,5.9,5.9,0,0,1-.92.23,1.43,1.43,0,0,1-1.22-.41,3,3,0,0,1-1-2.65c0-.26,0-.53.07-.89-.2.14-.33.23-.45.33a19.06,19.06,0,0,1-5,2.86,13.58,13.58,0,0,1-4.57.92,4.39,4.39,0,0,1-4.22-4.24,7.45,7.45,0,0,0-.16-1.14,1.82,1.82,0,0,1,.8-1.91,1.43,1.43,0,0,0,.45-.58,17.75,17.75,0,0,1,3.27-5.08A10.66,10.66,0,0,1,190.7,22a5,5,0,0,1,2.21-.15,3,3,0,0,1,1.51.83A2.22,2.22,0,0,1,195,25a5.92,5.92,0,0,1-1,2,13.7,13.7,0,0,1-3.57,3.14,16.09,16.09,0,0,1-5.11,2.24l-.2.06c-.67.21-1.05.47-.93,1.49a1.89,1.89,0,0,0,2,1.79,10.8,10.8,0,0,0,5-1.37,18.31,18.31,0,0,0,4.1-3.07l.75-.74a10.3,10.3,0,0,0,1.18-1.52,15.94,15.94,0,0,1,7.5-6.56,9.15,9.15,0,0,1,2.78-.64,2.22,2.22,0,0,1,1.48.42c.39.27.75.58,1.12.88s.46.3.78-.06.41-.5.63-.73a1.69,1.69,0,0,1,2.34.23,1.25,1.25,0,0,1,.15,1.25,11.11,11.11,0,0,1-.61,1.25c-.73,1.3-1.49,2.59-2.22,3.89A11.34,11.34,0,0,0,210,31.55a4.76,4.76,0,0,0-.19,2,2.75,2.75,0,0,0,.16.61.74.74,0,0,0,.9.49,4.28,4.28,0,0,0,1.58-.6A14.08,14.08,0,0,0,215.13,32a37.9,37.9,0,0,0,4.17-4.77,1.72,1.72,0,0,0,.27-.52c.55-1.66,1.09-3.33,1.64-5a4.18,4.18,0,0,1,.94-1.73,1.45,1.45,0,0,1,2,0,1.11,1.11,0,0,1,.26.95,7.88,7.88,0,0,1-.31,1.36c-.5,1.44-1,2.87-1.54,4.31-.06.15-.11.31-.16.46l.08.05.3-.38a17.68,17.68,0,0,1,4.27-3.92,5.53,5.53,0,0,1,2-.91,3.48,3.48,0,0,1,3,.84,2,2,0,0,1,.67,1.67,20.68,20.68,0,0,1-.37,2.95,2.57,2.57,0,0,0-.06.75l.28-.34a17.26,17.26,0,0,1,4.05-3.86,8,8,0,0,1,2.69-1.26,2.41,2.41,0,0,1,2.39.72,2.12,2.12,0,0,1,.59,1.95c-.25,1.16-.54,2.32-.83,3.47a31.11,31.11,0,0,0-.81,3.81,10.31,10.31,0,0,0-.06,1.57,1,1,0,0,0,1.33,1,3.92,3.92,0,0,0,1.4-.7,16.35,16.35,0,0,0,2.51-2.34c1.34-1.48,2.54-3.06,3.73-4.67.32-.44.67-.86,1-1.28a2.93,2.93,0,0,1,.53-.47,1,1,0,0,1,1.59.39Zm-54.45,7.09a.77.77,0,0,0,1.21.78c.4-.26.81-.5,1.19-.78a56.7,56.7,0,0,0,6.78-6.09,10.26,10.26,0,0,0,1-1.2c.44-.61.2-.67-.25-.77a.71.71,0,0,1-.63-.72.7.7,0,0,0-.86-.69,1.35,1.35,0,0,0-.28,0,5.39,5.39,0,0,0-1.92.87,16.79,16.79,0,0,0-3.7,3.49,13.69,13.69,0,0,0-2.12,3.44,4.88,4.88,0,0,0-.4,1.63M185,30.29a3.24,3.24,0,0,0,1.36-.31,15.71,15.71,0,0,0,5-3.34,5.68,5.68,0,0,0,.79-1,1.58,1.58,0,0,0,.2-.68.48.48,0,0,0-.45-.56,2,2,0,0,0-.69,0,4.37,4.37,0,0,0-1.73.88A21.08,21.08,0,0,0,185.16,30l-.18.31" style="fill:#941b1f"/><path d="M173.45,25.82a.4.4,0,0,0,.49-.09c.17-.15.32-.3.48-.47a23.77,23.77,0,0,1,3-2.82,5.9,5.9,0,0,1,2.25-1.13,2.77,2.77,0,0,1,1.43.07,2.1,2.1,0,0,1,1.51,2,6.36,6.36,0,0,1-.48,2.95,2,2,0,0,1-1.4,1.28,1.3,1.3,0,0,1-1.59-1.6c.08-.36.21-.7.32-1s.17-.5-.05-.72a.61.61,0,0,0-.8,0,7.64,7.64,0,0,0-1.09.77,32.13,32.13,0,0,0-5.79,6.62,20.46,20.46,0,0,0-1.62,3.16c-.34.77-.68,1.55-1,2.32a6.89,6.89,0,0,1-.39.7.45.45,0,0,1-.64.21,1.67,1.67,0,0,1-1.1-2c.22-.82.5-1.62.75-2.43a2.46,2.46,0,0,0,.14-.58l-.23.21a71.32,71.32,0,0,1-7,6.72,37.44,37.44,0,0,1-7,4.72,19.68,19.68,0,0,1-5.35,1.87,11.67,11.67,0,0,1-5.45-.17,7.94,7.94,0,0,1-5.81-6.43,14.61,14.61,0,0,1-.13-4.57,32.15,32.15,0,0,1,3.71-11.73,50.25,50.25,0,0,1,8-11.19A47.31,47.31,0,0,1,155.82,6,29.33,29.33,0,0,1,163,2.09a13.73,13.73,0,0,1,5.23-.91,5.83,5.83,0,0,1,3.72,1.31,4.15,4.15,0,0,1,1.47,2.86,9.07,9.07,0,0,1-.8,4.42,19.27,19.27,0,0,1-3.25,5.15,19.92,19.92,0,0,1-4,3.63,6.07,6.07,0,0,1-2.16,1,2.27,2.27,0,0,1-1.34-.11,1.06,1.06,0,0,1-.7-1,1.81,1.81,0,0,1,1.1-1.91,4,4,0,0,1,.81-.31,5.58,5.58,0,0,0,2.12-1A13.24,13.24,0,0,0,170,7.86a5.37,5.37,0,0,0,.14-2.36,1.88,1.88,0,0,0-1.68-1.62,6.62,6.62,0,0,0-2.26.14,18.54,18.54,0,0,0-5.77,2.38,39.51,39.51,0,0,0-6.92,5.31,50.38,50.38,0,0,0-9.53,12.08,32,32,0,0,0-3.39,8.45,18.52,18.52,0,0,0-.53,5,7.66,7.66,0,0,0,1.23,4.09,5.39,5.39,0,0,0,4.59,2.52,16,16,0,0,0,6.7-1.49A31.61,31.61,0,0,0,160,37.66,60.17,60.17,0,0,0,170,27a4.91,4.91,0,0,0,.77-1.49c.19-.66.38-1.33.61-2a6.5,6.5,0,0,1,.64-1.42,1.25,1.25,0,0,1,1.85-.34.85.85,0,0,1,.42.86,5.5,5.5,0,0,1-.24,1c-.17.54-.37,1.07-.56,1.6a1,1,0,0,0-.07.6" style="fill:#941b1f"/><path d="M81.14,35.83a52.24,52.24,0,0,1,4-15.7A51.64,51.64,0,0,1,93.37,6.19L93,6.28a38.56,38.56,0,0,1-5.68,1.48,23.11,23.11,0,0,1-4.62.37A9,9,0,0,1,78.42,7a6.3,6.3,0,0,1-1.07-.86A2.13,2.13,0,0,1,76.77,5a1.6,1.6,0,0,1,1.91-2,1.65,1.65,0,0,1,1,.6A4.37,4.37,0,0,0,82.2,5.3a6.76,6.76,0,0,0,1.35.07c.72,0,1.44-.09,2.15-.17A28.14,28.14,0,0,0,90.9,4l5.85-1.85a22.77,22.77,0,0,1,4.82-1,9.91,9.91,0,0,1,3.94.32,3.72,3.72,0,0,1,2.2,1.63,3,3,0,0,1,.08,3,1.75,1.75,0,0,1-1.12.94,1.38,1.38,0,0,1-1.77-1.27c0-.12,0-.23,0-.34A1.82,1.82,0,0,0,103.83,4a3.37,3.37,0,0,0-1.32-.32A7.52,7.52,0,0,0,99.93,4l-1.76.55a3.4,3.4,0,0,1-1.35,2.36,24.23,24.23,0,0,0-5,6.43A68,68,0,0,0,86,26.44a36.46,36.46,0,0,0-1.42,5.67c-.12.81-.18,1.63-.26,2.45a2,2,0,0,0,0,.41,2.05,2.05,0,0,0,.37,0,25.47,25.47,0,0,1,4.66-.7,10.5,10.5,0,0,1,4.09.47,4.76,4.76,0,0,1,1.62.92,2.46,2.46,0,0,1,.67,2.67,1.61,1.61,0,0,1-1.9,1.05,1.44,1.44,0,0,1-1-1.28,1,1,0,0,0-.75-1,5.33,5.33,0,0,0-1.62-.34,13,13,0,0,0-4.38.46c-.36.09-.72.21-1.08.29a2.31,2.31,0,0,0-1.15.59,1.78,1.78,0,0,1-2,.29,1.09,1.09,0,0,0-.64,0,29.81,29.81,0,0,1-5,.58,10,10,0,0,1-3.35-.39,3.72,3.72,0,0,1-1.41-.79,2.42,2.42,0,0,1-.8-1.89,1.29,1.29,0,0,1,.27-.78,1.71,1.71,0,0,1,2.54-.23,4.09,4.09,0,0,1,.39.44,2.61,2.61,0,0,0,2.12,1A27.08,27.08,0,0,0,79.72,36l1.42-.18" style="fill:#941b1f"/><path d="M112.17,33.26l-.53.42A22.72,22.72,0,0,1,106.19,37a10.64,10.64,0,0,1-4.26.93,3.84,3.84,0,0,1-3.75-3.63A7.24,7.24,0,0,1,98.8,31,17.1,17.1,0,0,1,102,26a14.91,14.91,0,0,1,3.88-3.16,7.69,7.69,0,0,1,3.34-1,3.37,3.37,0,0,1,3,2.17,2.19,2.19,0,0,1,0,1.34A4.28,4.28,0,0,1,110,28a1.86,1.86,0,0,1-1,.21.71.71,0,0,1-.69-.56,1.14,1.14,0,0,1,.42-1.39c.23-.19.48-.37.7-.59a1.14,1.14,0,0,0,.28-.46.53.53,0,0,0-.52-.73,3.55,3.55,0,0,0-1,.14A6.63,6.63,0,0,0,106,25.82a13.88,13.88,0,0,0-4.33,5.38,5.56,5.56,0,0,0-.54,2.26,3.57,3.57,0,0,0,.2,1.12,1.39,1.39,0,0,0,1.44,1,7.78,7.78,0,0,0,2.85-.64,17.68,17.68,0,0,0,4.48-2.71,26.9,26.9,0,0,0,4.25-4.15c.32-.39.6-.82.89-1.23a13.14,13.14,0,0,1,4.35-4,8.37,8.37,0,0,1,3.68-1.06,2.89,2.89,0,0,1,2.44,1.11,2.1,2.1,0,0,1,.39,1.92,5.16,5.16,0,0,1-.94,2,12.65,12.65,0,0,1-3.09,2.93,16.75,16.75,0,0,1-5.78,2.67l-.07,0c-.89.25-1.12.62-1,1.55a1.86,1.86,0,0,0,1.87,1.74,10.09,10.09,0,0,0,4.74-1.15A18.41,18.41,0,0,0,126.66,31a37.44,37.44,0,0,0,3.22-3.77,15.18,15.18,0,0,1,1.25-1.41,1.15,1.15,0,0,1,1-.35.78.78,0,0,1,.76.75,1.59,1.59,0,0,1-.22,1c-.21.33-.42.67-.66,1a39,39,0,0,1-5.64,5.85,18.73,18.73,0,0,1-5.9,3.36,14.53,14.53,0,0,1-4,.72,4.15,4.15,0,0,1-3.84-2.61,4.68,4.68,0,0,1-.38-1.73c0-.15,0-.31,0-.58m4-3a3.21,3.21,0,0,0,1.32-.3,15.09,15.09,0,0,0,4.31-2.65A13.44,13.44,0,0,0,123.1,26a2,2,0,0,0,.39-.69.6.6,0,0,0-.55-.87,1.89,1.89,0,0,0-.58,0,4.54,4.54,0,0,0-1.75.92A21,21,0,0,0,116.29,30c-.05.08-.09.17-.17.31" style="fill:#941b1f"/><path d="M52.82,38.19a4.45,4.45,0,0,1-3.56-1.55,2.88,2.88,0,0,1-.66-1.45,1.91,1.91,0,0,1,.26-1.3,1.35,1.35,0,0,1,1.66-.59,1,1,0,0,1,.68.92,4.07,4.07,0,0,0,.06.59A1.41,1.41,0,0,0,52.36,36a2.36,2.36,0,0,0,2.91-2.82A1.79,1.79,0,0,0,54.58,32a12.69,12.69,0,0,0-1.13-.79c-.37-.24-.76-.45-1.14-.69a5.22,5.22,0,0,1-.54-.38,2.69,2.69,0,0,1-1-2.94,5.83,5.83,0,0,1,1.45-2.63,10.26,10.26,0,0,1,5.06-3.08,4.9,4.9,0,0,1,1.14-.16,2.72,2.72,0,0,1,2.29,1.15A2.12,2.12,0,0,1,61.12,24a5.54,5.54,0,0,1-.65,2.22,3.44,3.44,0,0,1-.59.81,1.4,1.4,0,0,1-1.79.18,1.2,1.2,0,0,1-.29-1.66,2.92,2.92,0,0,1,.54-.57c.28-.25.31-.37.1-.68a1,1,0,0,0-1.16-.42,6.14,6.14,0,0,0-.92.38,6.41,6.41,0,0,0-2.14,1.77,2.89,2.89,0,0,0-.58,1.21A1.15,1.15,0,0,0,54,28.41a4,4,0,0,0,.56.44c.32.2.67.38,1,.58s.66.39,1,.61a4.24,4.24,0,0,1,.33,6.69,5.61,5.61,0,0,1-3.07,1.36c-.34,0-.68.07-1,.1" style="fill:#941b1f"/><path d="M49.57,5.57a3.64,3.64,0,0,1-.41,1.59,9.56,9.56,0,0,1-2.64,3.27,1.5,1.5,0,0,1-.47.28.53.53,0,0,1-.79-.57,2.13,2.13,0,0,1,.14-.7c.14-.4.31-.79.46-1.18a4.1,4.1,0,0,0,.27-2.08,2.32,2.32,0,0,1,.33-1.74,1.75,1.75,0,0,1,2.24-.63,1.36,1.36,0,0,1,.75,1c.06.26.08.53.12.8" style="fill:#941b1f"/></g></g></svg>